{
  "accessors": [
    {
      "bufferView": 0,
      "componentType": 5126,
      "count": 9991,
      "max": [
        4.680781364440918,
        12.718456268310547,
        5.381509780883789
      ],
      "min": [
        -6.586118221282959,
        -0.33567750453948975,
        -4.4703569412231445
      ],
      "name": "Kuca_bure_Material0/POSITION",
      "type": "VEC3"
    },
    {
      "bufferView": 0,
      "byteOffset": 12,
      "componentType": 5126,
      "count": 9991,
      "name": "Kuca_bure_Material0/NORMAL",
      "type": "VEC3"
    },
    {
      "bufferView": 0,
      "byteOffset": 24,
      "componentType": 5126,
      "count": 9991,
      "name": "Kuca_bure_Material0/TEXCOORD_0",
      "type": "VEC2"
    },
    {
      "bufferView": 0,
      "byteOffset": 32,
      "componentType": 5126,
      "count": 9991,
      "name": "Kuca_bure_Material0/TEXCOORD_1",
      "type": "VEC2"
    },
    {
      "bufferView": 1,
      "componentType": 5125,
      "count": 18741,
      "name": "Kuca_bure_Material0/INDICES",
      "type": "SCALAR"
    },
    {
      "bufferView": 2,
      "componentType": 5126,
      "count": 5535,
      "max": [
        4.61843729019165,
        11.026827812194824,
        5.347193717956543
      ],
      "min": [
        -5.362402439117432,
        -0.1419677734375,
        -4.478379726409912
      ],
      "name": "Kuca_bure_Material0/POSITION",
      "type": "VEC3"
    },
    {
      "bufferView": 2,
      "byteOffset": 12,
      "componentType": 5126,
      "count": 5535,
      "name": "Kuca_bure_Material0/NORMAL",
      "type": "VEC3"
    },
    {
      "bufferView": 2,
      "byteOffset": 24,
      "componentType": 5126,
      "count": 5535,
      "name": "Kuca_bure_Material0/TEXCOORD_0",
      "type": "VEC2"
    },
    {
      "bufferView": 2,
      "byteOffset": 32,
      "componentType": 5126,
      "count": 5535,
      "name": "Kuca_bure_Material0/TEXCOORD_1",
      "type": "VEC2"
    },
    {
      "bufferView": 3,
      "componentType": 5125,
      "count": 10998,
      "name": "Kuca_bure_Material0/INDICES",
      "type": "SCALAR"
    },
    {
      "bufferView": 4,
      "componentType": 5126,
      "count": 2530,
      "max": [
        4.973388671875,
        3.748382568359375,
        4.1114501953125
      ],
      "min": [
        -2.630502939224243,
        -0.09962218999862671,
        -3.854562997817993
      ],
      "name": "Kuca_bure_Material0/POSITION",
      "type": "VEC3"
    },
    {
      "bufferView": 4,
      "byteOffset": 12,
      "componentType": 5126,
      "count": 2530,
      "name": "Kuca_bure_Material0/NORMAL",
      "type": "VEC3"
    },
    {
      "bufferView": 4,
      "byteOffset": 24,
      "componentType": 5126,
      "count": 2530,
      "name": "Kuca_bure_Material0/TEXCOORD_0",
      "type": "VEC2"
    },
    {
      "bufferView": 4,
      "byteOffset": 32,
      "componentType": 5126,
      "count": 2530,
      "name": "Kuca_bure_Material0/TEXCOORD_1",
      "type": "VEC2"
    },
    {
      "bufferView": 5,
      "componentType": 5125,
      "count": 5076,
      "name": "Kuca_bure_Material0/INDICES",
      "type": "SCALAR"
    },
    {
      "bufferView": 6,
      "componentType": 5126,
      "count": 9348,
      "max": [
        4.927319526672363,
        9.508160591125488,
        5.729952335357666
      ],
      "min": [
        -6.695981502532959,
        -0.2951281666755676,
        -4.942097187042236
      ],
      "name": "Kuca_bure_Material0/POSITION",
      "type": "VEC3"
    },
    {
      "bufferView": 6,
      "byteOffset": 12,
      "componentType": 5126,
      "count": 9348,
      "name": "Kuca_bure_Material0/NORMAL",
      "type": "VEC3"
    },
    {
      "bufferView": 6,
      "byteOffset": 24,
      "componentType": 5126,
      "count": 9348,
      "name": "Kuca_bure_Material0/TEXCOORD_0",
      "type": "VEC2"
    },
    {
      "bufferView": 6,
      "byteOffset": 32,
      "componentType": 5126,
      "count": 9348,
      "name": "Kuca_bure_Material0/TEXCOORD_1",
      "type": "VEC2"
    },
    {
      "bufferView": 7,
      "componentType": 5125,
      "count": 17871,
      "name": "Kuca_bure_Material0/INDICES",
      "type": "SCALAR"
    },
    {
      "bufferView": 8,
      "componentType": 5126,
      "count": 417,
      "max": [
        -0.5120263695716858,
        5.228204250335693,
        2.0416259765625
      ],
      "min": [
        -5.48712158203125,
        -0.0247802734375,
        -2.349017858505249
      ],
      "name": "Kuca_bure_Material0/POSITION",
      "type": "VEC3"
    },
    {
      "bufferView": 8,
      "byteOffset": 12,
      "componentType": 5126,
      "count": 417,
      "name": "Kuca_bure_Material0/NORMAL",
      "type": "VEC3"
    },
    {
      "bufferView": 8,
      "byteOffset": 24,
      "componentType": 5126,
      "count": 417,
      "name": "Kuca_bure_Material0/TEXCOORD_0",
      "type": "VEC2"
    },
    {
      "bufferView": 8,
      "byteOffset": 32,
      "componentType": 5126,
      "count": 417,
      "name": "Kuca_bure_Material0/TEXCOORD_1",
      "type": "VEC2"
    },
    {
      "bufferView": 9,
      "componentType": 5125,
      "count": 774,
      "name": "Kuca_bure_Material0/INDICES",
      "type": "SCALAR"
    },
    {
      "bufferView": 10,
      "componentType": 5126,
      "count": 108,
      "max": [
        2.171333074569702,
        12.500837326049805,
        0.9188196063041687
      ],
      "min": [
        -5.595283031463623,
        0.5371167063713074,
        -1.8801404237747192
      ],
      "name": "Kuca_bure_Material0/POSITION",
      "type": "VEC3"
    },
    {
      "bufferView": 10,
      "byteOffset": 12,
      "componentType": 5126,
      "count": 108,
      "name": "Kuca_bure_Material0/NORMAL",
      "type": "VEC3"
    },
    {
      "bufferView": 10,
      "byteOffset": 24,
      "componentType": 5126,
      "count": 108,
      "name": "Kuca_bure_Material0/TEXCOORD_0",
      "type": "VEC2"
    },
    {
      "bufferView": 10,
      "byteOffset": 32,
      "componentType": 5126,
      "count": 108,
      "name": "Kuca_bure_Material0/TEXCOORD_1",
      "type": "VEC2"
    },
    {
      "bufferView": 11,
      "componentType": 5125,
      "count": 198,
      "name": "Kuca_bure_Material0/INDICES",
      "type": "SCALAR"
    }
  ],
  "asset": {
    "copyright": "Copyright (c) 2018-2020 Chukong Technologies Inc.",
    "generator": "FBX-glTF-conv",
    "version": "2.0"
  },
  "bufferViews": [
    {
      "buffer": 0,
      "byteLength": 399640,
      "byteStride": 40,
      "name": "Kuca_bure_Material0",
      "target": 34962
    },
    {
      "buffer": 0,
      "byteLength": 74964,
      "byteOffset": 399640
    },
    {
      "buffer": 0,
      "byteLength": 221400,
      "byteOffset": 474604,
      "byteStride": 40,
      "name": "Kuca_bure_Material0",
      "target": 34962
    },
    {
      "buffer": 0,
      "byteLength": 43992,
      "byteOffset": 696004
    },
    {
      "buffer": 0,
      "byteLength": 101200,
      "byteOffset": 739996,
      "byteStride": 40,
      "name": "Kuca_bure_Material0",
      "target": 34962
    },
    {
      "buffer": 0,
      "byteLength": 20304,
      "byteOffset": 841196
    },
    {
      "buffer": 0,
      "byteLength": 373920,
      "byteOffset": 861500,
      "byteStride": 40,
      "name": "Kuca_bure_Material0",
      "target": 34962
    },
    {
      "buffer": 0,
      "byteLength": 71484,
      "byteOffset": 1235420
    },
    {
      "buffer": 0,
      "byteLength": 16680,
      "byteOffset": 1306904,
      "byteStride": 40,
      "name": "Kuca_bure_Material0",
      "target": 34962
    },
    {
      "buffer": 0,
      "byteLength": 3096,
      "byteOffset": 1323584
    },
    {
      "buffer": 0,
      "byteLength": 4320,
      "byteOffset": 1326680,
      "byteStride": 40,
      "name": "Kuca_bure_Material0",
      "target": 34962
    },
    {
      "buffer": 0,
      "byteLength": 792,
      "byteOffset": 1331000
    }
  ],
  "buffers": [
    {
      "byteLength": 1331792,
      "uri": "out.bin"
    }
  ],
  "extras": {
    "FBX-glTF-conv": {
      "animationFrameRate": 24.0
    }
  },
  "images": [
    {
      "extras": {
        "FBX-glTF-conv": {
          "fileName": "/Users/aleksandarbedov/Documents/CocosCreator/tajanstvenesobe2/temp/asset-db/assets/fbx.FBX-glTF-conv/654b13dd-7642-40a5-846b-820b6ac5185a/output/.fbm/79163610/Grad nevidljivih ljudi samo kuca bure 30 maj.fbm/Manmade04Diffuse.jpg",
          "relativeFileName": "../../../temp/asset-db/assets/fbx.FBX-glTF-conv/654b13dd-7642-40a5-846b-820b6ac5185a/output/.fbm/79163610/Grad nevidljivih ljudi samo kuca bure 30 maj.fbm/Manmade04Diffuse.jpg"
        }
      },
      "name": "DiffuseColor_Texture_3",
      "uri": "Manmade04Diffuse.jpg"
    },
    {
      "extras": {
        "FBX-glTF-conv": {
          "fileName": "/Users/aleksandarbedov/Documents/CocosCreator/tajanstvenesobe2/temp/asset-db/assets/fbx.FBX-glTF-conv/654b13dd-7642-40a5-846b-820b6ac5185a/output/.fbm/79163610/Grad nevidljivih ljudi samo kuca bure 30 maj.fbm/Manmade01Diffuse.jpg",
          "relativeFileName": "../../../temp/asset-db/assets/fbx.FBX-glTF-conv/654b13dd-7642-40a5-846b-820b6ac5185a/output/.fbm/79163610/Grad nevidljivih ljudi samo kuca bure 30 maj.fbm/Manmade01Diffuse.jpg"
        }
      },
      "name": "DiffuseColor_Texture",
      "uri": "Manmade01Diffuse.jpg"
    },
    {
      "extras": {
        "FBX-glTF-conv": {
          "fileName": "/Users/aleksandarbedov/Documents/CocosCreator/tajanstvenesobe2/temp/asset-db/assets/fbx.FBX-glTF-conv/654b13dd-7642-40a5-846b-820b6ac5185a/output/.fbm/79163610/Grad nevidljivih ljudi samo kuca bure 30 maj.fbm/Rocks01Diffuse.jpg",
          "relativeFileName": "../../../temp/asset-db/assets/fbx.FBX-glTF-conv/654b13dd-7642-40a5-846b-820b6ac5185a/output/.fbm/79163610/Grad nevidljivih ljudi samo kuca bure 30 maj.fbm/Rocks01Diffuse.jpg"
        }
      },
      "name": "DiffuseColor_Texture_4",
      "uri": "Rocks01Diffuse.jpg"
    },
    {
      "extras": {
        "FBX-glTF-conv": {
          "fileName": "/Users/aleksandarbedov/Documents/CocosCreator/tajanstvenesobe2/temp/asset-db/assets/fbx.FBX-glTF-conv/654b13dd-7642-40a5-846b-820b6ac5185a/output/.fbm/79163610/Grad nevidljivih ljudi samo kuca bure 30 maj.fbm/Manmade02Diffuse.jpg",
          "relativeFileName": "../../../temp/asset-db/assets/fbx.FBX-glTF-conv/654b13dd-7642-40a5-846b-820b6ac5185a/output/.fbm/79163610/Grad nevidljivih ljudi samo kuca bure 30 maj.fbm/Manmade02Diffuse.jpg"
        }
      },
      "name": "DiffuseColor_Texture_2",
      "uri": "Manmade02Diffuse.jpg"
    },
    {
      "extras": {
        "FBX-glTF-conv": {
          "fileName": "/Users/aleksandarbedov/Documents/CocosCreator/tajanstvenesobe2/temp/asset-db/assets/fbx.FBX-glTF-conv/654b13dd-7642-40a5-846b-820b6ac5185a/output/.fbm/79163610/Grad nevidljivih ljudi samo kuca bure 30 maj.fbm/Manmade03Diffuse.jpg",
          "relativeFileName": "../../../temp/asset-db/assets/fbx.FBX-glTF-conv/654b13dd-7642-40a5-846b-820b6ac5185a/output/.fbm/79163610/Grad nevidljivih ljudi samo kuca bure 30 maj.fbm/Manmade03Diffuse.jpg"
        }
      },
      "name": "DiffuseColor_Texture_1",
      "uri": "Manmade03Diffuse.jpg"
    }
  ],
  "materials": [
    {
      "name": "Manmade04Diffuse1",
      "pbrMetallicRoughness": {
        "baseColorTexture": {
          "index": 0
        }
      }
    },
    {
      "name": "Manmade01Diffuse1",
      "pbrMetallicRoughness": {
        "baseColorTexture": {
          "index": 1
        }
      }
    },
    {
      "name": "Rocks01Diffuse1",
      "pbrMetallicRoughness": {
        "baseColorTexture": {
          "index": 2
        }
      }
    },
    {
      "name": "Manmade02Diffuse2",
      "pbrMetallicRoughness": {
        "baseColorTexture": {
          "index": 3
        }
      }
    },
    {
      "name": "Manmade03Diffuse1",
      "pbrMetallicRoughness": {
        "baseColorTexture": {
          "index": 4
        }
      }
    },
    {
      "name": "Manmade03Diffuse4"
    }
  ],
  "meshes": [
    {
      "name": "Kuca_bure_Material0",
      "primitives": [
        {
          "attributes": {
            "NORMAL": 1,
            "POSITION": 0,
            "TEXCOORD_0": 2,
            "TEXCOORD_1": 3
          },
          "indices": 4,
          "material": 0
        },
        {
          "attributes": {
            "NORMAL": 6,
            "POSITION": 5,
            "TEXCOORD_0": 7,
            "TEXCOORD_1": 8
          },
          "indices": 9,
          "material": 1
        },
        {
          "attributes": {
            "NORMAL": 11,
            "POSITION": 10,
            "TEXCOORD_0": 12,
            "TEXCOORD_1": 13
          },
          "indices": 14,
          "material": 2
        },
        {
          "attributes": {
            "NORMAL": 16,
            "POSITION": 15,
            "TEXCOORD_0": 17,
            "TEXCOORD_1": 18
          },
          "indices": 19,
          "material": 3
        },
        {
          "attributes": {
            "NORMAL": 21,
            "POSITION": 20,
            "TEXCOORD_0": 22,
            "TEXCOORD_1": 23
          },
          "indices": 24,
          "material": 4
        },
        {
          "attributes": {
            "NORMAL": 26,
            "POSITION": 25,
            "TEXCOORD_0": 27,
            "TEXCOORD_1": 28
          },
          "indices": 29,
          "material": 5
        }
      ]
    }
  ],
  "nodes": [
    {
      "mesh": 0,
      "name": "Kuca_bure",
      "rotation": [
        1.077958522444078e-08,
        -0.7234055399894714,
        -1.0288112584078135e-08,
        0.6904233694076538
      ],
      "scale": [
        0.0037222281098365784,
        0.0037222281098365784,
        0.0037222281098365784
      ],
      "translation": [
        -0.031125351786613464,
        0.02773210220038891,
        0.16574625670909882
      ]
    }
  ],
  "samplers": [
    {}
  ],
  "scenes": [
    {
      "nodes": [
        0
      ]
    }
  ],
  "textures": [
    {
      "name": "DiffuseColor_Texture_3",
      "sampler": 0,
      "source": 0
    },
    {
      "name": "DiffuseColor_Texture",
      "sampler": 0,
      "source": 1
    },
    {
      "name": "DiffuseColor_Texture_4",
      "sampler": 0,
      "source": 2
    },
    {
      "name": "DiffuseColor_Texture_2",
      "sampler": 0,
      "source": 3
    },
    {
      "name": "DiffuseColor_Texture_1",
      "sampler": 0,
      "source": 4
    }
  ]
}