{
  "accessors": [
    {
      "bufferView": 0,
      "componentType": 5126,
      "count": 7190,
      "max": [
        18.584331512451172,
        0.8802946209907532,
        17.302040100097656
      ],
      "min": [
        -2.7239677906036377,
        -0.08079338073730469,
        -16.72222328186035
      ],
      "name": "Ne_interaktivni_elementi_Material0/POSITION",
      "type": "VEC3"
    },
    {
      "bufferView": 0,
      "byteOffset": 12,
      "componentType": 5126,
      "count": 7190,
      "name": "Ne_interaktivni_elementi_Material0/NORMAL",
      "type": "VEC3"
    },
    {
      "bufferView": 0,
      "byteOffset": 24,
      "componentType": 5126,
      "count": 7190,
      "name": "Ne_interaktivni_elementi_Material0/TEXCOORD_0",
      "type": "VEC2"
    },
    {
      "bufferView": 1,
      "componentType": 5125,
      "count": 11559,
      "name": "Ne_interaktivni_elementi_Material0/INDICES",
      "type": "SCALAR"
    },
    {
      "bufferView": 2,
      "componentType": 5126,
      "count": 1208,
      "max": [
        0.5218858122825623,
        0.6981534361839294,
        15.680859565734863
      ],
      "min": [
        -2.299957036972046,
        -0.06585875898599625,
        10.01480770111084
      ],
      "name": "Ne_interaktivni_elementi_Material0/POSITION",
      "type": "VEC3"
    },
    {
      "bufferView": 2,
      "byteOffset": 12,
      "componentType": 5126,
      "count": 1208,
      "name": "Ne_interaktivni_elementi_Material0/NORMAL",
      "type": "VEC3"
    },
    {
      "bufferView": 2,
      "byteOffset": 24,
      "componentType": 5126,
      "count": 1208,
      "name": "Ne_interaktivni_elementi_Material0/TEXCOORD_0",
      "type": "VEC2"
    },
    {
      "bufferView": 3,
      "componentType": 5125,
      "count": 2316,
      "name": "Ne_interaktivni_elementi_Material0/INDICES",
      "type": "SCALAR"
    }
  ],
  "asset": {
    "copyright": "Copyright (c) 2018-2020 Chukong Technologies Inc.",
    "generator": "FBX-glTF-conv",
    "version": "2.0"
  },
  "bufferViews": [
    {
      "buffer": 0,
      "byteLength": 230080,
      "byteStride": 32,
      "name": "Ne_interaktivni_elementi_Material0",
      "target": 34962
    },
    {
      "buffer": 0,
      "byteLength": 46236,
      "byteOffset": 230080
    },
    {
      "buffer": 0,
      "byteLength": 38656,
      "byteOffset": 276316,
      "byteStride": 32,
      "name": "Ne_interaktivni_elementi_Material0",
      "target": 34962
    },
    {
      "buffer": 0,
      "byteLength": 9264,
      "byteOffset": 314972
    }
  ],
  "buffers": [
    {
      "byteLength": 324236,
      "uri": "out.bin"
    }
  ],
  "extras": {
    "FBX-glTF-conv": {
      "animationFrameRate": 24.0
    }
  },
  "images": [
    {
      "extras": {
        "FBX-glTF-conv": {
          "fileName": "/Users/aleksandarbedov/Documents/CocosCreator/tajanstvenesobe2/temp/asset-db/assets/fbx.FBX-glTF-conv/97c67fa2-32bb-4e37-94fa-7f3805f323d5/output/.fbm/5BA93051/Bozicna samo prohodni elementi 20. april.fbm/Atlas_Xmas_Plants.png",
          "relativeFileName": "../../../temp/asset-db/assets/fbx.FBX-glTF-conv/97c67fa2-32bb-4e37-94fa-7f3805f323d5/output/.fbm/5BA93051/Bozicna samo prohodni elementi 20. april.fbm/Atlas_Xmas_Plants.png"
        }
      },
      "name": "DiffuseColor_Texture_1",
      "uri": "Atlas_Xmas_Plants.png"
    },
    {
      "extras": {
        "FBX-glTF-conv": {
          "fileName": "/Users/aleksandarbedov/Documents/CocosCreator/tajanstvenesobe2/temp/asset-db/assets/fbx.FBX-glTF-conv/97c67fa2-32bb-4e37-94fa-7f3805f323d5/output/.fbm/5BA93051/Bozicna samo prohodni elementi 20. april.fbm/Atlas_Xmas_Items_02-edited-s-koracima.png",
          "relativeFileName": "../../../temp/asset-db/assets/fbx.FBX-glTF-conv/97c67fa2-32bb-4e37-94fa-7f3805f323d5/output/.fbm/5BA93051/Bozicna samo prohodni elementi 20. april.fbm/Atlas_Xmas_Items_02-edited-s-koracima.png"
        }
      },
      "name": "file6",
      "uri": "Atlas_Xmas_Items_02-edited-s-koracima.png"
    }
  ],
  "materials": [
    {
      "name": "Atlas_Xmas_Plants",
      "pbrMetallicRoughness": {
        "baseColorTexture": {
          "index": 0
        }
      }
    },
    {
      "name": "Atlas_Xmas_Items_02",
      "pbrMetallicRoughness": {
        "baseColorTexture": {
          "index": 1
        }
      }
    }
  ],
  "meshes": [
    {
      "name": "Ne_interaktivni_elementi_Material0",
      "primitives": [
        {
          "attributes": {
            "NORMAL": 1,
            "POSITION": 0,
            "TEXCOORD_0": 2
          },
          "indices": 3,
          "material": 0
        },
        {
          "attributes": {
            "NORMAL": 5,
            "POSITION": 4,
            "TEXCOORD_0": 6
          },
          "indices": 7,
          "material": 1
        }
      ]
    }
  ],
  "nodes": [
    {
      "mesh": 0,
      "name": "Ne_interaktivni_elementi"
    }
  ],
  "samplers": [
    {}
  ],
  "scenes": [
    {
      "nodes": [
        0
      ]
    }
  ],
  "textures": [
    {
      "name": "DiffuseColor_Texture_1",
      "sampler": 0,
      "source": 0
    },
    {
      "name": "file6",
      "sampler": 0,
      "source": 1
    }
  ]
}