{
  "accessors": [
    {
      "bufferView": 0,
      "componentType": 5126,
      "count": 24854,
      "max": [
        0.009999999776482582,
        0.002480969997122884,
        0.009999999776482582
      ],
      "min": [
        -0.009999999776482582,
        -0.0005706800147891045,
        -0.009999999776482582
      ],
      "name": "Cube_Cube.002/POSITION",
      "type": "VEC3"
    },
    {
      "bufferView": 0,
      "byteOffset": 12,
      "componentType": 5126,
      "count": 24854,
      "name": "Cube_Cube.002/NORMAL",
      "type": "VEC3"
    },
    {
      "bufferView": 0,
      "byteOffset": 24,
      "componentType": 5126,
      "count": 24854,
      "name": "Cube_Cube.002/TEXCOORD_0",
      "type": "VEC2"
    },
    {
      "bufferView": 1,
      "componentType": 5125,
      "count": 144000,
      "name": "Cube_Cube.002/INDICES",
      "type": "SCALAR"
    },
    {
      "bufferView": 2,
      "componentType": 5126,
      "count": 1057,
      "max": [
        0.008276020176708698,
        0.003490380011498928,
        0.008276020176708698
      ],
      "min": [
        -0.008276020176708698,
        0.0008579400018788874,
        -0.008276020176708698
      ],
      "name": "Cylinder.001/POSITION",
      "type": "VEC3"
    },
    {
      "bufferView": 2,
      "byteOffset": 12,
      "componentType": 5126,
      "count": 1057,
      "name": "Cylinder.001/NORMAL",
      "type": "VEC3"
    },
    {
      "bufferView": 2,
      "byteOffset": 24,
      "componentType": 5126,
      "count": 1057,
      "name": "Cylinder.001/TEXCOORD_0",
      "type": "VEC2"
    },
    {
      "bufferView": 3,
      "componentType": 5125,
      "count": 6144,
      "name": "Cylinder.001/INDICES",
      "type": "SCALAR"
    }
  ],
  "asset": {
    "copyright": "Copyright (c) 2018-2020 Chukong Technologies Inc.",
    "generator": "FBX-glTF-conv",
    "version": "2.0"
  },
  "bufferViews": [
    {
      "buffer": 0,
      "byteLength": 795328,
      "byteStride": 32,
      "name": "Cube_Cube.002",
      "target": 34962
    },
    {
      "buffer": 0,
      "byteLength": 576000,
      "byteOffset": 795328
    },
    {
      "buffer": 0,
      "byteLength": 33824,
      "byteOffset": 1371328,
      "byteStride": 32,
      "name": "Cylinder.001",
      "target": 34962
    },
    {
      "buffer": 0,
      "byteLength": 24576,
      "byteOffset": 1405152
    }
  ],
  "buffers": [
    {
      "byteLength": 1429728,
      "uri": "out.bin"
    }
  ],
  "extras": {
    "FBX-glTF-conv": {
      "animationFrameRate": 24.0
    }
  },
  "images": [
    {
      "extras": {
        "FBX-glTF-conv": {
          "fileName": "E:\\Users\\Макс\\Desktop\\blender-2.82a-windows64",
          "relativeFileName": "E:\\Users\\Макс\\Desktop\\blender-2.82a-windows64"
        }
      },
      "name": "base_color_texture",
      "uri": "data:image/png;base64,"
    }
  ],
  "materials": [
    {
      "name": "button.001",
      "pbrMetallicRoughness": {
        "baseColorTexture": {
          "index": 0
        },
        "metallicFactor": 0.4000000059604645,
        "roughnessFactor": 0.14002801477909088
      }
    }
  ],
  "meshes": [
    {
      "name": "Cube_Cube.002",
      "primitives": [
        {
          "attributes": {
            "NORMAL": 1,
            "POSITION": 0,
            "TEXCOORD_0": 2
          },
          "indices": 3,
          "material": 0
        }
      ]
    },
    {
      "name": "Cylinder.001",
      "primitives": [
        {
          "attributes": {
            "NORMAL": 5,
            "POSITION": 4,
            "TEXCOORD_0": 6
          },
          "indices": 7,
          "material": 0
        }
      ]
    }
  ],
  "nodes": [
    {
      "mesh": 0,
      "name": "button_1",
      "scale": [
        100.0,
        100.0,
        100.0
      ]
    },
    {
      "mesh": 1,
      "name": "button2",
      "scale": [
        100.0,
        100.0,
        100.0
      ]
    }
  ],
  "samplers": [
    {}
  ],
  "scenes": [
    {
      "name": "Scene",
      "nodes": [
        0,
        1
      ]
    }
  ],
  "textures": [
    {
      "name": "base_color_texture",
      "sampler": 0,
      "source": 0
    }
  ]
}