{
  "accessors": [
    {
      "bufferView": 0,
      "componentType": 5126,
      "count": 201,
      "max": [
        23.678997039794922,
        -0.004539008252322674,
        21.35883331298828
      ],
      "min": [
        -18.972816467285156,
        -0.6029627323150635,
        -21.292978286743164
      ],
      "name": "Pod_Material0/POSITION",
      "type": "VEC3"
    },
    {
      "bufferView": 0,
      "byteOffset": 12,
      "componentType": 5126,
      "count": 201,
      "name": "Pod_Material0/NORMAL",
      "type": "VEC3"
    },
    {
      "bufferView": 0,
      "byteOffset": 24,
      "componentType": 5126,
      "count": 201,
      "name": "Pod_Material0/TEXCOORD_0",
      "type": "VEC2"
    },
    {
      "bufferView": 1,
      "componentType": 5125,
      "count": 1080,
      "name": "Pod_Material0/INDICES",
      "type": "SCALAR"
    },
    {
      "bufferView": 2,
      "componentType": 5126,
      "count": 3457,
      "max": [
        16.72223472595215,
        0.07905911654233932,
        15.391036033630371
      ],
      "min": [
        -12.406315803527832,
        -0.008508950471878052,
        -13.533156394958496
      ],
      "name": "Pod_Material0/POSITION",
      "type": "VEC3"
    },
    {
      "bufferView": 2,
      "byteOffset": 12,
      "componentType": 5126,
      "count": 3457,
      "name": "Pod_Material0/NORMAL",
      "type": "VEC3"
    },
    {
      "bufferView": 2,
      "byteOffset": 24,
      "componentType": 5126,
      "count": 3457,
      "name": "Pod_Material0/TEXCOORD_0",
      "type": "VEC2"
    },
    {
      "bufferView": 3,
      "componentType": 5125,
      "count": 5637,
      "name": "Pod_Material0/INDICES",
      "type": "SCALAR"
    }
  ],
  "asset": {
    "copyright": "Copyright (c) 2018-2020 Chukong Technologies Inc.",
    "generator": "FBX-glTF-conv",
    "version": "2.0"
  },
  "bufferViews": [
    {
      "buffer": 0,
      "byteLength": 6432,
      "byteStride": 32,
      "name": "Pod_Material0",
      "target": 34962
    },
    {
      "buffer": 0,
      "byteLength": 4320,
      "byteOffset": 6432
    },
    {
      "buffer": 0,
      "byteLength": 110624,
      "byteOffset": 10752,
      "byteStride": 32,
      "name": "Pod_Material0",
      "target": 34962
    },
    {
      "buffer": 0,
      "byteLength": 22548,
      "byteOffset": 121376
    }
  ],
  "buffers": [
    {
      "byteLength": 143924,
      "uri": "out.bin"
    }
  ],
  "extras": {
    "FBX-glTF-conv": {
      "animationFrameRate": 24.0
    }
  },
  "images": [
    {
      "extras": {
        "FBX-glTF-conv": {
          "fileName": "/Users/aleksandarbedov/Documents/CocosCreator/tajanstvenesobe2/temp/asset-db/assets/fbx.FBX-glTF-conv/f78af9da-412e-48cb-bee0-62fc3377b1c4/output/.fbm/F09E28CD/Uskrs samo pod 18. april.fbm/BG_01.png",
          "relativeFileName": "../../../temp/asset-db/assets/fbx.FBX-glTF-conv/f78af9da-412e-48cb-bee0-62fc3377b1c4/output/.fbm/F09E28CD/Uskrs samo pod 18. april.fbm/BG_01.png"
        }
      },
      "name": "BG_01.png",
      "uri": "BG_01.png"
    },
    {
      "extras": {
        "FBX-glTF-conv": {
          "fileName": "",
          "relativeFileName": ""
        }
      },
      "name": "file1",
      "uri": "data:image/png;base64,"
    },
    {
      "extras": {
        "FBX-glTF-conv": {
          "fileName": "/Users/aleksandarbedov/Documents/CocosCreator/tajanstvenesobe2/temp/asset-db/assets/fbx.FBX-glTF-conv/f78af9da-412e-48cb-bee0-62fc3377b1c4/output/.fbm/F09E28CD/Uskrs samo pod 18. april.fbm/Road_01.png",
          "relativeFileName": "../../../temp/asset-db/assets/fbx.FBX-glTF-conv/f78af9da-412e-48cb-bee0-62fc3377b1c4/output/.fbm/F09E28CD/Uskrs samo pod 18. april.fbm/Road_01.png"
        }
      },
      "name": "Road_01.png",
      "uri": "Road_01.png"
    }
  ],
  "materials": [
    {
      "name": "BG_01",
      "pbrMetallicRoughness": {
        "baseColorTexture": {
          "index": 0
        }
      }
    },
    {
      "alphaMode": "BLEND",
      "name": "Road_01",
      "pbrMetallicRoughness": {
        "baseColorFactor": [
          1.0,
          1.0,
          1.0,
          0.0
        ],
        "baseColorTexture": {
          "index": 2
        }
      }
    }
  ],
  "meshes": [
    {
      "name": "Pod_Material0",
      "primitives": [
        {
          "attributes": {
            "NORMAL": 1,
            "POSITION": 0,
            "TEXCOORD_0": 2
          },
          "indices": 3,
          "material": 0
        },
        {
          "attributes": {
            "NORMAL": 5,
            "POSITION": 4,
            "TEXCOORD_0": 6
          },
          "indices": 7,
          "material": 1
        }
      ]
    }
  ],
  "nodes": [
    {
      "mesh": 0,
      "name": "Pod"
    }
  ],
  "samplers": [
    {}
  ],
  "scenes": [
    {
      "nodes": [
        0
      ]
    }
  ],
  "textures": [
    {
      "name": "BG_01.png",
      "sampler": 0,
      "source": 0
    },
    {
      "name": "file1",
      "sampler": 0,
      "source": 1
    },
    {
      "name": "Road_01.png",
      "sampler": 0,
      "source": 2
    }
  ]
}