{
  "accessors": [
    {
      "bufferView": 0,
      "componentType": 5126,
      "count": 374,
      "max": [
        -0.22531545162200928,
        0.06883124262094498,
        -0.04778028652071953
      ],
      "min": [
        -0.2319732904434204,
        0.060026273131370544,
        -0.05253912881016731
      ],
      "name": "Dva_odzaka_Material0/POSITION",
      "type": "VEC3"
    },
    {
      "bufferView": 0,
      "byteOffset": 12,
      "componentType": 5126,
      "count": 374,
      "name": "Dva_odzaka_Material0/NORMAL",
      "type": "VEC3"
    },
    {
      "bufferView": 0,
      "byteOffset": 24,
      "componentType": 5126,
      "count": 374,
      "name": "Dva_odzaka_Material0/TEXCOORD_0",
      "type": "VEC2"
    },
    {
      "bufferView": 0,
      "byteOffset": 32,
      "componentType": 5126,
      "count": 374,
      "name": "Dva_odzaka_Material0/TEXCOORD_1",
      "type": "VEC2"
    },
    {
      "bufferView": 1,
      "componentType": 5125,
      "count": 810,
      "name": "Dva_odzaka_Material0/INDICES",
      "type": "SCALAR"
    },
    {
      "bufferView": 2,
      "componentType": 5126,
      "count": 1643,
      "max": [
        -0.22696131467819214,
        0.07433553785085678,
        -0.049029286950826645
      ],
      "min": [
        -0.23125067353248596,
        0.06504230201244354,
        -0.05333410203456879
      ],
      "name": "Dva_odzaka_Material0/POSITION",
      "type": "VEC3"
    },
    {
      "bufferView": 2,
      "byteOffset": 12,
      "componentType": 5126,
      "count": 1643,
      "name": "Dva_odzaka_Material0/NORMAL",
      "type": "VEC3"
    },
    {
      "bufferView": 2,
      "byteOffset": 24,
      "componentType": 5126,
      "count": 1643,
      "name": "Dva_odzaka_Material0/TEXCOORD_0",
      "type": "VEC2"
    },
    {
      "bufferView": 2,
      "byteOffset": 32,
      "componentType": 5126,
      "count": 1643,
      "name": "Dva_odzaka_Material0/TEXCOORD_1",
      "type": "VEC2"
    },
    {
      "bufferView": 3,
      "componentType": 5125,
      "count": 3846,
      "name": "Dva_odzaka_Material0/INDICES",
      "type": "SCALAR"
    }
  ],
  "asset": {
    "copyright": "Copyright (c) 2018-2020 Chukong Technologies Inc.",
    "generator": "FBX-glTF-conv",
    "version": "2.0"
  },
  "bufferViews": [
    {
      "buffer": 0,
      "byteLength": 14960,
      "byteStride": 40,
      "name": "Dva_odzaka_Material0",
      "target": 34962
    },
    {
      "buffer": 0,
      "byteLength": 3240,
      "byteOffset": 14960
    },
    {
      "buffer": 0,
      "byteLength": 65720,
      "byteOffset": 18200,
      "byteStride": 40,
      "name": "Dva_odzaka_Material0",
      "target": 34962
    },
    {
      "buffer": 0,
      "byteLength": 15384,
      "byteOffset": 83920
    }
  ],
  "buffers": [
    {
      "byteLength": 99304,
      "uri": "out.bin"
    }
  ],
  "extras": {
    "FBX-glTF-conv": {
      "animationFrameRate": 24.0
    }
  },
  "images": [
    {
      "extras": {
        "FBX-glTF-conv": {
          "fileName": "/Users/aleksandarbedov/Documents/CocosCreator/tajanstvenesobe2/temp/asset-db/assets/fbx.FBX-glTF-conv/739a8a3c-d694-4fc7-8c6c-6e9065311015/output/.fbm/6172A16/Dva odzaka.fbm/Manmade05Diffuse.jpg",
          "relativeFileName": "../../../temp/asset-db/assets/fbx.FBX-glTF-conv/739a8a3c-d694-4fc7-8c6c-6e9065311015/output/.fbm/6172A16/Dva odzaka.fbm/Manmade05Diffuse.jpg"
        }
      },
      "name": "DiffuseColor_Texture_20",
      "uri": "Manmade05Diffuse.jpg"
    },
    {
      "extras": {
        "FBX-glTF-conv": {
          "fileName": "/Users/aleksandarbedov/Documents/CocosCreator/tajanstvenesobe2/temp/asset-db/assets/fbx.FBX-glTF-conv/739a8a3c-d694-4fc7-8c6c-6e9065311015/output/.fbm/6172A16/Dva odzaka.fbm/Manmade01Normal.jpg",
          "relativeFileName": "../../../temp/asset-db/assets/fbx.FBX-glTF-conv/739a8a3c-d694-4fc7-8c6c-6e9065311015/output/.fbm/6172A16/Dva odzaka.fbm/Manmade01Normal.jpg"
        }
      },
      "name": "NormalMap_Texture",
      "uri": "Manmade01Normal.jpg"
    },
    {
      "extras": {
        "FBX-glTF-conv": {
          "fileName": "/Users/aleksandarbedov/Documents/CocosCreator/tajanstvenesobe2/temp/asset-db/assets/fbx.FBX-glTF-conv/739a8a3c-d694-4fc7-8c6c-6e9065311015/output/.fbm/6172A16/Dva odzaka.fbm/Manmade04Diffuse.jpg",
          "relativeFileName": "../../../temp/asset-db/assets/fbx.FBX-glTF-conv/739a8a3c-d694-4fc7-8c6c-6e9065311015/output/.fbm/6172A16/Dva odzaka.fbm/Manmade04Diffuse.jpg"
        }
      },
      "name": "DiffuseColor_Texture_44",
      "uri": "Manmade04Diffuse.jpg"
    },
    {
      "extras": {
        "FBX-glTF-conv": {
          "fileName": "/Users/aleksandarbedov/Documents/CocosCreator/tajanstvenesobe2/temp/asset-db/assets/fbx.FBX-glTF-conv/739a8a3c-d694-4fc7-8c6c-6e9065311015/output/.fbm/6172A16/Dva odzaka.fbm/Manmade04Normal.jpg",
          "relativeFileName": "../../../temp/asset-db/assets/fbx.FBX-glTF-conv/739a8a3c-d694-4fc7-8c6c-6e9065311015/output/.fbm/6172A16/Dva odzaka.fbm/Manmade04Normal.jpg"
        }
      },
      "name": "NormalMap_Texture_16",
      "uri": "Manmade04Normal.jpg"
    },
    {
      "extras": {
        "FBX-glTF-conv": {
          "fileName": "/Users/aleksandarbedov/Documents/CocosCreator/tajanstvenesobe2/temp/asset-db/assets/fbx.FBX-glTF-conv/739a8a3c-d694-4fc7-8c6c-6e9065311015/output/.fbm/6172A16/Dva odzaka.fbm/Manmade04Emissive.jpg",
          "relativeFileName": "../../../temp/asset-db/assets/fbx.FBX-glTF-conv/739a8a3c-d694-4fc7-8c6c-6e9065311015/output/.fbm/6172A16/Dva odzaka.fbm/Manmade04Emissive.jpg"
        }
      },
      "name": "EmissiveColor_Texture3",
      "uri": "Manmade04Emissive.jpg"
    }
  ],
  "materials": [
    {
      "name": "Manmade05Diffuse1",
      "normalTexture": {
        "index": 1
      },
      "pbrMetallicRoughness": {
        "baseColorTexture": {
          "index": 0
        }
      }
    },
    {
      "emissiveFactor": [
        1.0,
        1.0,
        1.0
      ],
      "emissiveTexture": {
        "index": 4
      },
      "name": "Manmade04Diffuse3",
      "normalTexture": {
        "index": 3
      },
      "pbrMetallicRoughness": {
        "baseColorTexture": {
          "index": 2
        }
      }
    }
  ],
  "meshes": [
    {
      "name": "Dva_odzaka_Material0",
      "primitives": [
        {
          "attributes": {
            "NORMAL": 1,
            "POSITION": 0,
            "TEXCOORD_0": 2,
            "TEXCOORD_1": 3
          },
          "indices": 4,
          "material": 0
        },
        {
          "attributes": {
            "NORMAL": 6,
            "POSITION": 5,
            "TEXCOORD_0": 7,
            "TEXCOORD_1": 8
          },
          "indices": 9,
          "material": 1
        }
      ]
    }
  ],
  "nodes": [
    {
      "mesh": 0,
      "name": "Dva_odzaka",
      "rotation": [
        0.0,
        -0.19407373666763306,
        0.0,
        0.9809869527816772
      ],
      "translation": [
        -0.035345714539289474,
        0.0,
        0.0988350436091423
      ]
    }
  ],
  "samplers": [
    {}
  ],
  "scenes": [
    {
      "nodes": [
        0
      ]
    }
  ],
  "textures": [
    {
      "name": "DiffuseColor_Texture_20",
      "sampler": 0,
      "source": 0
    },
    {
      "name": "NormalMap_Texture",
      "sampler": 0,
      "source": 1
    },
    {
      "name": "DiffuseColor_Texture_44",
      "sampler": 0,
      "source": 2
    },
    {
      "name": "NormalMap_Texture_16",
      "sampler": 0,
      "source": 3
    },
    {
      "name": "EmissiveColor_Texture3",
      "sampler": 0,
      "source": 4
    }
  ]
}