{
  "accessors": [
    {
      "bufferView": 0,
      "componentType": 5126,
      "count": 2423,
      "max": [
        0.27087292075157166,
        0.013956751674413681,
        0.0004227542958687991
      ],
      "min": [
        -0.10969290882349014,
        -0.0029104319401085377,
        -0.35616883635520935
      ],
      "name": "Prohodni_elementi_Material0/POSITION",
      "type": "VEC3"
    },
    {
      "bufferView": 0,
      "byteOffset": 12,
      "componentType": 5126,
      "count": 2423,
      "name": "Prohodni_elementi_Material0/NORMAL",
      "type": "VEC3"
    },
    {
      "bufferView": 0,
      "byteOffset": 24,
      "componentType": 5126,
      "count": 2423,
      "name": "Prohodni_elementi_Material0/TEXCOORD_0",
      "type": "VEC2"
    },
    {
      "bufferView": 1,
      "componentType": 5125,
      "count": 5067,
      "name": "Prohodni_elementi_Material0/INDICES",
      "type": "SCALAR"
    },
    {
      "bufferView": 2,
      "componentType": 5126,
      "count": 42,
      "max": [
        -0.04737342894077301,
        0.0001385607902193442,
        -0.03871362283825874
      ],
      "min": [
        -0.05136145278811455,
        -0.0022413721308112144,
        -0.04261991009116173
      ],
      "name": "Prohodni_elementi_Material0/POSITION",
      "type": "VEC3"
    },
    {
      "bufferView": 2,
      "byteOffset": 12,
      "componentType": 5126,
      "count": 42,
      "name": "Prohodni_elementi_Material0/NORMAL",
      "type": "VEC3"
    },
    {
      "bufferView": 2,
      "byteOffset": 24,
      "componentType": 5126,
      "count": 42,
      "name": "Prohodni_elementi_Material0/TEXCOORD_0",
      "type": "VEC2"
    },
    {
      "bufferView": 3,
      "componentType": 5125,
      "count": 102,
      "name": "Prohodni_elementi_Material0/INDICES",
      "type": "SCALAR"
    },
    {
      "bufferView": 4,
      "componentType": 5126,
      "count": 1222,
      "max": [
        0.3135404884815216,
        0.011100362986326218,
        -0.09754924476146698
      ],
      "min": [
        0.2997351586818695,
        -0.00416179932653904,
        -0.11489591747522354
      ],
      "name": "Prohodni_elementi_Material0/POSITION",
      "type": "VEC3"
    },
    {
      "bufferView": 4,
      "byteOffset": 12,
      "componentType": 5126,
      "count": 1222,
      "name": "Prohodni_elementi_Material0/NORMAL",
      "type": "VEC3"
    },
    {
      "bufferView": 4,
      "byteOffset": 24,
      "componentType": 5126,
      "count": 1222,
      "name": "Prohodni_elementi_Material0/TEXCOORD_0",
      "type": "VEC2"
    },
    {
      "bufferView": 5,
      "componentType": 5125,
      "count": 3501,
      "name": "Prohodni_elementi_Material0/INDICES",
      "type": "SCALAR"
    }
  ],
  "asset": {
    "copyright": "Copyright (c) 2018-2020 Chukong Technologies Inc.",
    "generator": "FBX-glTF-conv",
    "version": "2.0"
  },
  "bufferViews": [
    {
      "buffer": 0,
      "byteLength": 77536,
      "byteStride": 32,
      "name": "Prohodni_elementi_Material0",
      "target": 34962
    },
    {
      "buffer": 0,
      "byteLength": 20268,
      "byteOffset": 77536
    },
    {
      "buffer": 0,
      "byteLength": 1344,
      "byteOffset": 97804,
      "byteStride": 32,
      "name": "Prohodni_elementi_Material0",
      "target": 34962
    },
    {
      "buffer": 0,
      "byteLength": 408,
      "byteOffset": 99148
    },
    {
      "buffer": 0,
      "byteLength": 39104,
      "byteOffset": 99556,
      "byteStride": 32,
      "name": "Prohodni_elementi_Material0",
      "target": 34962
    },
    {
      "buffer": 0,
      "byteLength": 14004,
      "byteOffset": 138660
    }
  ],
  "buffers": [
    {
      "byteLength": 152664,
      "uri": "out.bin"
    }
  ],
  "extras": {
    "FBX-glTF-conv": {
      "animationFrameRate": 24.0
    }
  },
  "images": [
    {
      "extras": {
        "FBX-glTF-conv": {
          "fileName": "/Users/aleksandarbedov/Documents/CocosCreator/tajanstvenesobe2/temp/asset-db/assets/fbx.FBX-glTF-conv/9696dcc4-a55f-4197-b07b-0c9959b5b093/output/.fbm/E7273714/Rodjendanska samo prohodni elementi 18. april.fbm/SE_Flowers_Diffuse.png",
          "relativeFileName": "../../../temp/asset-db/assets/fbx.FBX-glTF-conv/9696dcc4-a55f-4197-b07b-0c9959b5b093/output/.fbm/E7273714/Rodjendanska samo prohodni elementi 18. april.fbm/SE_Flowers_Diffuse.png"
        }
      },
      "name": "SE_Flowers_Diffuse.png",
      "uri": "SE_Flowers_Diffuse.png"
    },
    {
      "extras": {
        "FBX-glTF-conv": {
          "fileName": "/Users/aleksandarbedov/Documents/CocosCreator/tajanstvenesobe2/temp/asset-db/assets/fbx.FBX-glTF-conv/9696dcc4-a55f-4197-b07b-0c9959b5b093/output/.fbm/E7273714/Rodjendanska samo prohodni elementi 18. april.fbm/SE_Stones_Diffuse.jpg",
          "relativeFileName": "../../../temp/asset-db/assets/fbx.FBX-glTF-conv/9696dcc4-a55f-4197-b07b-0c9959b5b093/output/.fbm/E7273714/Rodjendanska samo prohodni elementi 18. april.fbm/SE_Stones_Diffuse.jpg"
        }
      },
      "name": "SE_Stones_Diffuse.jpg",
      "uri": "SE_Stones_Diffuse.jpg"
    },
    {
      "extras": {
        "FBX-glTF-conv": {
          "fileName": "/Users/aleksandarbedov/Documents/CocosCreator/tajanstvenesobe2/temp/asset-db/assets/fbx.FBX-glTF-conv/9696dcc4-a55f-4197-b07b-0c9959b5b093/output/.fbm/E7273714/Rodjendanska samo prohodni elementi 18. april.fbm/SE_Roses yallow_Diffuse.png",
          "relativeFileName": "../../../temp/asset-db/assets/fbx.FBX-glTF-conv/9696dcc4-a55f-4197-b07b-0c9959b5b093/output/.fbm/E7273714/Rodjendanska samo prohodni elementi 18. april.fbm/SE_Roses yallow_Diffuse.png"
        }
      },
      "name": "SE_Roses yallow_Diffuse.png",
      "uri": "SE_Roses yallow_Diffuse.png"
    }
  ],
  "materials": [
    {
      "name": "SE_Flowers_Mat4",
      "pbrMetallicRoughness": {
        "baseColorTexture": {
          "index": 0
        }
      }
    },
    {
      "name": "SE_Stones_01_Mat4",
      "pbrMetallicRoughness": {
        "baseColorTexture": {
          "index": 1
        }
      }
    },
    {
      "alphaMode": "BLEND",
      "name": "SE_Roses_Mat4",
      "pbrMetallicRoughness": {
        "baseColorFactor": [
          1.0,
          1.0,
          1.0,
          0.0
        ],
        "baseColorTexture": {
          "index": 2
        }
      }
    }
  ],
  "meshes": [
    {
      "name": "Prohodni_elementi_Material0",
      "primitives": [
        {
          "attributes": {
            "NORMAL": 1,
            "POSITION": 0,
            "TEXCOORD_0": 2
          },
          "indices": 3,
          "material": 0
        },
        {
          "attributes": {
            "NORMAL": 5,
            "POSITION": 4,
            "TEXCOORD_0": 6
          },
          "indices": 7,
          "material": 1
        },
        {
          "attributes": {
            "NORMAL": 9,
            "POSITION": 8,
            "TEXCOORD_0": 10
          },
          "indices": 11,
          "material": 2
        }
      ]
    }
  ],
  "nodes": [
    {
      "mesh": 0,
      "name": "Prohodni_elementi"
    }
  ],
  "samplers": [
    {}
  ],
  "scenes": [
    {
      "nodes": [
        0
      ]
    }
  ],
  "textures": [
    {
      "name": "SE_Flowers_Diffuse.png",
      "sampler": 0,
      "source": 0
    },
    {
      "name": "SE_Stones_Diffuse.jpg",
      "sampler": 0,
      "source": 1
    },
    {
      "name": "SE_Roses yallow_Diffuse.png",
      "sampler": 0,
      "source": 2
    }
  ]
}