{
  "accessors": [
    {
      "bufferView": 0,
      "componentType": 5126,
      "count": 202,
      "max": [
        21.16900634765625,
        -0.0069136712700128555,
        21.55622100830078
      ],
      "min": [
        -20.802431106567383,
        -1.5253039598464966,
        -20.41521453857422
      ],
      "name": "Pod/POSITION",
      "type": "VEC3"
    },
    {
      "bufferView": 0,
      "byteOffset": 12,
      "componentType": 5126,
      "count": 202,
      "name": "Pod/NORMAL",
      "type": "VEC3"
    },
    {
      "bufferView": 0,
      "byteOffset": 24,
      "componentType": 5126,
      "count": 202,
      "name": "Pod/TEXCOORD_0",
      "type": "VEC2"
    },
    {
      "bufferView": 1,
      "componentType": 5125,
      "count": 414,
      "name": "Pod/INDICES",
      "type": "SCALAR"
    },
    {
      "bufferView": 2,
      "componentType": 5126,
      "count": 39536,
      "max": [
        14.92557144165039,
        2.5412070751190186,
        12.550426483154297
      ],
      "min": [
        -12.33448600769043,
        -0.05267368257045746,
        -12.098912239074707
      ],
      "name": "Cartoon_shop_Cartoon_Shop_Material0/POSITION",
      "type": "VEC3"
    },
    {
      "bufferView": 2,
      "byteOffset": 12,
      "componentType": 5126,
      "count": 39536,
      "name": "Cartoon_shop_Cartoon_Shop_Material0/NORMAL",
      "type": "VEC3"
    },
    {
      "bufferView": 2,
      "byteOffset": 24,
      "componentType": 5126,
      "count": 39536,
      "name": "Cartoon_shop_Cartoon_Shop_Material0/TEXCOORD_0",
      "type": "VEC2"
    },
    {
      "bufferView": 3,
      "componentType": 5125,
      "count": 101328,
      "name": "Cartoon_shop_Cartoon_Shop_Material0/INDICES",
      "type": "SCALAR"
    },
    {
      "bufferView": 4,
      "componentType": 5126,
      "count": 14662,
      "max": [
        12.050213813781738,
        2.768172264099121,
        10.266925811767578
      ],
      "min": [
        -13.118712425231934,
        -0.08025561273097992,
        -11.694645881652832
      ],
      "name": "Cartoon_shop_Cartoon_Shop_Material0/POSITION",
      "type": "VEC3"
    },
    {
      "bufferView": 4,
      "byteOffset": 12,
      "componentType": 5126,
      "count": 14662,
      "name": "Cartoon_shop_Cartoon_Shop_Material0/NORMAL",
      "type": "VEC3"
    },
    {
      "bufferView": 4,
      "byteOffset": 24,
      "componentType": 5126,
      "count": 14662,
      "name": "Cartoon_shop_Cartoon_Shop_Material0/TEXCOORD_0",
      "type": "VEC2"
    },
    {
      "bufferView": 5,
      "componentType": 5125,
      "count": 47628,
      "name": "Cartoon_shop_Cartoon_Shop_Material0/INDICES",
      "type": "SCALAR"
    },
    {
      "bufferView": 6,
      "componentType": 5126,
      "count": 8000,
      "max": [
        12.547237396240234,
        2.4581925868988037,
        9.982254981994629
      ],
      "min": [
        -12.846288681030273,
        -0.009232980199158192,
        -9.590509414672852
      ],
      "name": "Cartoon_shop_Cartoon_Shop_Material0/POSITION",
      "type": "VEC3"
    },
    {
      "bufferView": 6,
      "byteOffset": 12,
      "componentType": 5126,
      "count": 8000,
      "name": "Cartoon_shop_Cartoon_Shop_Material0/NORMAL",
      "type": "VEC3"
    },
    {
      "bufferView": 6,
      "byteOffset": 24,
      "componentType": 5126,
      "count": 8000,
      "name": "Cartoon_shop_Cartoon_Shop_Material0/TEXCOORD_0",
      "type": "VEC2"
    },
    {
      "bufferView": 7,
      "componentType": 5125,
      "count": 23697,
      "name": "Cartoon_shop_Cartoon_Shop_Material0/INDICES",
      "type": "SCALAR"
    },
    {
      "bufferView": 8,
      "componentType": 5126,
      "count": 623,
      "max": [
        11.521119117736816,
        2.0731887817382813,
        4.481695652008057
      ],
      "min": [
        -12.272751808166504,
        0.896731972694397,
        -5.403921127319336
      ],
      "name": "Cartoon_shop_Cartoon_Shop_Material0/POSITION",
      "type": "VEC3"
    },
    {
      "bufferView": 8,
      "byteOffset": 12,
      "componentType": 5126,
      "count": 623,
      "name": "Cartoon_shop_Cartoon_Shop_Material0/NORMAL",
      "type": "VEC3"
    },
    {
      "bufferView": 8,
      "byteOffset": 24,
      "componentType": 5126,
      "count": 623,
      "name": "Cartoon_shop_Cartoon_Shop_Material0/TEXCOORD_0",
      "type": "VEC2"
    },
    {
      "bufferView": 9,
      "componentType": 5125,
      "count": 2520,
      "name": "Cartoon_shop_Cartoon_Shop_Material0/INDICES",
      "type": "SCALAR"
    }
  ],
  "asset": {
    "copyright": "Copyright (c) 2018-2020 Chukong Technologies Inc.",
    "generator": "FBX-glTF-conv",
    "version": "2.0"
  },
  "bufferViews": [
    {
      "buffer": 0,
      "byteLength": 6464,
      "byteStride": 32,
      "name": "Pod",
      "target": 34962
    },
    {
      "buffer": 0,
      "byteLength": 1656,
      "byteOffset": 6464
    },
    {
      "buffer": 0,
      "byteLength": 1265152,
      "byteOffset": 8120,
      "byteStride": 32,
      "name": "Cartoon_shop_Cartoon_Shop_Material0",
      "target": 34962
    },
    {
      "buffer": 0,
      "byteLength": 405312,
      "byteOffset": 1273272
    },
    {
      "buffer": 0,
      "byteLength": 469184,
      "byteOffset": 1678584,
      "byteStride": 32,
      "name": "Cartoon_shop_Cartoon_Shop_Material0",
      "target": 34962
    },
    {
      "buffer": 0,
      "byteLength": 190512,
      "byteOffset": 2147768
    },
    {
      "buffer": 0,
      "byteLength": 256000,
      "byteOffset": 2338280,
      "byteStride": 32,
      "name": "Cartoon_shop_Cartoon_Shop_Material0",
      "target": 34962
    },
    {
      "buffer": 0,
      "byteLength": 94788,
      "byteOffset": 2594280
    },
    {
      "buffer": 0,
      "byteLength": 19936,
      "byteOffset": 2689068,
      "byteStride": 32,
      "name": "Cartoon_shop_Cartoon_Shop_Material0",
      "target": 34962
    },
    {
      "buffer": 0,
      "byteLength": 10080,
      "byteOffset": 2709004
    }
  ],
  "buffers": [
    {
      "byteLength": 2719084,
      "uri": "out.bin"
    }
  ],
  "extras": {
    "FBX-glTF-conv": {
      "animationFrameRate": 24.0
    }
  },
  "images": [
    {
      "extras": {
        "FBX-glTF-conv": {
          "fileName": "/Users/aleksandarbedov/Documents/CocosCreator/tajanstvenesobe2/temp/asset-db/assets/fbx.FBX-glTF-conv/ba335976-93d2-4871-b777-475aefd5c10d/output/.fbm/5E9A2893/Colorful city.fbm/T_BG_01_Diff.jpg",
          "relativeFileName": "../../../temp/asset-db/assets/fbx.FBX-glTF-conv/ba335976-93d2-4871-b777-475aefd5c10d/output/.fbm/5E9A2893/Colorful city.fbm/T_BG_01_Diff.jpg"
        }
      },
      "name": "T_BG_01_Diff.jpg",
      "uri": "T_BG_01_Diff.jpg"
    },
    {
      "extras": {
        "FBX-glTF-conv": {
          "fileName": "/Users/aleksandarbedov/Documents/CocosCreator/tajanstvenesobe2/temp/asset-db/assets/fbx.FBX-glTF-conv/ba335976-93d2-4871-b777-475aefd5c10d/output/.fbm/5E9A2893/Colorful city.fbm/Atlas-MiniToonStore_01.jpg",
          "relativeFileName": "../../../temp/asset-db/assets/fbx.FBX-glTF-conv/ba335976-93d2-4871-b777-475aefd5c10d/output/.fbm/5E9A2893/Colorful city.fbm/Atlas-MiniToonStore_01.jpg"
        }
      },
      "name": "Atlas-MiniToonStore_01.jpg",
      "uri": "Atlas-MiniToonStore_01.jpg"
    },
    {
      "extras": {
        "FBX-glTF-conv": {
          "fileName": "/Users/aleksandarbedov/Documents/CocosCreator/tajanstvenesobe2/temp/asset-db/assets/fbx.FBX-glTF-conv/ba335976-93d2-4871-b777-475aefd5c10d/output/.fbm/5E9A2893/Colorful city.fbm/Atlas-MiniToonStore_02.jpg",
          "relativeFileName": "../../../temp/asset-db/assets/fbx.FBX-glTF-conv/ba335976-93d2-4871-b777-475aefd5c10d/output/.fbm/5E9A2893/Colorful city.fbm/Atlas-MiniToonStore_02.jpg"
        }
      },
      "name": "Atlas-MiniToonStore_02.jpg",
      "uri": "Atlas-MiniToonStore_02.jpg"
    },
    {
      "extras": {
        "FBX-glTF-conv": {
          "fileName": "/Users/aleksandarbedov/Documents/CocosCreator/tajanstvenesobe2/temp/asset-db/assets/fbx.FBX-glTF-conv/ba335976-93d2-4871-b777-475aefd5c10d/output/.fbm/5E9A2893/Colorful city.fbm/Atlas-MiniToonStore_03.jpg",
          "relativeFileName": "../../../temp/asset-db/assets/fbx.FBX-glTF-conv/ba335976-93d2-4871-b777-475aefd5c10d/output/.fbm/5E9A2893/Colorful city.fbm/Atlas-MiniToonStore_03.jpg"
        }
      },
      "name": "Atlas-MiniToonStore_03.jpg",
      "uri": "Atlas-MiniToonStore_03.jpg"
    },
    {
      "extras": {
        "FBX-glTF-conv": {
          "fileName": "/Users/aleksandarbedov/Documents/CocosCreator/tajanstvenesobe2/temp/asset-db/assets/fbx.FBX-glTF-conv/ba335976-93d2-4871-b777-475aefd5c10d/output/.fbm/5E9A2893/Colorful city.fbm/Atlas-MiniToonStore_03.jpg",
          "relativeFileName": "../../../temp/asset-db/assets/fbx.FBX-glTF-conv/ba335976-93d2-4871-b777-475aefd5c10d/output/.fbm/5E9A2893/Colorful city.fbm/Atlas-MiniToonStore_03.jpg"
        }
      },
      "name": "Atlas-MiniToonStore_03.jpg",
      "uri": "Atlas-MiniToonStore_03.jpg"
    }
  ],
  "materials": [
    {
      "name": "Cartoon_shop:T_BG_01_Diff1",
      "pbrMetallicRoughness": {
        "baseColorTexture": {
          "index": 0
        }
      }
    },
    {
      "name": "Cartoon_shop:Atlas_MiniToonStore_04",
      "pbrMetallicRoughness": {
        "baseColorTexture": {
          "index": 1
        }
      }
    },
    {
      "name": "Cartoon_shop:Atlas_MiniToonStore_05",
      "pbrMetallicRoughness": {
        "baseColorTexture": {
          "index": 2
        }
      }
    },
    {
      "name": "Cartoon_shop:Atlas_MiniToonStore_06",
      "pbrMetallicRoughness": {
        "baseColorTexture": {
          "index": 3
        }
      }
    },
    {
      "name": "Cartoon_shop:Transparent_Part1",
      "pbrMetallicRoughness": {
        "baseColorTexture": {
          "index": 4
        }
      }
    }
  ],
  "meshes": [
    {
      "name": "Pod",
      "primitives": [
        {
          "attributes": {
            "NORMAL": 1,
            "POSITION": 0,
            "TEXCOORD_0": 2
          },
          "indices": 3,
          "material": 0
        }
      ]
    },
    {
      "name": "Cartoon_shop_Cartoon_Shop_Material0",
      "primitives": [
        {
          "attributes": {
            "NORMAL": 5,
            "POSITION": 4,
            "TEXCOORD_0": 6
          },
          "indices": 7,
          "material": 1
        },
        {
          "attributes": {
            "NORMAL": 9,
            "POSITION": 8,
            "TEXCOORD_0": 10
          },
          "indices": 11,
          "material": 2
        },
        {
          "attributes": {
            "NORMAL": 13,
            "POSITION": 12,
            "TEXCOORD_0": 14
          },
          "indices": 15,
          "material": 3
        },
        {
          "attributes": {
            "NORMAL": 17,
            "POSITION": 16,
            "TEXCOORD_0": 18
          },
          "indices": 19,
          "material": 4
        }
      ]
    }
  ],
  "nodes": [
    {
      "mesh": 0,
      "name": "Pod"
    },
    {
      "mesh": 1,
      "name": "Cartoon_shop_Cartoon_Shop"
    }
  ],
  "samplers": [
    {}
  ],
  "scenes": [
    {
      "nodes": [
        0,
        1
      ]
    }
  ],
  "textures": [
    {
      "name": "T_BG_01_Diff.jpg",
      "sampler": 0,
      "source": 0
    },
    {
      "name": "Atlas-MiniToonStore_01.jpg",
      "sampler": 0,
      "source": 1
    },
    {
      "name": "Atlas-MiniToonStore_02.jpg",
      "sampler": 0,
      "source": 2
    },
    {
      "name": "Atlas-MiniToonStore_03.jpg",
      "sampler": 0,
      "source": 3
    },
    {
      "name": "Atlas-MiniToonStore_03.jpg",
      "sampler": 0,
      "source": 4
    }
  ]
}