{
  "accessors": [
    {
      "bufferView": 0,
      "componentType": 5126,
      "count": 1403,
      "max": [
        1.0798132419586182,
        1.4679534435272217,
        1.6671327352523804
      ],
      "min": [
        -1.6985241174697876,
        -1.5115524530410767,
        -1.2985066175460815
      ],
      "name": "Barn/POSITION",
      "type": "VEC3"
    },
    {
      "bufferView": 0,
      "byteOffset": 12,
      "componentType": 5126,
      "count": 1403,
      "name": "Barn/NORMAL",
      "type": "VEC3"
    },
    {
      "bufferView": 0,
      "byteOffset": 24,
      "componentType": 5126,
      "count": 1403,
      "name": "Barn/TEXCOORD_0",
      "type": "VEC2"
    },
    {
      "bufferView": 1,
      "componentType": 5125,
      "count": 2982,
      "name": "Barn/INDICES",
      "type": "SCALAR"
    },
    {
      "bufferView": 2,
      "componentType": 5126,
      "count": 438,
      "max": [
        0.8050333261489868,
        0.30222684144973755,
        0.10191026329994202
      ],
      "min": [
        -0.790492832660675,
        -0.313815712928772,
        -0.10191037505865097
      ],
      "name": "Bell731/POSITION",
      "type": "VEC3"
    },
    {
      "bufferView": 2,
      "byteOffset": 12,
      "componentType": 5126,
      "count": 438,
      "name": "Bell731/NORMAL",
      "type": "VEC3"
    },
    {
      "bufferView": 2,
      "byteOffset": 24,
      "componentType": 5126,
      "count": 438,
      "name": "Bell731/TEXCOORD_0",
      "type": "VEC2"
    },
    {
      "bufferView": 3,
      "componentType": 5125,
      "count": 1626,
      "name": "Bell731/INDICES",
      "type": "SCALAR"
    },
    {
      "bufferView": 4,
      "componentType": 5126,
      "count": 328,
      "max": [
        0.174973264336586,
        0.15576902031898499,
        0.06061454117298126
      ],
      "min": [
        -0.17497119307518005,
        -0.1557689905166626,
        -0.06061455234885216
      ],
      "name": "Bell737/POSITION",
      "type": "VEC3"
    },
    {
      "bufferView": 4,
      "byteOffset": 12,
      "componentType": 5126,
      "count": 328,
      "name": "Bell737/NORMAL",
      "type": "VEC3"
    },
    {
      "bufferView": 4,
      "byteOffset": 24,
      "componentType": 5126,
      "count": 328,
      "name": "Bell737/TEXCOORD_0",
      "type": "VEC2"
    },
    {
      "bufferView": 5,
      "componentType": 5125,
      "count": 1248,
      "name": "Bell737/INDICES",
      "type": "SCALAR"
    }
  ],
  "asset": {
    "copyright": "Copyright (c) 2018-2020 Chukong Technologies Inc.",
    "generator": "FBX-glTF-conv",
    "version": "2.0"
  },
  "bufferViews": [
    {
      "buffer": 0,
      "byteLength": 44896,
      "byteStride": 32,
      "name": "Barn",
      "target": 34962
    },
    {
      "buffer": 0,
      "byteLength": 11928,
      "byteOffset": 44896
    },
    {
      "buffer": 0,
      "byteLength": 14016,
      "byteOffset": 56824,
      "byteStride": 32,
      "name": "Bell731",
      "target": 34962
    },
    {
      "buffer": 0,
      "byteLength": 6504,
      "byteOffset": 70840
    },
    {
      "buffer": 0,
      "byteLength": 10496,
      "byteOffset": 77344,
      "byteStride": 32,
      "name": "Bell737",
      "target": 34962
    },
    {
      "buffer": 0,
      "byteLength": 4992,
      "byteOffset": 87840
    }
  ],
  "buffers": [
    {
      "byteLength": 92832,
      "uri": "out.bin"
    }
  ],
  "extras": {
    "FBX-glTF-conv": {
      "animationFrameRate": 30.0
    }
  },
  "images": [
    {
      "extras": {
        "FBX-glTF-conv": {
          "fileName": "F:\\FarmPack-ChristmasTime\\Update\\AtlasXmas\\ChristmasBarn.png",
          "relativeFileName": "F:\\FarmPack-ChristmasTime\\Update\\AtlasXmas\\ChristmasBarn.png"
        }
      },
      "name": "Map #117978",
      "uri": "data:image/png;base64,"
    },
    {
      "extras": {
        "FBX-glTF-conv": {
          "fileName": "F:\\FarmPack-ChristmasTime\\Update\\AtlasXmas\\Atlas_Xmas_Items_02.png",
          "relativeFileName": "F:\\FarmPack-ChristmasTime\\Update\\AtlasXmas\\Atlas_Xmas_Items_02.png"
        }
      },
      "name": "Map #118034",
      "uri": "data:image/png;base64,"
    },
    {
      "extras": {
        "FBX-glTF-conv": {
          "fileName": "F:\\FarmPack-ChristmasTime\\Update\\AtlasXmas\\Atlas_Xmas_Items_02.png",
          "relativeFileName": "F:\\FarmPack-ChristmasTime\\Update\\AtlasXmas\\Atlas_Xmas_Items_02.png"
        }
      },
      "name": "Map #118023",
      "uri": "data:image/png;base64,"
    }
  ],
  "materials": [
    {
      "name": "Material #261",
      "pbrMetallicRoughness": {
        "baseColorTexture": {
          "index": 0
        },
        "metallicFactor": 0.4000000059604645,
        "roughnessFactor": 0.7071067690849304
      }
    },
    {
      "alphaMode": "BLEND",
      "name": "Material #428",
      "pbrMetallicRoughness": {
        "baseColorFactor": [
          1.0,
          1.0,
          1.0,
          0.0
        ],
        "baseColorTexture": {
          "index": 2
        },
        "metallicFactor": 0.4000000059604645,
        "roughnessFactor": 0.7071067690849304
      }
    }
  ],
  "meshes": [
    {
      "name": "Barn",
      "primitives": [
        {
          "attributes": {
            "NORMAL": 1,
            "POSITION": 0,
            "TEXCOORD_0": 2
          },
          "indices": 3,
          "material": 0
        }
      ]
    },
    {
      "name": "Bell731",
      "primitives": [
        {
          "attributes": {
            "NORMAL": 5,
            "POSITION": 4,
            "TEXCOORD_0": 6
          },
          "indices": 7,
          "material": 1
        }
      ]
    },
    {
      "name": "Bell737",
      "primitives": [
        {
          "attributes": {
            "NORMAL": 9,
            "POSITION": 8,
            "TEXCOORD_0": 10
          },
          "indices": 11,
          "material": 1
        }
      ]
    }
  ],
  "nodes": [
    {
      "children": [
        1,
        2
      ],
      "mesh": 0,
      "name": "Barn",
      "translation": [
        11.866223335266113,
        1.5225812196731567,
        -0.507794201374054
      ]
    },
    {
      "mesh": 1,
      "name": "Bell731",
      "scale": [
        1.2515499591827393,
        1.2515499591827393,
        1.2515499591827393
      ],
      "translation": [
        0.01137695275247097,
        -0.028841553255915642,
        1.2716689109802246
      ]
    },
    {
      "mesh": 2,
      "name": "Bell737",
      "scale": [
        1.2515499591827393,
        1.2515499591827393,
        1.2515499591827393
      ],
      "translation": [
        0.060450438410043716,
        -1.112758755683899,
        1.7145256996154785
      ]
    }
  ],
  "samplers": [
    {}
  ],
  "scenes": [
    {
      "nodes": [
        0
      ]
    }
  ],
  "textures": [
    {
      "name": "Map #117978",
      "sampler": 0,
      "source": 0
    },
    {
      "name": "Map #118034",
      "sampler": 0,
      "source": 1
    },
    {
      "name": "Map #118023",
      "sampler": 0,
      "source": 2
    }
  ]
}