{
  "accessors": [
    {
      "bufferView": 0,
      "componentType": 5126,
      "count": 352,
      "max": [
        0.024462901055812836,
        0.02509944885969162,
        -0.06729377806186676
      ],
      "min": [
        -0.02563164010643959,
        0.021386854350566864,
        -0.07010077685117722
      ],
      "name": "Kanister_ram_Material0/POSITION",
      "type": "VEC3"
    },
    {
      "bufferView": 0,
      "byteOffset": 12,
      "componentType": 5126,
      "count": 352,
      "name": "Kanister_ram_Material0/NORMAL",
      "type": "VEC3"
    },
    {
      "bufferView": 0,
      "byteOffset": 24,
      "componentType": 5126,
      "count": 352,
      "name": "Kanister_ram_Material0/TEXCOORD_0",
      "type": "VEC2"
    },
    {
      "bufferView": 1,
      "componentType": 5125,
      "count": 1416,
      "name": "Kanister_ram_Material0/INDICES",
      "type": "SCALAR"
    },
    {
      "bufferView": 2,
      "componentType": 5126,
      "count": 152,
      "max": [
        0.02618597075343132,
        0.026811107993125916,
        -0.06812161952257156
      ],
      "min": [
        -0.027641670778393745,
        0.019929489120841026,
        -0.06865653395652771
      ],
      "name": "Kanister_ram_Material0/POSITION",
      "type": "VEC3"
    },
    {
      "bufferView": 2,
      "byteOffset": 12,
      "componentType": 5126,
      "count": 152,
      "name": "Kanister_ram_Material0/NORMAL",
      "type": "VEC3"
    },
    {
      "bufferView": 2,
      "byteOffset": 24,
      "componentType": 5126,
      "count": 152,
      "name": "Kanister_ram_Material0/TEXCOORD_0",
      "type": "VEC2"
    },
    {
      "bufferView": 3,
      "componentType": 5125,
      "count": 288,
      "name": "Kanister_ram_Material0/INDICES",
      "type": "SCALAR"
    },
    {
      "bufferView": 4,
      "componentType": 5126,
      "count": 96,
      "max": [
        0.026997899636626244,
        0.027435321360826492,
        -0.06869974732398987
      ],
      "min": [
        -0.028446707874536514,
        0.01924782805144787,
        -0.0703175961971283
      ],
      "name": "Kanister_ram_Material0/POSITION",
      "type": "VEC3"
    },
    {
      "bufferView": 4,
      "byteOffset": 12,
      "componentType": 5126,
      "count": 96,
      "name": "Kanister_ram_Material0/NORMAL",
      "type": "VEC3"
    },
    {
      "bufferView": 4,
      "byteOffset": 24,
      "componentType": 5126,
      "count": 96,
      "name": "Kanister_ram_Material0/TEXCOORD_0",
      "type": "VEC2"
    },
    {
      "bufferView": 5,
      "componentType": 5125,
      "count": 324,
      "name": "Kanister_ram_Material0/INDICES",
      "type": "SCALAR"
    },
    {
      "bufferView": 6,
      "componentType": 5126,
      "count": 352,
      "max": [
        -0.05599062889814377,
        0.04894876107573509,
        0.15147961676120758
      ],
      "min": [
        -0.11822979152202606,
        0.02894875966012478,
        0.13147962093353271
      ],
      "name": "Kanister_energija1/POSITION",
      "type": "VEC3"
    },
    {
      "bufferView": 6,
      "byteOffset": 12,
      "componentType": 5126,
      "count": 352,
      "name": "Kanister_energija1/NORMAL",
      "type": "VEC3"
    },
    {
      "bufferView": 6,
      "byteOffset": 24,
      "componentType": 5126,
      "count": 352,
      "name": "Kanister_energija1/TEXCOORD_0",
      "type": "VEC2"
    },
    {
      "bufferView": 7,
      "componentType": 5125,
      "count": 1416,
      "name": "Kanister_energija1/INDICES",
      "type": "SCALAR"
    },
    {
      "bufferView": 8,
      "componentType": 5126,
      "count": 352,
      "max": [
        -0.012402496300637722,
        0.04894876107573509,
        0.15147961676120758
      ],
      "min": [
        -0.11822979152202606,
        0.02894875966012478,
        0.13147962093353271
      ],
      "name": "Kanister_energija2/POSITION",
      "type": "VEC3"
    },
    {
      "bufferView": 8,
      "byteOffset": 12,
      "componentType": 5126,
      "count": 352,
      "name": "Kanister_energija2/NORMAL",
      "type": "VEC3"
    },
    {
      "bufferView": 8,
      "byteOffset": 24,
      "componentType": 5126,
      "count": 352,
      "name": "Kanister_energija2/TEXCOORD_0",
      "type": "VEC2"
    },
    {
      "bufferView": 9,
      "componentType": 5125,
      "count": 1416,
      "name": "Kanister_energija2/INDICES",
      "type": "SCALAR"
    },
    {
      "bufferView": 10,
      "componentType": 5126,
      "count": 352,
      "max": [
        0.04351000860333443,
        0.04894876107573509,
        0.15147961676120758
      ],
      "min": [
        -0.11822979152202606,
        0.02894875966012478,
        0.13147962093353271
      ],
      "name": "Kanister_energija3/POSITION",
      "type": "VEC3"
    },
    {
      "bufferView": 10,
      "byteOffset": 12,
      "componentType": 5126,
      "count": 352,
      "name": "Kanister_energija3/NORMAL",
      "type": "VEC3"
    },
    {
      "bufferView": 10,
      "byteOffset": 24,
      "componentType": 5126,
      "count": 352,
      "name": "Kanister_energija3/TEXCOORD_0",
      "type": "VEC2"
    },
    {
      "bufferView": 11,
      "componentType": 5125,
      "count": 1416,
      "name": "Kanister_energija3/INDICES",
      "type": "SCALAR"
    },
    {
      "bufferView": 12,
      "componentType": 5126,
      "count": 352,
      "max": [
        0.09984894096851349,
        0.04894876107573509,
        0.15147961676120758
      ],
      "min": [
        -0.11822979152202606,
        0.02894875966012478,
        0.13147962093353271
      ],
      "name": "Kanister_energija4/POSITION",
      "type": "VEC3"
    },
    {
      "bufferView": 12,
      "byteOffset": 12,
      "componentType": 5126,
      "count": 352,
      "name": "Kanister_energija4/NORMAL",
      "type": "VEC3"
    },
    {
      "bufferView": 12,
      "byteOffset": 24,
      "componentType": 5126,
      "count": 352,
      "name": "Kanister_energija4/TEXCOORD_0",
      "type": "VEC2"
    },
    {
      "bufferView": 13,
      "componentType": 5125,
      "count": 1416,
      "name": "Kanister_energija4/INDICES",
      "type": "SCALAR"
    },
    {
      "bufferView": 14,
      "componentType": 5126,
      "count": 352,
      "max": [
        0.15216873586177826,
        0.04894876107573509,
        0.15147961676120758
      ],
      "min": [
        -0.11822979152202606,
        0.02894875966012478,
        0.13147962093353271
      ],
      "name": "Kanister_energija5/POSITION",
      "type": "VEC3"
    },
    {
      "bufferView": 14,
      "byteOffset": 12,
      "componentType": 5126,
      "count": 352,
      "name": "Kanister_energija5/NORMAL",
      "type": "VEC3"
    },
    {
      "bufferView": 14,
      "byteOffset": 24,
      "componentType": 5126,
      "count": 352,
      "name": "Kanister_energija5/TEXCOORD_0",
      "type": "VEC2"
    },
    {
      "bufferView": 15,
      "componentType": 5125,
      "count": 1416,
      "name": "Kanister_energija5/INDICES",
      "type": "SCALAR"
    }
  ],
  "asset": {
    "copyright": "Copyright (c) 2018-2020 Chukong Technologies Inc.",
    "generator": "FBX-glTF-conv",
    "version": "2.0"
  },
  "bufferViews": [
    {
      "buffer": 0,
      "byteLength": 11264,
      "byteStride": 32,
      "name": "Kanister_ram_Material0",
      "target": 34962
    },
    {
      "buffer": 0,
      "byteLength": 5664,
      "byteOffset": 11264
    },
    {
      "buffer": 0,
      "byteLength": 4864,
      "byteOffset": 16928,
      "byteStride": 32,
      "name": "Kanister_ram_Material0",
      "target": 34962
    },
    {
      "buffer": 0,
      "byteLength": 1152,
      "byteOffset": 21792
    },
    {
      "buffer": 0,
      "byteLength": 3072,
      "byteOffset": 22944,
      "byteStride": 32,
      "name": "Kanister_ram_Material0",
      "target": 34962
    },
    {
      "buffer": 0,
      "byteLength": 1296,
      "byteOffset": 26016
    },
    {
      "buffer": 0,
      "byteLength": 11264,
      "byteOffset": 27312,
      "byteStride": 32,
      "name": "Kanister_energija1",
      "target": 34962
    },
    {
      "buffer": 0,
      "byteLength": 5664,
      "byteOffset": 38576
    },
    {
      "buffer": 0,
      "byteLength": 11264,
      "byteOffset": 44240,
      "byteStride": 32,
      "name": "Kanister_energija2",
      "target": 34962
    },
    {
      "buffer": 0,
      "byteLength": 5664,
      "byteOffset": 55504
    },
    {
      "buffer": 0,
      "byteLength": 11264,
      "byteOffset": 61168,
      "byteStride": 32,
      "name": "Kanister_energija3",
      "target": 34962
    },
    {
      "buffer": 0,
      "byteLength": 5664,
      "byteOffset": 72432
    },
    {
      "buffer": 0,
      "byteLength": 11264,
      "byteOffset": 78096,
      "byteStride": 32,
      "name": "Kanister_energija4",
      "target": 34962
    },
    {
      "buffer": 0,
      "byteLength": 5664,
      "byteOffset": 89360
    },
    {
      "buffer": 0,
      "byteLength": 11264,
      "byteOffset": 95024,
      "byteStride": 32,
      "name": "Kanister_energija5",
      "target": 34962
    },
    {
      "buffer": 0,
      "byteLength": 5664,
      "byteOffset": 106288
    }
  ],
  "buffers": [
    {
      "byteLength": 111952,
      "uri": "out.bin"
    }
  ],
  "extras": {
    "FBX-glTF-conv": {
      "animationFrameRate": 24.0
    }
  },
  "materials": [
    {
      "alphaMode": "BLEND",
      "name": "staklo",
      "pbrMetallicRoughness": {
        "baseColorFactor": [
          0.25648853182792664,
          0.25648853182792664,
          0.25648853182792664,
          0.7137404680252075
        ],
        "metallicFactor": 0.4000000059604645,
        "roughnessFactor": 0.30151134729385376
      }
    },
    {
      "name": "metal_za_sraf",
      "pbrMetallicRoughness": {
        "baseColorFactor": [
          0.5160305500030518,
          0.5160305500030518,
          0.5160305500030518,
          1.0
        ],
        "metallicFactor": 0.4000000059604645,
        "roughnessFactor": 0.6068595051765442
      }
    },
    {
      "name": "metalna_kutija_za_tastere",
      "pbrMetallicRoughness": {
        "baseColorFactor": [
          0.800000011920929,
          0.46829333901405334,
          0.0,
          1.0
        ],
        "metallicFactor": 0.4000000059604645,
        "roughnessFactor": 0.23158922791481018
      }
    },
    {
      "name": "phong7",
      "pbrMetallicRoughness": {
        "baseColorFactor": [
          0.058520007878541946,
          0.5320000052452087,
          0.058520007878541946,
          1.0
        ],
        "metallicFactor": 0.4000000059604645,
        "roughnessFactor": 0.30151134729385376
      }
    }
  ],
  "meshes": [
    {
      "name": "Kanister_ram_Material0",
      "primitives": [
        {
          "attributes": {
            "NORMAL": 1,
            "POSITION": 0,
            "TEXCOORD_0": 2
          },
          "indices": 3,
          "material": 0
        },
        {
          "attributes": {
            "NORMAL": 5,
            "POSITION": 4,
            "TEXCOORD_0": 6
          },
          "indices": 7,
          "material": 1
        },
        {
          "attributes": {
            "NORMAL": 9,
            "POSITION": 8,
            "TEXCOORD_0": 10
          },
          "indices": 11,
          "material": 2
        }
      ]
    },
    {
      "name": "Kanister_energija1",
      "primitives": [
        {
          "attributes": {
            "NORMAL": 13,
            "POSITION": 12,
            "TEXCOORD_0": 14
          },
          "indices": 15,
          "material": 3
        }
      ]
    },
    {
      "name": "Kanister_energija2",
      "primitives": [
        {
          "attributes": {
            "NORMAL": 17,
            "POSITION": 16,
            "TEXCOORD_0": 18
          },
          "indices": 19,
          "material": 3
        }
      ]
    },
    {
      "name": "Kanister_energija3",
      "primitives": [
        {
          "attributes": {
            "NORMAL": 21,
            "POSITION": 20,
            "TEXCOORD_0": 22
          },
          "indices": 23,
          "material": 3
        }
      ]
    },
    {
      "name": "Kanister_energija4",
      "primitives": [
        {
          "attributes": {
            "NORMAL": 25,
            "POSITION": 24,
            "TEXCOORD_0": 26
          },
          "indices": 27,
          "material": 3
        }
      ]
    },
    {
      "name": "Kanister_energija5",
      "primitives": [
        {
          "attributes": {
            "NORMAL": 29,
            "POSITION": 28,
            "TEXCOORD_0": 30
          },
          "indices": 31,
          "material": 3
        }
      ]
    }
  ],
  "nodes": [
    {
      "children": [
        1,
        2,
        3,
        4,
        5,
        6
      ],
      "name": "kanister_energije",
      "scale": [
        0.8075805902481079,
        0.8075805902481079,
        0.8075805902481079
      ],
      "translation": [
        -0.00034735974622890353,
        0.0022140732035040855,
        -0.013286648318171501
      ]
    },
    {
      "mesh": 0,
      "name": "Kanister_ram",
      "scale": [
        1.2382664680480957,
        1.2382664680480957,
        1.2382664680480957
      ],
      "translation": [
        0.00043012393871322274,
        -0.0027416127268224955,
        0.01645241118967533
      ]
    },
    {
      "mesh": 1,
      "name": "Kanister_energija1",
      "scale": [
        0.22831475734710693,
        0.22831475734710693,
        0.11317209899425507
      ],
      "translation": [
        -0.0041071525774896145,
        0.01714702881872654,
        -0.08462467044591904
      ]
    },
    {
      "mesh": 2,
      "name": "Kanister_energija2",
      "scale": [
        0.22831475734710693,
        0.22831475734710693,
        0.11317209899425507
      ],
      "translation": [
        -0.0041071525774896145,
        0.01714702881872654,
        -0.08462467044591904
      ]
    },
    {
      "mesh": 3,
      "name": "Kanister_energija3",
      "scale": [
        0.22831475734710693,
        0.22831475734710693,
        0.11317209899425507
      ],
      "translation": [
        -0.0041071525774896145,
        0.01714702881872654,
        -0.08462467044591904
      ]
    },
    {
      "mesh": 4,
      "name": "Kanister_energija4",
      "scale": [
        0.22831475734710693,
        0.22831475734710693,
        0.11317209899425507
      ],
      "translation": [
        -0.0041071525774896145,
        0.01714702881872654,
        -0.08462467044591904
      ]
    },
    {
      "mesh": 5,
      "name": "Kanister_energija5",
      "scale": [
        0.22831475734710693,
        0.22831475734710693,
        0.11317209899425507
      ],
      "translation": [
        -0.0041071525774896145,
        0.01714702881872654,
        -0.08462467044591904
      ]
    }
  ],
  "scenes": [
    {
      "nodes": [
        0
      ]
    }
  ]
}