{
  "accessors": [
    {
      "bufferView": 0,
      "componentType": 5126,
      "count": 13056,
      "max": [
        0.08277381956577301,
        0.2156716138124466,
        0.09204879403114319
      ],
      "min": [
        -0.08274643123149872,
        -0.0032102966215461493,
        -0.07527187466621399
      ],
      "name": "Vetrenjaca_Material0/POSITION",
      "type": "VEC3"
    },
    {
      "bufferView": 0,
      "byteOffset": 12,
      "componentType": 5126,
      "count": 13056,
      "name": "Vetrenjaca_Material0/NORMAL",
      "type": "VEC3"
    },
    {
      "bufferView": 0,
      "byteOffset": 24,
      "componentType": 5126,
      "count": 13056,
      "name": "Vetrenjaca_Material0/TEXCOORD_0",
      "type": "VEC2"
    },
    {
      "bufferView": 0,
      "byteOffset": 32,
      "componentType": 5126,
      "count": 13056,
      "name": "Vetrenjaca_Material0/TEXCOORD_1",
      "type": "VEC2"
    },
    {
      "bufferView": 1,
      "componentType": 5125,
      "count": 20931,
      "name": "Vetrenjaca_Material0/INDICES",
      "type": "SCALAR"
    },
    {
      "bufferView": 2,
      "componentType": 5126,
      "count": 2139,
      "max": [
        0.07774444669485092,
        0.1452164500951767,
        0.06988365203142166
      ],
      "min": [
        -0.08293258398771286,
        -0.0006019020220264792,
        -0.07300472259521484
      ],
      "name": "Vetrenjaca_Material0/POSITION",
      "type": "VEC3"
    },
    {
      "bufferView": 2,
      "byteOffset": 12,
      "componentType": 5126,
      "count": 2139,
      "name": "Vetrenjaca_Material0/NORMAL",
      "type": "VEC3"
    },
    {
      "bufferView": 2,
      "byteOffset": 24,
      "componentType": 5126,
      "count": 2139,
      "name": "Vetrenjaca_Material0/TEXCOORD_0",
      "type": "VEC2"
    },
    {
      "bufferView": 2,
      "byteOffset": 32,
      "componentType": 5126,
      "count": 2139,
      "name": "Vetrenjaca_Material0/TEXCOORD_1",
      "type": "VEC2"
    },
    {
      "bufferView": 3,
      "componentType": 5125,
      "count": 2523,
      "name": "Vetrenjaca_Material0/INDICES",
      "type": "SCALAR"
    },
    {
      "bufferView": 4,
      "componentType": 5126,
      "count": 3819,
      "max": [
        0.063268281519413,
        0.16146263480186462,
        0.07374610751867294
      ],
      "min": [
        -0.07328101992607117,
        -0.0013674736255779862,
        -0.03088352270424366
      ],
      "name": "Vetrenjaca_Material0/POSITION",
      "type": "VEC3"
    },
    {
      "bufferView": 4,
      "byteOffset": 12,
      "componentType": 5126,
      "count": 3819,
      "name": "Vetrenjaca_Material0/NORMAL",
      "type": "VEC3"
    },
    {
      "bufferView": 4,
      "byteOffset": 24,
      "componentType": 5126,
      "count": 3819,
      "name": "Vetrenjaca_Material0/TEXCOORD_0",
      "type": "VEC2"
    },
    {
      "bufferView": 4,
      "byteOffset": 32,
      "componentType": 5126,
      "count": 3819,
      "name": "Vetrenjaca_Material0/TEXCOORD_1",
      "type": "VEC2"
    },
    {
      "bufferView": 5,
      "componentType": 5125,
      "count": 7629,
      "name": "Vetrenjaca_Material0/INDICES",
      "type": "SCALAR"
    },
    {
      "bufferView": 6,
      "componentType": 5126,
      "count": 3631,
      "max": [
        0.05711944401264191,
        0.0993148609995842,
        0.05271999537944794
      ],
      "min": [
        -0.05714759975671768,
        -0.0023409652058035135,
        -0.05534560978412628
      ],
      "name": "Vetrenjaca_Material0/POSITION",
      "type": "VEC3"
    },
    {
      "bufferView": 6,
      "byteOffset": 12,
      "componentType": 5126,
      "count": 3631,
      "name": "Vetrenjaca_Material0/NORMAL",
      "type": "VEC3"
    },
    {
      "bufferView": 6,
      "byteOffset": 24,
      "componentType": 5126,
      "count": 3631,
      "name": "Vetrenjaca_Material0/TEXCOORD_0",
      "type": "VEC2"
    },
    {
      "bufferView": 6,
      "byteOffset": 32,
      "componentType": 5126,
      "count": 3631,
      "name": "Vetrenjaca_Material0/TEXCOORD_1",
      "type": "VEC2"
    },
    {
      "bufferView": 7,
      "componentType": 5125,
      "count": 5577,
      "name": "Vetrenjaca_Material0/INDICES",
      "type": "SCALAR"
    },
    {
      "bufferView": 8,
      "componentType": 5126,
      "count": 938,
      "max": [
        0.03987174853682518,
        0.15476585924625397,
        0.07952991127967834
      ],
      "min": [
        -0.05425308272242546,
        -0.002112598391249776,
        -0.07595589011907578
      ],
      "name": "Vetrenjaca_Material0/POSITION",
      "type": "VEC3"
    },
    {
      "bufferView": 8,
      "byteOffset": 12,
      "componentType": 5126,
      "count": 938,
      "name": "Vetrenjaca_Material0/NORMAL",
      "type": "VEC3"
    },
    {
      "bufferView": 8,
      "byteOffset": 24,
      "componentType": 5126,
      "count": 938,
      "name": "Vetrenjaca_Material0/TEXCOORD_0",
      "type": "VEC2"
    },
    {
      "bufferView": 8,
      "byteOffset": 32,
      "componentType": 5126,
      "count": 938,
      "name": "Vetrenjaca_Material0/TEXCOORD_1",
      "type": "VEC2"
    },
    {
      "bufferView": 9,
      "componentType": 5125,
      "count": 1770,
      "name": "Vetrenjaca_Material0/INDICES",
      "type": "SCALAR"
    }
  ],
  "asset": {
    "copyright": "Copyright (c) 2018-2020 Chukong Technologies Inc.",
    "generator": "FBX-glTF-conv",
    "version": "2.0"
  },
  "bufferViews": [
    {
      "buffer": 0,
      "byteLength": 522240,
      "byteStride": 40,
      "name": "Vetrenjaca_Material0",
      "target": 34962
    },
    {
      "buffer": 0,
      "byteLength": 83724,
      "byteOffset": 522240
    },
    {
      "buffer": 0,
      "byteLength": 85560,
      "byteOffset": 605964,
      "byteStride": 40,
      "name": "Vetrenjaca_Material0",
      "target": 34962
    },
    {
      "buffer": 0,
      "byteLength": 10092,
      "byteOffset": 691524
    },
    {
      "buffer": 0,
      "byteLength": 152760,
      "byteOffset": 701616,
      "byteStride": 40,
      "name": "Vetrenjaca_Material0",
      "target": 34962
    },
    {
      "buffer": 0,
      "byteLength": 30516,
      "byteOffset": 854376
    },
    {
      "buffer": 0,
      "byteLength": 145240,
      "byteOffset": 884892,
      "byteStride": 40,
      "name": "Vetrenjaca_Material0",
      "target": 34962
    },
    {
      "buffer": 0,
      "byteLength": 22308,
      "byteOffset": 1030132
    },
    {
      "buffer": 0,
      "byteLength": 37520,
      "byteOffset": 1052440,
      "byteStride": 40,
      "name": "Vetrenjaca_Material0",
      "target": 34962
    },
    {
      "buffer": 0,
      "byteLength": 7080,
      "byteOffset": 1089960
    }
  ],
  "buffers": [
    {
      "byteLength": 1097040,
      "uri": "out.bin"
    }
  ],
  "extras": {
    "FBX-glTF-conv": {
      "animationFrameRate": 24.0
    }
  },
  "images": [
    {
      "extras": {
        "FBX-glTF-conv": {
          "fileName": "/Users/aleksandarbedov/Documents/CocosCreator/tajanstvenesobe2/temp/asset-db/assets/fbx.FBX-glTF-conv/0bc26c5a-e8f5-459a-aa99-8a6524e02b41/output/.fbm/243029EF/Fantazija - Vetrenjaca.fbm/1/Manmade01Diffuse.jpg",
          "relativeFileName": "../../../temp/asset-db/assets/fbx.FBX-glTF-conv/0bc26c5a-e8f5-459a-aa99-8a6524e02b41/output/.fbm/243029EF/Fantazija - Vetrenjaca.fbm/1/Manmade01Diffuse.jpg"
        }
      },
      "name": "Manmade01Diffuse.jpg",
      "uri": "Manmade01Diffuse.jpg"
    },
    {
      "extras": {
        "FBX-glTF-conv": {
          "fileName": "/Users/aleksandarbedov/Documents/CocosCreator/tajanstvenesobe2/temp/asset-db/assets/fbx.FBX-glTF-conv/0bc26c5a-e8f5-459a-aa99-8a6524e02b41/output/.fbm/243029EF/Fantazija - Vetrenjaca.fbm/2/Manmade04Diffuse.jpg",
          "relativeFileName": "../../../temp/asset-db/assets/fbx.FBX-glTF-conv/0bc26c5a-e8f5-459a-aa99-8a6524e02b41/output/.fbm/243029EF/Fantazija - Vetrenjaca.fbm/2/Manmade04Diffuse.jpg"
        }
      },
      "name": "Manmade04Diffuse.jpg",
      "uri": "Manmade04Diffuse.jpg"
    },
    {
      "extras": {
        "FBX-glTF-conv": {
          "fileName": "/Users/aleksandarbedov/Documents/CocosCreator/tajanstvenesobe2/temp/asset-db/assets/fbx.FBX-glTF-conv/0bc26c5a-e8f5-459a-aa99-8a6524e02b41/output/.fbm/243029EF/Fantazija - Vetrenjaca.fbm/2/Manmade01Diffuse.jpg",
          "relativeFileName": "../../../temp/asset-db/assets/fbx.FBX-glTF-conv/0bc26c5a-e8f5-459a-aa99-8a6524e02b41/output/.fbm/243029EF/Fantazija - Vetrenjaca.fbm/2/Manmade01Diffuse.jpg"
        }
      },
      "name": "Manmade01Diffuse.jpg",
      "uri": "Manmade01Diffuse.jpg"
    },
    {
      "extras": {
        "FBX-glTF-conv": {
          "fileName": "/Users/aleksandarbedov/Documents/CocosCreator/tajanstvenesobe2/temp/asset-db/assets/fbx.FBX-glTF-conv/0bc26c5a-e8f5-459a-aa99-8a6524e02b41/output/.fbm/243029EF/Fantazija - Vetrenjaca.fbm/Rocks01Diffuse.jpg",
          "relativeFileName": "../../../temp/asset-db/assets/fbx.FBX-glTF-conv/0bc26c5a-e8f5-459a-aa99-8a6524e02b41/output/.fbm/243029EF/Fantazija - Vetrenjaca.fbm/Rocks01Diffuse.jpg"
        }
      },
      "name": "Rocks01Diffuse.jpg",
      "uri": "Rocks01Diffuse.jpg"
    },
    {
      "extras": {
        "FBX-glTF-conv": {
          "fileName": "/Users/aleksandarbedov/Documents/CocosCreator/tajanstvenesobe2/temp/asset-db/assets/fbx.FBX-glTF-conv/0bc26c5a-e8f5-459a-aa99-8a6524e02b41/output/.fbm/243029EF/Fantazija - Vetrenjaca.fbm/1/Manmade03Diffuse.jpg",
          "relativeFileName": "../../../temp/asset-db/assets/fbx.FBX-glTF-conv/0bc26c5a-e8f5-459a-aa99-8a6524e02b41/output/.fbm/243029EF/Fantazija - Vetrenjaca.fbm/1/Manmade03Diffuse.jpg"
        }
      },
      "name": "Manmade03Diffuse.jpg",
      "uri": "Manmade03Diffuse.jpg"
    }
  ],
  "materials": [
    {
      "name": "Manmade02Mat",
      "pbrMetallicRoughness": {
        "baseColorTexture": {
          "extensions": {
            "KHR_texture_transform": {
              "offset": [
                0.0,
                -1.0
              ],
              "scale": [
                1.0,
                1.0
              ]
            }
          },
          "index": 0
        }
      }
    },
    {
      "name": "Manmade04Mat",
      "pbrMetallicRoughness": {
        "baseColorTexture": {
          "extensions": {
            "KHR_texture_transform": {
              "offset": [
                0.0,
                -1.0
              ],
              "scale": [
                1.0,
                1.0
              ]
            }
          },
          "index": 1
        }
      }
    },
    {
      "name": "Manmade01Mat",
      "pbrMetallicRoughness": {
        "baseColorTexture": {
          "extensions": {
            "KHR_texture_transform": {
              "offset": [
                0.0,
                -1.0
              ],
              "scale": [
                1.0,
                1.0
              ]
            }
          },
          "index": 2
        }
      }
    },
    {
      "name": "Rocks01Mat",
      "pbrMetallicRoughness": {
        "baseColorTexture": {
          "extensions": {
            "KHR_texture_transform": {
              "offset": [
                0.0,
                -1.0
              ],
              "scale": [
                1.0,
                1.0
              ]
            }
          },
          "index": 3
        }
      }
    },
    {
      "name": "Manmade03Mat",
      "pbrMetallicRoughness": {
        "baseColorTexture": {
          "extensions": {
            "KHR_texture_transform": {
              "offset": [
                0.0,
                -1.0
              ],
              "scale": [
                1.0,
                1.0
              ]
            }
          },
          "index": 4
        }
      }
    }
  ],
  "meshes": [
    {
      "name": "Vetrenjaca_Material0",
      "primitives": [
        {
          "attributes": {
            "NORMAL": 1,
            "POSITION": 0,
            "TEXCOORD_0": 2,
            "TEXCOORD_1": 3
          },
          "indices": 4,
          "material": 0
        },
        {
          "attributes": {
            "NORMAL": 6,
            "POSITION": 5,
            "TEXCOORD_0": 7,
            "TEXCOORD_1": 8
          },
          "indices": 9,
          "material": 1
        },
        {
          "attributes": {
            "NORMAL": 11,
            "POSITION": 10,
            "TEXCOORD_0": 12,
            "TEXCOORD_1": 13
          },
          "indices": 14,
          "material": 2
        },
        {
          "attributes": {
            "NORMAL": 16,
            "POSITION": 15,
            "TEXCOORD_0": 17,
            "TEXCOORD_1": 18
          },
          "indices": 19,
          "material": 3
        },
        {
          "attributes": {
            "NORMAL": 21,
            "POSITION": 20,
            "TEXCOORD_0": 22,
            "TEXCOORD_1": 23
          },
          "indices": 24,
          "material": 4
        }
      ]
    }
  ],
  "nodes": [
    {
      "mesh": 0,
      "name": "Vetrenjaca",
      "rotation": [
        -4.448351020869268e-09,
        -0.39698439836502075,
        -1.3404116039339442e-08,
        0.9178253412246704
      ],
      "scale": [
        0.3640477955341339,
        0.3640477955341339,
        0.3640477955341339
      ],
      "translation": [
        0.047479283064603806,
        0.06501056253910065,
        0.32870709896087646
      ]
    }
  ],
  "samplers": [
    {}
  ],
  "scenes": [
    {
      "nodes": [
        0
      ]
    }
  ],
  "textures": [
    {
      "name": "Manmade01Diffuse.jpg",
      "sampler": 0,
      "source": 0
    },
    {
      "name": "Manmade04Diffuse.jpg",
      "sampler": 0,
      "source": 1
    },
    {
      "name": "Manmade01Diffuse.jpg",
      "sampler": 0,
      "source": 2
    },
    {
      "name": "Rocks01Diffuse.jpg",
      "sampler": 0,
      "source": 3
    },
    {
      "name": "Manmade03Diffuse.jpg",
      "sampler": 0,
      "source": 4
    }
  ]
}