{
  "accessors": [
    {
      "bufferView": 0,
      "componentType": 5126,
      "count": 675,
      "max": [
        0.00475586112588644,
        0.013050537556409836,
        0.004755861591547728
      ],
      "min": [
        -0.004755862057209015,
        -1.0656606153069959e-10,
        -0.004755861591547728
      ],
      "name": "Stalak_i_fenjer_Material0/POSITION",
      "type": "VEC3"
    },
    {
      "bufferView": 0,
      "byteOffset": 12,
      "componentType": 5126,
      "count": 675,
      "name": "Stalak_i_fenjer_Material0/NORMAL",
      "type": "VEC3"
    },
    {
      "bufferView": 0,
      "byteOffset": 24,
      "componentType": 5126,
      "count": 675,
      "name": "Stalak_i_fenjer_Material0/TEXCOORD_0",
      "type": "VEC2"
    },
    {
      "bufferView": 0,
      "byteOffset": 32,
      "componentType": 5126,
      "count": 675,
      "name": "Stalak_i_fenjer_Material0/TEXCOORD_1",
      "type": "VEC2"
    },
    {
      "bufferView": 1,
      "componentType": 5125,
      "count": 2190,
      "name": "Stalak_i_fenjer_Material0/INDICES",
      "type": "SCALAR"
    },
    {
      "bufferView": 2,
      "componentType": 5126,
      "count": 705,
      "max": [
        0.0025129776913672686,
        0.061439819633960724,
        0.015892548486590385
      ],
      "min": [
        -0.0025129783898591995,
        0.012759856879711151,
        -0.002512977924197912
      ],
      "name": "Stalak_i_fenjer_Material0/POSITION",
      "type": "VEC3"
    },
    {
      "bufferView": 2,
      "byteOffset": 12,
      "componentType": 5126,
      "count": 705,
      "name": "Stalak_i_fenjer_Material0/NORMAL",
      "type": "VEC3"
    },
    {
      "bufferView": 2,
      "byteOffset": 24,
      "componentType": 5126,
      "count": 705,
      "name": "Stalak_i_fenjer_Material0/TEXCOORD_0",
      "type": "VEC2"
    },
    {
      "bufferView": 2,
      "byteOffset": 32,
      "componentType": 5126,
      "count": 705,
      "name": "Stalak_i_fenjer_Material0/TEXCOORD_1",
      "type": "VEC2"
    },
    {
      "bufferView": 3,
      "componentType": 5125,
      "count": 1644,
      "name": "Stalak_i_fenjer_Material0/INDICES",
      "type": "SCALAR"
    },
    {
      "bufferView": 4,
      "componentType": 5126,
      "count": 112,
      "max": [
        0.0020954760257154703,
        0.06601379066705704,
        0.002044954337179661
      ],
      "min": [
        -0.0020954764913767576,
        0.0074114990420639515,
        -0.0020731925033032894
      ],
      "name": "Stalak_i_fenjer_Material0/POSITION",
      "type": "VEC3"
    },
    {
      "bufferView": 4,
      "byteOffset": 12,
      "componentType": 5126,
      "count": 112,
      "name": "Stalak_i_fenjer_Material0/NORMAL",
      "type": "VEC3"
    },
    {
      "bufferView": 4,
      "byteOffset": 24,
      "componentType": 5126,
      "count": 112,
      "name": "Stalak_i_fenjer_Material0/TEXCOORD_0",
      "type": "VEC2"
    },
    {
      "bufferView": 4,
      "byteOffset": 32,
      "componentType": 5126,
      "count": 112,
      "name": "Stalak_i_fenjer_Material0/TEXCOORD_1",
      "type": "VEC2"
    },
    {
      "bufferView": 5,
      "componentType": 5125,
      "count": 360,
      "name": "Stalak_i_fenjer_Material0/INDICES",
      "type": "SCALAR"
    },
    {
      "bufferView": 6,
      "componentType": 5126,
      "count": 2086,
      "max": [
        0.00427298154681921,
        0.057773131877183914,
        0.01649598404765129
      ],
      "min": [
        -0.006096802186220884,
        0.03782311826944351,
        0.007997854612767696
      ],
      "name": "fenjer/POSITION",
      "type": "VEC3"
    },
    {
      "bufferView": 6,
      "byteOffset": 12,
      "componentType": 5126,
      "count": 2086,
      "name": "fenjer/NORMAL",
      "type": "VEC3"
    },
    {
      "bufferView": 6,
      "byteOffset": 24,
      "componentType": 5126,
      "count": 2086,
      "name": "fenjer/TEXCOORD_0",
      "type": "VEC2"
    },
    {
      "bufferView": 6,
      "byteOffset": 32,
      "componentType": 5126,
      "count": 2086,
      "name": "fenjer/TEXCOORD_1",
      "type": "VEC2"
    },
    {
      "bufferView": 6,
      "byteOffset": 40,
      "componentType": 5123,
      "count": 2086,
      "name": "fenjer/JOINTS_0",
      "type": "VEC4"
    },
    {
      "bufferView": 6,
      "byteOffset": 48,
      "componentType": 5126,
      "count": 2086,
      "name": "fenjer/WEIGHTS_0",
      "type": "VEC4"
    },
    {
      "bufferView": 7,
      "componentType": 5125,
      "count": 5184,
      "name": "fenjer/INDICES",
      "type": "SCALAR"
    },
    {
      "bufferView": 8,
      "componentType": 5126,
      "count": 1,
      "name": "/InverseBindMatrices",
      "type": "MAT4"
    },
    {
      "bufferView": 9,
      "componentType": 5126,
      "count": 359,
      "max": [
        0.002492652041837573,
        0.07346592098474503,
        0.02810552343726158
      ],
      "min": [
        -0.003111877478659153,
        0.060403671115636826,
        -0.001439170795492828
      ],
      "name": "Stalak_sa_tablom/POSITION",
      "type": "VEC3"
    },
    {
      "bufferView": 9,
      "byteOffset": 12,
      "componentType": 5126,
      "count": 359,
      "name": "Stalak_sa_tablom/NORMAL",
      "type": "VEC3"
    },
    {
      "bufferView": 9,
      "byteOffset": 24,
      "componentType": 5126,
      "count": 359,
      "name": "Stalak_sa_tablom/TEXCOORD_0",
      "type": "VEC2"
    },
    {
      "bufferView": 9,
      "byteOffset": 32,
      "componentType": 5126,
      "count": 359,
      "name": "Stalak_sa_tablom/TEXCOORD_1",
      "type": "VEC2"
    },
    {
      "bufferView": 10,
      "componentType": 5125,
      "count": 900,
      "name": "Stalak_sa_tablom/INDICES",
      "type": "SCALAR"
    },
    {
      "bufferView": 11,
      "componentType": 5126,
      "count": 1645,
      "max": [
        0.0013047091197222471,
        0.06613336503505707,
        0.041012488305568695
      ],
      "min": [
        -0.006515744142234325,
        0.03603115677833557,
        0.007599527947604656
      ],
      "name": "Tabla_Material0/POSITION",
      "type": "VEC3"
    },
    {
      "bufferView": 11,
      "byteOffset": 12,
      "componentType": 5126,
      "count": 1645,
      "name": "Tabla_Material0/NORMAL",
      "type": "VEC3"
    },
    {
      "bufferView": 11,
      "byteOffset": 24,
      "componentType": 5126,
      "count": 1645,
      "name": "Tabla_Material0/TEXCOORD_0",
      "type": "VEC2"
    },
    {
      "bufferView": 11,
      "byteOffset": 32,
      "componentType": 5126,
      "count": 1645,
      "name": "Tabla_Material0/TEXCOORD_1",
      "type": "VEC2"
    },
    {
      "bufferView": 11,
      "byteOffset": 40,
      "componentType": 5123,
      "count": 1645,
      "name": "Tabla_Material0/JOINTS_0",
      "type": "VEC4"
    },
    {
      "bufferView": 11,
      "byteOffset": 48,
      "componentType": 5126,
      "count": 1645,
      "name": "Tabla_Material0/WEIGHTS_0",
      "type": "VEC4"
    },
    {
      "bufferView": 12,
      "componentType": 5125,
      "count": 3624,
      "name": "Tabla_Material0/INDICES",
      "type": "SCALAR"
    },
    {
      "bufferView": 13,
      "componentType": 5126,
      "count": 94,
      "max": [
        -0.0008009013254195452,
        0.05826261639595032,
        0.038036853075027466
      ],
      "min": [
        -0.004420507699251175,
        0.03905857726931572,
        0.010654367506504059
      ],
      "name": "Tabla_Material0/POSITION",
      "type": "VEC3"
    },
    {
      "bufferView": 13,
      "byteOffset": 12,
      "componentType": 5126,
      "count": 94,
      "name": "Tabla_Material0/NORMAL",
      "type": "VEC3"
    },
    {
      "bufferView": 13,
      "byteOffset": 24,
      "componentType": 5126,
      "count": 94,
      "name": "Tabla_Material0/TEXCOORD_0",
      "type": "VEC2"
    },
    {
      "bufferView": 13,
      "byteOffset": 32,
      "componentType": 5126,
      "count": 94,
      "name": "Tabla_Material0/TEXCOORD_1",
      "type": "VEC2"
    },
    {
      "bufferView": 13,
      "byteOffset": 40,
      "componentType": 5123,
      "count": 94,
      "name": "Tabla_Material0/JOINTS_0",
      "type": "VEC4"
    },
    {
      "bufferView": 13,
      "byteOffset": 48,
      "componentType": 5126,
      "count": 94,
      "name": "Tabla_Material0/WEIGHTS_0",
      "type": "VEC4"
    },
    {
      "bufferView": 14,
      "componentType": 5125,
      "count": 204,
      "name": "Tabla_Material0/INDICES",
      "type": "SCALAR"
    },
    {
      "bufferView": 15,
      "componentType": 5126,
      "count": 1,
      "name": "/InverseBindMatrices",
      "type": "MAT4"
    },
    {
      "bufferView": 16,
      "componentType": 5126,
      "count": 100,
      "max": [
        4.125
      ],
      "min": [
        0.0
      ],
      "name": "joint1/Trs/Input",
      "type": "SCALAR"
    },
    {
      "bufferView": 17,
      "componentType": 5126,
      "count": 100,
      "name": "joint1/translation/Output",
      "type": "VEC3"
    },
    {
      "bufferView": 18,
      "componentType": 5126,
      "count": 100,
      "name": "joint1/rotation/Output",
      "type": "VEC4"
    },
    {
      "bufferView": 19,
      "componentType": 5126,
      "count": 100,
      "name": "joint1/scale/Output",
      "type": "VEC3"
    },
    {
      "bufferView": 20,
      "componentType": 5126,
      "count": 100,
      "max": [
        4.125
      ],
      "min": [
        0.0
      ],
      "name": "joint2/Trs/Input",
      "type": "SCALAR"
    },
    {
      "bufferView": 21,
      "componentType": 5126,
      "count": 100,
      "name": "joint2/translation/Output",
      "type": "VEC3"
    },
    {
      "bufferView": 22,
      "componentType": 5126,
      "count": 100,
      "name": "joint2/rotation/Output",
      "type": "VEC4"
    },
    {
      "bufferView": 23,
      "componentType": 5126,
      "count": 100,
      "name": "joint2/scale/Output",
      "type": "VEC3"
    }
  ],
  "animations": [
    {
      "channels": [
        {
          "sampler": 0,
          "target": {
            "node": 3,
            "path": "translation"
          }
        },
        {
          "sampler": 1,
          "target": {
            "node": 3,
            "path": "rotation"
          }
        },
        {
          "sampler": 2,
          "target": {
            "node": 3,
            "path": "scale"
          }
        },
        {
          "sampler": 3,
          "target": {
            "node": 6,
            "path": "translation"
          }
        },
        {
          "sampler": 4,
          "target": {
            "node": 6,
            "path": "rotation"
          }
        },
        {
          "sampler": 5,
          "target": {
            "node": 6,
            "path": "scale"
          }
        }
      ],
      "name": "Take 001",
      "samplers": [
        {
          "input": 43,
          "output": 44
        },
        {
          "input": 43,
          "output": 45
        },
        {
          "input": 43,
          "output": 46
        },
        {
          "input": 47,
          "output": 48
        },
        {
          "input": 47,
          "output": 49
        },
        {
          "input": 47,
          "output": 50
        }
      ]
    }
  ],
  "asset": {
    "copyright": "Copyright (c) 2018-2020 Chukong Technologies Inc.",
    "generator": "FBX-glTF-conv",
    "version": "2.0"
  },
  "bufferViews": [
    {
      "buffer": 0,
      "byteLength": 27000,
      "byteStride": 40,
      "name": "Stalak_i_fenjer_Material0",
      "target": 34962
    },
    {
      "buffer": 0,
      "byteLength": 8760,
      "byteOffset": 27000
    },
    {
      "buffer": 0,
      "byteLength": 28200,
      "byteOffset": 35760,
      "byteStride": 40,
      "name": "Stalak_i_fenjer_Material0",
      "target": 34962
    },
    {
      "buffer": 0,
      "byteLength": 6576,
      "byteOffset": 63960
    },
    {
      "buffer": 0,
      "byteLength": 4480,
      "byteOffset": 70536,
      "byteStride": 40,
      "name": "Stalak_i_fenjer_Material0",
      "target": 34962
    },
    {
      "buffer": 0,
      "byteLength": 1440,
      "byteOffset": 75016
    },
    {
      "buffer": 0,
      "byteLength": 133504,
      "byteOffset": 76456,
      "byteStride": 64,
      "name": "fenjer",
      "target": 34962
    },
    {
      "buffer": 0,
      "byteLength": 20736,
      "byteOffset": 209960
    },
    {
      "buffer": 0,
      "byteLength": 64,
      "byteOffset": 230696
    },
    {
      "buffer": 0,
      "byteLength": 14360,
      "byteOffset": 230760,
      "byteStride": 40,
      "name": "Stalak_sa_tablom",
      "target": 34962
    },
    {
      "buffer": 0,
      "byteLength": 3600,
      "byteOffset": 245120
    },
    {
      "buffer": 0,
      "byteLength": 105280,
      "byteOffset": 248720,
      "byteStride": 64,
      "name": "Tabla_Material0",
      "target": 34962
    },
    {
      "buffer": 0,
      "byteLength": 14496,
      "byteOffset": 354000
    },
    {
      "buffer": 0,
      "byteLength": 6016,
      "byteOffset": 368496,
      "byteStride": 64,
      "name": "Tabla_Material0",
      "target": 34962
    },
    {
      "buffer": 0,
      "byteLength": 816,
      "byteOffset": 374512
    },
    {
      "buffer": 0,
      "byteLength": 64,
      "byteOffset": 375328
    },
    {
      "buffer": 0,
      "byteLength": 400,
      "byteOffset": 375392
    },
    {
      "buffer": 0,
      "byteLength": 1200,
      "byteOffset": 375792
    },
    {
      "buffer": 0,
      "byteLength": 1600,
      "byteOffset": 376992
    },
    {
      "buffer": 0,
      "byteLength": 1200,
      "byteOffset": 378592
    },
    {
      "buffer": 0,
      "byteLength": 400,
      "byteOffset": 379792
    },
    {
      "buffer": 0,
      "byteLength": 1200,
      "byteOffset": 380192
    },
    {
      "buffer": 0,
      "byteLength": 1600,
      "byteOffset": 381392
    },
    {
      "buffer": 0,
      "byteLength": 1200,
      "byteOffset": 382992
    }
  ],
  "buffers": [
    {
      "byteLength": 384192,
      "uri": "out.bin"
    }
  ],
  "extras": {
    "FBX-glTF-conv": {
      "animationFrameRate": 24.0
    }
  },
  "images": [
    {
      "extras": {
        "FBX-glTF-conv": {
          "fileName": "/Users/aleksandarbedov/Documents/CocosCreator/tajanstvenesobe2/temp/asset-db/assets/fbx.FBX-glTF-conv/17629c40-ab56-4f04-9792-9c1944e60423/output/.fbm/B10A2B68/Fenjer i tabla.fbm/Stone01Diffuse.jpg",
          "relativeFileName": "../../../temp/asset-db/assets/fbx.FBX-glTF-conv/17629c40-ab56-4f04-9792-9c1944e60423/output/.fbm/B10A2B68/Fenjer i tabla.fbm/Stone01Diffuse.jpg"
        }
      },
      "name": "DiffuseColor_Texture_21",
      "uri": "Stone01Diffuse.jpg"
    },
    {
      "extras": {
        "FBX-glTF-conv": {
          "fileName": "/Users/aleksandarbedov/Documents/CocosCreator/tajanstvenesobe2/temp/asset-db/assets/fbx.FBX-glTF-conv/17629c40-ab56-4f04-9792-9c1944e60423/output/.fbm/B10A2B68/Fenjer i tabla.fbm/Manmade04Diffuse.jpg",
          "relativeFileName": "../../../temp/asset-db/assets/fbx.FBX-glTF-conv/17629c40-ab56-4f04-9792-9c1944e60423/output/.fbm/B10A2B68/Fenjer i tabla.fbm/Manmade04Diffuse.jpg"
        }
      },
      "name": "DiffuseColor_Texture_3",
      "uri": "Manmade04Diffuse.jpg"
    },
    {
      "extras": {
        "FBX-glTF-conv": {
          "fileName": "/Users/aleksandarbedov/Documents/CocosCreator/tajanstvenesobe2/temp/asset-db/assets/fbx.FBX-glTF-conv/17629c40-ab56-4f04-9792-9c1944e60423/output/.fbm/B10A2B68/Fenjer i tabla.fbm/Manmade04Normal.jpg",
          "relativeFileName": "../../../temp/asset-db/assets/fbx.FBX-glTF-conv/17629c40-ab56-4f04-9792-9c1944e60423/output/.fbm/B10A2B68/Fenjer i tabla.fbm/Manmade04Normal.jpg"
        }
      },
      "name": "NormalMap_Texture_3",
      "uri": "Manmade04Normal.jpg"
    },
    {
      "extras": {
        "FBX-glTF-conv": {
          "fileName": "/Users/aleksandarbedov/Documents/CocosCreator/tajanstvenesobe2/temp/asset-db/assets/fbx.FBX-glTF-conv/17629c40-ab56-4f04-9792-9c1944e60423/output/.fbm/B10A2B68/Fenjer i tabla.fbm/Manmade04Emissive.jpg",
          "relativeFileName": "../../../temp/asset-db/assets/fbx.FBX-glTF-conv/17629c40-ab56-4f04-9792-9c1944e60423/output/.fbm/B10A2B68/Fenjer i tabla.fbm/Manmade04Emissive.jpg"
        }
      },
      "name": "EmissiveColor_Texture",
      "uri": "Manmade04Emissive.jpg"
    },
    {
      "extras": {
        "FBX-glTF-conv": {
          "fileName": "/Users/aleksandarbedov/Documents/CocosCreator/tajanstvenesobe2/temp/asset-db/assets/fbx.FBX-glTF-conv/17629c40-ab56-4f04-9792-9c1944e60423/output/.fbm/B10A2B68/Fenjer i tabla.fbm/Manmade02Diffuse.jpg",
          "relativeFileName": "../../../temp/asset-db/assets/fbx.FBX-glTF-conv/17629c40-ab56-4f04-9792-9c1944e60423/output/.fbm/B10A2B68/Fenjer i tabla.fbm/Manmade02Diffuse.jpg"
        }
      },
      "name": "DiffuseColor_Texture_2",
      "uri": "Manmade02Diffuse.jpg"
    }
  ],
  "materials": [
    {
      "name": "Stone01Diffuse",
      "pbrMetallicRoughness": {
        "baseColorTexture": {
          "index": 0
        }
      }
    },
    {
      "emissiveFactor": [
        1.0,
        1.0,
        1.0
      ],
      "emissiveTexture": {
        "index": 3
      },
      "name": "Manmade04Diffuse1",
      "normalTexture": {
        "index": 2
      },
      "pbrMetallicRoughness": {
        "baseColorTexture": {
          "index": 1
        }
      }
    },
    {
      "name": "Manmade02Diffuse2",
      "pbrMetallicRoughness": {
        "baseColorTexture": {
          "index": 4
        }
      }
    }
  ],
  "meshes": [
    {
      "name": "Stalak_i_fenjer_Material0",
      "primitives": [
        {
          "attributes": {
            "NORMAL": 1,
            "POSITION": 0,
            "TEXCOORD_0": 2,
            "TEXCOORD_1": 3
          },
          "indices": 4,
          "material": 0
        },
        {
          "attributes": {
            "NORMAL": 6,
            "POSITION": 5,
            "TEXCOORD_0": 7,
            "TEXCOORD_1": 8
          },
          "indices": 9,
          "material": 1
        },
        {
          "attributes": {
            "NORMAL": 11,
            "POSITION": 10,
            "TEXCOORD_0": 12,
            "TEXCOORD_1": 13
          },
          "indices": 14,
          "material": 2
        }
      ]
    },
    {
      "name": "fenjer",
      "primitives": [
        {
          "attributes": {
            "JOINTS_0": 19,
            "NORMAL": 16,
            "POSITION": 15,
            "TEXCOORD_0": 17,
            "TEXCOORD_1": 18,
            "WEIGHTS_0": 20
          },
          "indices": 21,
          "material": 1
        }
      ]
    },
    {
      "name": "Stalak_sa_tablom",
      "primitives": [
        {
          "attributes": {
            "NORMAL": 24,
            "POSITION": 23,
            "TEXCOORD_0": 25,
            "TEXCOORD_1": 26
          },
          "indices": 27,
          "material": 1
        }
      ]
    },
    {
      "name": "Tabla_Material0",
      "primitives": [
        {
          "attributes": {
            "JOINTS_0": 32,
            "NORMAL": 29,
            "POSITION": 28,
            "TEXCOORD_0": 30,
            "TEXCOORD_1": 31,
            "WEIGHTS_0": 33
          },
          "indices": 34,
          "material": 1
        },
        {
          "attributes": {
            "JOINTS_0": 39,
            "NORMAL": 36,
            "POSITION": 35,
            "TEXCOORD_0": 37,
            "TEXCOORD_1": 38,
            "WEIGHTS_0": 40
          },
          "indices": 41,
          "material": 2
        }
      ]
    }
  ],
  "nodes": [
    {
      "children": [
        1
      ],
      "mesh": 0,
      "name": "Stalak_i_fenjer"
    },
    {
      "children": [
        2
      ],
      "mesh": 1,
      "name": "fenjer",
      "skin": 0
    },
    {
      "children": [
        3
      ],
      "name": "transform1"
    },
    {
      "extras": {
        "FBX-glTF-conv": {
          "skeleton": {
            "skeletonType": "LimbNode"
          }
        }
      },
      "name": "joint1",
      "rotation": [
        0.04192764684557915,
        -0.2861855626106262,
        -0.018725506961345673,
        0.9570732712745667
      ],
      "translation": [
        -0.0008984199957922101,
        0.057218194007873535,
        0.012228068895637989
      ]
    },
    {
      "children": [
        5
      ],
      "mesh": 2,
      "name": "Stalak_sa_tablom"
    },
    {
      "children": [
        6
      ],
      "mesh": 3,
      "name": "Tabla",
      "skin": 1
    },
    {
      "extras": {
        "FBX-glTF-conv": {
          "skeleton": {
            "skeletonType": "LimbNode"
          }
        }
      },
      "name": "joint2",
      "rotation": [
        0.0016469619004055858,
        0.019848646596074104,
        -0.06837407499551773,
        0.9974609017372131
      ],
      "translation": [
        -0.0014879157533869147,
        0.06367743015289307,
        0.0232092197984457
      ]
    }
  ],
  "samplers": [
    {}
  ],
  "scenes": [
    {
      "nodes": [
        0,
        4
      ]
    }
  ],
  "skins": [
    {
      "inverseBindMatrices": 22,
      "joints": [
        3
      ]
    },
    {
      "inverseBindMatrices": 42,
      "joints": [
        6
      ]
    }
  ],
  "textures": [
    {
      "name": "DiffuseColor_Texture_21",
      "sampler": 0,
      "source": 0
    },
    {
      "name": "DiffuseColor_Texture_3",
      "sampler": 0,
      "source": 1
    },
    {
      "name": "NormalMap_Texture_3",
      "sampler": 0,
      "source": 2
    },
    {
      "name": "EmissiveColor_Texture",
      "sampler": 0,
      "source": 3
    },
    {
      "name": "DiffuseColor_Texture_2",
      "sampler": 0,
      "source": 4
    }
  ]
}