{
  "accessors": [
    {
      "bufferView": 0,
      "componentType": 5126,
      "count": 33934,
      "max": [
        0.11679235100746155,
        0.03977561369538307,
        0.3217442035675049
      ],
      "min": [
        -0.2627495229244232,
        0.025853248313069344,
        -0.20990701019763947
      ],
      "name": "prohodni_elementi_Material0/POSITION",
      "type": "VEC3"
    },
    {
      "bufferView": 0,
      "byteOffset": 12,
      "componentType": 5126,
      "count": 33934,
      "name": "prohodni_elementi_Material0/NORMAL",
      "type": "VEC3"
    },
    {
      "bufferView": 0,
      "byteOffset": 24,
      "componentType": 5126,
      "count": 33934,
      "name": "prohodni_elementi_Material0/TEXCOORD_0",
      "type": "VEC2"
    },
    {
      "bufferView": 1,
      "componentType": 5125,
      "count": 104304,
      "name": "prohodni_elementi_Material0/INDICES",
      "type": "SCALAR"
    },
    {
      "bufferView": 2,
      "componentType": 5126,
      "count": 3496,
      "max": [
        0.12342909723520279,
        0.07939106225967407,
        0.2874232232570648
      ],
      "min": [
        -0.2615208923816681,
        0.0245785191655159,
        0.0635727271437645
      ],
      "name": "prohodni_elementi_Material0/POSITION",
      "type": "VEC3"
    },
    {
      "bufferView": 2,
      "byteOffset": 12,
      "componentType": 5126,
      "count": 3496,
      "name": "prohodni_elementi_Material0/NORMAL",
      "type": "VEC3"
    },
    {
      "bufferView": 2,
      "byteOffset": 24,
      "componentType": 5126,
      "count": 3496,
      "name": "prohodni_elementi_Material0/TEXCOORD_0",
      "type": "VEC2"
    },
    {
      "bufferView": 3,
      "componentType": 5125,
      "count": 12747,
      "name": "prohodni_elementi_Material0/INDICES",
      "type": "SCALAR"
    },
    {
      "bufferView": 4,
      "componentType": 5126,
      "count": 1176,
      "max": [
        0.11330113559961319,
        0.07375874370336533,
        0.36382031440734863
      ],
      "min": [
        -0.31376883387565613,
        0.02361815609037876,
        -0.15523815155029297
      ],
      "name": "prohodni_elementi_Material0/POSITION",
      "type": "VEC3"
    },
    {
      "bufferView": 4,
      "byteOffset": 12,
      "componentType": 5126,
      "count": 1176,
      "name": "prohodni_elementi_Material0/NORMAL",
      "type": "VEC3"
    },
    {
      "bufferView": 4,
      "byteOffset": 24,
      "componentType": 5126,
      "count": 1176,
      "name": "prohodni_elementi_Material0/TEXCOORD_0",
      "type": "VEC2"
    },
    {
      "bufferView": 5,
      "componentType": 5125,
      "count": 4320,
      "name": "prohodni_elementi_Material0/INDICES",
      "type": "SCALAR"
    },
    {
      "bufferView": 6,
      "componentType": 5126,
      "count": 3881,
      "max": [
        -0.1380336731672287,
        0.04341370612382889,
        0.3709855377674103
      ],
      "min": [
        -0.32283496856689453,
        0.02361944504082203,
        -0.1609155237674713
      ],
      "name": "prohodni_elementi_Material0/POSITION",
      "type": "VEC3"
    },
    {
      "bufferView": 6,
      "byteOffset": 12,
      "componentType": 5126,
      "count": 3881,
      "name": "prohodni_elementi_Material0/NORMAL",
      "type": "VEC3"
    },
    {
      "bufferView": 6,
      "byteOffset": 24,
      "componentType": 5126,
      "count": 3881,
      "name": "prohodni_elementi_Material0/TEXCOORD_0",
      "type": "VEC2"
    },
    {
      "bufferView": 7,
      "componentType": 5125,
      "count": 11472,
      "name": "prohodni_elementi_Material0/INDICES",
      "type": "SCALAR"
    },
    {
      "bufferView": 8,
      "componentType": 5126,
      "count": 889,
      "max": [
        0.060548555105924606,
        0.06383568793535233,
        0.2386540174484253
      ],
      "min": [
        0.027252761647105217,
        0.04008257016539574,
        0.20352068543434143
      ],
      "name": "prohodni_elementi_Material0/POSITION",
      "type": "VEC3"
    },
    {
      "bufferView": 8,
      "byteOffset": 12,
      "componentType": 5126,
      "count": 889,
      "name": "prohodni_elementi_Material0/NORMAL",
      "type": "VEC3"
    },
    {
      "bufferView": 8,
      "byteOffset": 24,
      "componentType": 5126,
      "count": 889,
      "name": "prohodni_elementi_Material0/TEXCOORD_0",
      "type": "VEC2"
    },
    {
      "bufferView": 9,
      "componentType": 5125,
      "count": 3108,
      "name": "prohodni_elementi_Material0/INDICES",
      "type": "SCALAR"
    },
    {
      "bufferView": 10,
      "componentType": 5126,
      "count": 3981,
      "max": [
        -0.18775932490825653,
        0.03561769425868988,
        0.15069256722927094
      ],
      "min": [
        -0.24808697402477264,
        0.02635578066110611,
        0.1031813845038414
      ],
      "name": "prohodni_elementi_Material0/POSITION",
      "type": "VEC3"
    },
    {
      "bufferView": 10,
      "byteOffset": 12,
      "componentType": 5126,
      "count": 3981,
      "name": "prohodni_elementi_Material0/NORMAL",
      "type": "VEC3"
    },
    {
      "bufferView": 10,
      "byteOffset": 24,
      "componentType": 5126,
      "count": 3981,
      "name": "prohodni_elementi_Material0/TEXCOORD_0",
      "type": "VEC2"
    },
    {
      "bufferView": 11,
      "componentType": 5125,
      "count": 4677,
      "name": "prohodni_elementi_Material0/INDICES",
      "type": "SCALAR"
    }
  ],
  "asset": {
    "copyright": "Copyright (c) 2018-2020 Chukong Technologies Inc.",
    "generator": "FBX-glTF-conv",
    "version": "2.0"
  },
  "bufferViews": [
    {
      "buffer": 0,
      "byteLength": 1085888,
      "byteStride": 32,
      "name": "prohodni_elementi_Material0",
      "target": 34962
    },
    {
      "buffer": 0,
      "byteLength": 417216,
      "byteOffset": 1085888
    },
    {
      "buffer": 0,
      "byteLength": 111872,
      "byteOffset": 1503104,
      "byteStride": 32,
      "name": "prohodni_elementi_Material0",
      "target": 34962
    },
    {
      "buffer": 0,
      "byteLength": 50988,
      "byteOffset": 1614976
    },
    {
      "buffer": 0,
      "byteLength": 37632,
      "byteOffset": 1665964,
      "byteStride": 32,
      "name": "prohodni_elementi_Material0",
      "target": 34962
    },
    {
      "buffer": 0,
      "byteLength": 17280,
      "byteOffset": 1703596
    },
    {
      "buffer": 0,
      "byteLength": 124192,
      "byteOffset": 1720876,
      "byteStride": 32,
      "name": "prohodni_elementi_Material0",
      "target": 34962
    },
    {
      "buffer": 0,
      "byteLength": 45888,
      "byteOffset": 1845068
    },
    {
      "buffer": 0,
      "byteLength": 28448,
      "byteOffset": 1890956,
      "byteStride": 32,
      "name": "prohodni_elementi_Material0",
      "target": 34962
    },
    {
      "buffer": 0,
      "byteLength": 12432,
      "byteOffset": 1919404
    },
    {
      "buffer": 0,
      "byteLength": 127392,
      "byteOffset": 1931836,
      "byteStride": 32,
      "name": "prohodni_elementi_Material0",
      "target": 34962
    },
    {
      "buffer": 0,
      "byteLength": 18708,
      "byteOffset": 2059228
    }
  ],
  "buffers": [
    {
      "byteLength": 2077936,
      "uri": "out.bin"
    }
  ],
  "extras": {
    "FBX-glTF-conv": {
      "animationFrameRate": 24.0
    }
  },
  "images": [
    {
      "extras": {
        "FBX-glTF-conv": {
          "fileName": "/Users/aleksandarbedov/Documents/CocosCreator/tajanstvenesobe2/temp/asset-db/assets/fbx.FBX-glTF-conv/25ba6b7e-30b5-4765-b809-ba5f49b041d3/output/.fbm/429C35CA/Grad nevidljivih samo prohodni el 14. april.fbm/Plants01Diffuse.png",
          "relativeFileName": "../../../temp/asset-db/assets/fbx.FBX-glTF-conv/25ba6b7e-30b5-4765-b809-ba5f49b041d3/output/.fbm/429C35CA/Grad nevidljivih samo prohodni el 14. april.fbm/Plants01Diffuse.png"
        }
      },
      "name": "DiffuseColor_Texture_17",
      "uri": "Plants01Diffuse.png"
    },
    {
      "extras": {
        "FBX-glTF-conv": {
          "fileName": "/Users/aleksandarbedov/Documents/CocosCreator/tajanstvenesobe2/temp/asset-db/assets/fbx.FBX-glTF-conv/25ba6b7e-30b5-4765-b809-ba5f49b041d3/output/.fbm/429C35CA/Grad nevidljivih samo prohodni el 14. april.fbm/Decidious02Diffuse.png",
          "relativeFileName": "../../../temp/asset-db/assets/fbx.FBX-glTF-conv/25ba6b7e-30b5-4765-b809-ba5f49b041d3/output/.fbm/429C35CA/Grad nevidljivih samo prohodni el 14. april.fbm/Decidious02Diffuse.png"
        }
      },
      "name": "DiffuseColor_Texture_24",
      "uri": "Decidious02Diffuse.png"
    },
    {
      "extras": {
        "FBX-glTF-conv": {
          "fileName": "/Users/aleksandarbedov/Documents/CocosCreator/tajanstvenesobe2/temp/asset-db/assets/fbx.FBX-glTF-conv/25ba6b7e-30b5-4765-b809-ba5f49b041d3/output/.fbm/429C35CA/Grad nevidljivih samo prohodni el 14. april.fbm/Trunk01Diffuse.jpg",
          "relativeFileName": "../../../temp/asset-db/assets/fbx.FBX-glTF-conv/25ba6b7e-30b5-4765-b809-ba5f49b041d3/output/.fbm/429C35CA/Grad nevidljivih samo prohodni el 14. april.fbm/Trunk01Diffuse.jpg"
        }
      },
      "name": "DiffuseColor_Texture_22",
      "uri": "Trunk01Diffuse.jpg"
    },
    {
      "extras": {
        "FBX-glTF-conv": {
          "fileName": "/Users/aleksandarbedov/Documents/CocosCreator/tajanstvenesobe2/temp/asset-db/assets/fbx.FBX-glTF-conv/25ba6b7e-30b5-4765-b809-ba5f49b041d3/output/.fbm/429C35CA/Grad nevidljivih samo prohodni el 14. april.fbm/Decidious01Diffuse.png",
          "relativeFileName": "../../../temp/asset-db/assets/fbx.FBX-glTF-conv/25ba6b7e-30b5-4765-b809-ba5f49b041d3/output/.fbm/429C35CA/Grad nevidljivih samo prohodni el 14. april.fbm/Decidious01Diffuse.png"
        }
      },
      "name": "DiffuseColor_Texture_23",
      "uri": "Decidious01Diffuse.png"
    },
    {
      "extras": {
        "FBX-glTF-conv": {
          "fileName": "/Users/aleksandarbedov/Documents/CocosCreator/tajanstvenesobe2/temp/asset-db/assets/fbx.FBX-glTF-conv/25ba6b7e-30b5-4765-b809-ba5f49b041d3/output/.fbm/429C35CA/Grad nevidljivih samo prohodni el 14. april.fbm/Decidious03Diffuse.png",
          "relativeFileName": "../../../temp/asset-db/assets/fbx.FBX-glTF-conv/25ba6b7e-30b5-4765-b809-ba5f49b041d3/output/.fbm/429C35CA/Grad nevidljivih samo prohodni el 14. april.fbm/Decidious03Diffuse.png"
        }
      },
      "name": "DiffuseColor_Texture_26",
      "uri": "Decidious03Diffuse.png"
    },
    {
      "extras": {
        "FBX-glTF-conv": {
          "fileName": "/Users/aleksandarbedov/Documents/CocosCreator/tajanstvenesobe2/temp/asset-db/assets/fbx.FBX-glTF-conv/25ba6b7e-30b5-4765-b809-ba5f49b041d3/output/.fbm/429C35CA/Grad nevidljivih samo prohodni el 14. april.fbm/Grass01Diffuse.png",
          "relativeFileName": "../../../temp/asset-db/assets/fbx.FBX-glTF-conv/25ba6b7e-30b5-4765-b809-ba5f49b041d3/output/.fbm/429C35CA/Grad nevidljivih samo prohodni el 14. april.fbm/Grass01Diffuse.png"
        }
      },
      "name": "DiffuseColor_Texture_18",
      "uri": "Grass01Diffuse.png"
    }
  ],
  "materials": [
    {
      "alphaMode": "BLEND",
      "name": "Plants01Diffuse",
      "pbrMetallicRoughness": {
        "baseColorFactor": [
          1.0,
          1.0,
          1.0,
          0.0
        ],
        "baseColorTexture": {
          "index": 0
        }
      }
    },
    {
      "name": "Decidious02Diffuse1",
      "pbrMetallicRoughness": {
        "baseColorTexture": {
          "index": 1
        }
      }
    },
    {
      "name": "Trunk01Diffuse1",
      "pbrMetallicRoughness": {
        "baseColorTexture": {
          "index": 2
        }
      }
    },
    {
      "alphaMode": "BLEND",
      "name": "Decidious01Diffuse1",
      "pbrMetallicRoughness": {
        "baseColorFactor": [
          1.0,
          1.0,
          1.0,
          0.0
        ],
        "baseColorTexture": {
          "index": 3
        }
      }
    },
    {
      "alphaMode": "BLEND",
      "name": "Decidious03Diffuse1",
      "pbrMetallicRoughness": {
        "baseColorFactor": [
          1.0,
          1.0,
          1.0,
          0.0
        ],
        "baseColorTexture": {
          "index": 4
        }
      }
    },
    {
      "name": "Grass01Diffuse",
      "pbrMetallicRoughness": {
        "baseColorTexture": {
          "index": 5
        }
      }
    }
  ],
  "meshes": [
    {
      "name": "prohodni_elementi_Material0",
      "primitives": [
        {
          "attributes": {
            "NORMAL": 1,
            "POSITION": 0,
            "TEXCOORD_0": 2
          },
          "indices": 3,
          "material": 0
        },
        {
          "attributes": {
            "NORMAL": 5,
            "POSITION": 4,
            "TEXCOORD_0": 6
          },
          "indices": 7,
          "material": 1
        },
        {
          "attributes": {
            "NORMAL": 9,
            "POSITION": 8,
            "TEXCOORD_0": 10
          },
          "indices": 11,
          "material": 2
        },
        {
          "attributes": {
            "NORMAL": 13,
            "POSITION": 12,
            "TEXCOORD_0": 14
          },
          "indices": 15,
          "material": 3
        },
        {
          "attributes": {
            "NORMAL": 17,
            "POSITION": 16,
            "TEXCOORD_0": 18
          },
          "indices": 19,
          "material": 4
        },
        {
          "attributes": {
            "NORMAL": 21,
            "POSITION": 20,
            "TEXCOORD_0": 22
          },
          "indices": 23,
          "material": 5
        }
      ]
    }
  ],
  "nodes": [
    {
      "mesh": 0,
      "name": "prohodni_elementi"
    }
  ],
  "samplers": [
    {}
  ],
  "scenes": [
    {
      "nodes": [
        0
      ]
    }
  ],
  "textures": [
    {
      "name": "DiffuseColor_Texture_17",
      "sampler": 0,
      "source": 0
    },
    {
      "name": "DiffuseColor_Texture_24",
      "sampler": 0,
      "source": 1
    },
    {
      "name": "DiffuseColor_Texture_22",
      "sampler": 0,
      "source": 2
    },
    {
      "name": "DiffuseColor_Texture_23",
      "sampler": 0,
      "source": 3
    },
    {
      "name": "DiffuseColor_Texture_26",
      "sampler": 0,
      "source": 4
    },
    {
      "name": "DiffuseColor_Texture_18",
      "sampler": 0,
      "source": 5
    }
  ]
}