{
  "accessors": [
    {
      "bufferView": 0,
      "componentType": 5126,
      "count": 16,
      "max": [
        0.005758257117122412,
        -0.0012496818089857697,
        0.008231241255998611
      ],
      "min": [
        -0.009575221687555313,
        -0.005000000819563866,
        -0.005619301926344633
      ],
      "name": "Kolajder/POSITION",
      "type": "VEC3"
    },
    {
      "bufferView": 0,
      "byteOffset": 12,
      "componentType": 5126,
      "count": 16,
      "name": "Kolajder/NORMAL",
      "type": "VEC3"
    },
    {
      "bufferView": 0,
      "byteOffset": 24,
      "componentType": 5126,
      "count": 16,
      "name": "Kolajder/TEXCOORD_0",
      "type": "VEC2"
    },
    {
      "bufferView": 1,
      "componentType": 5125,
      "count": 24,
      "name": "Kolajder/INDICES",
      "type": "SCALAR"
    }
  ],
  "asset": {
    "copyright": "Copyright (c) 2018-2020 Chukong Technologies Inc.",
    "generator": "FBX-glTF-conv",
    "version": "2.0"
  },
  "bufferViews": [
    {
      "buffer": 0,
      "byteLength": 512,
      "byteStride": 32,
      "name": "Kolajder",
      "target": 34962
    },
    {
      "buffer": 0,
      "byteLength": 96,
      "byteOffset": 512
    }
  ],
  "buffers": [
    {
      "byteLength": 608,
      "uri": "out.bin"
    }
  ],
  "extras": {
    "FBX-glTF-conv": {
      "animationFrameRate": 24.0
    }
  },
  "images": [
    {
      "extras": {
        "FBX-glTF-conv": {
          "fileName": "/Users/aleksandarbedov/Documents/CocosCreator/tajanstvenesobe2/temp/asset-db/assets/fbx.FBX-glTF-conv/e92d83fe-7bbb-4072-9f69-2f72701acc2c/output/.fbm/66BE2E4F/Vesele ulice samo ograda 8. april.fbm/ograda.png",
          "relativeFileName": "../../../temp/asset-db/assets/fbx.FBX-glTF-conv/e92d83fe-7bbb-4072-9f69-2f72701acc2c/output/.fbm/66BE2E4F/Vesele ulice samo ograda 8. april.fbm/ograda.png"
        }
      },
      "name": "ograda.png",
      "uri": "ograda.png"
    }
  ],
  "materials": [
    {
      "name": "ograda",
      "pbrMetallicRoughness": {
        "baseColorFactor": [
          0.800000011920929,
          0.800000011920929,
          0.800000011920929,
          1.0
        ],
        "baseColorTexture": {
          "index": 0
        }
      }
    }
  ],
  "meshes": [
    {
      "name": "Kolajder",
      "primitives": [
        {
          "attributes": {
            "NORMAL": 1,
            "POSITION": 0,
            "TEXCOORD_0": 2
          },
          "indices": 3,
          "material": 0
        }
      ]
    }
  ],
  "nodes": [
    {
      "mesh": 0,
      "name": "Kolajder",
      "scale": [
        32.67400360107422,
        1.3973757028579712,
        17.918081283569336
      ],
      "translation": [
        0.0,
        0.01735314168035984,
        0.07795265316963196
      ]
    }
  ],
  "samplers": [
    {}
  ],
  "scenes": [
    {
      "nodes": [
        0
      ]
    }
  ],
  "textures": [
    {
      "name": "ograda.png",
      "sampler": 0,
      "source": 0
    }
  ]
}