{
  "accessors": [
    {
      "bufferView": 0,
      "componentType": 5126,
      "count": 16,
      "max": [
        0.009999999776482582,
        0.017650902271270752,
        0.005538186989724636
      ],
      "min": [
        -0.009999999776482582,
        -0.009999999776482582,
        -0.005538186989724636
      ],
      "name": "pCone1/POSITION",
      "type": "VEC3"
    },
    {
      "bufferView": 0,
      "byteOffset": 12,
      "componentType": 5126,
      "count": 16,
      "name": "pCone1/NORMAL",
      "type": "VEC3"
    },
    {
      "bufferView": 0,
      "byteOffset": 24,
      "componentType": 5126,
      "count": 16,
      "name": "pCone1/TEXCOORD_0",
      "type": "VEC2"
    },
    {
      "bufferView": 1,
      "componentType": 5125,
      "count": 18,
      "name": "pCone1/INDICES",
      "type": "SCALAR"
    },
    {
      "bufferView": 2,
      "componentType": 5126,
      "count": 24,
      "max": [
        0.004999999888241291,
        0.004999999888241291,
        0.004999999888241291
      ],
      "min": [
        -0.004999999888241291,
        -0.004999999888241291,
        -0.004999999888241291
      ],
      "name": "pCube1/POSITION",
      "type": "VEC3"
    },
    {
      "bufferView": 2,
      "byteOffset": 12,
      "componentType": 5126,
      "count": 24,
      "name": "pCube1/NORMAL",
      "type": "VEC3"
    },
    {
      "bufferView": 2,
      "byteOffset": 24,
      "componentType": 5126,
      "count": 24,
      "name": "pCube1/TEXCOORD_0",
      "type": "VEC2"
    },
    {
      "bufferView": 3,
      "componentType": 5125,
      "count": 36,
      "name": "pCube1/INDICES",
      "type": "SCALAR"
    }
  ],
  "asset": {
    "copyright": "Copyright (c) 2018-2020 Chukong Technologies Inc.",
    "generator": "FBX-glTF-conv",
    "version": "2.0"
  },
  "bufferViews": [
    {
      "buffer": 0,
      "byteLength": 512,
      "byteStride": 32,
      "name": "pCone1",
      "target": 34962
    },
    {
      "buffer": 0,
      "byteLength": 72,
      "byteOffset": 512
    },
    {
      "buffer": 0,
      "byteLength": 768,
      "byteOffset": 584,
      "byteStride": 32,
      "name": "pCube1",
      "target": 34962
    },
    {
      "buffer": 0,
      "byteLength": 144,
      "byteOffset": 1352
    }
  ],
  "buffers": [
    {
      "byteLength": 1496,
      "uri": "out.bin"
    }
  ],
  "extras": {
    "FBX-glTF-conv": {
      "animationFrameRate": 24.0
    }
  },
  "materials": [
    {
      "name": "blinn1",
      "pbrMetallicRoughness": {
        "baseColorFactor": [
          0.5552000403404236,
          0.0,
          0.0,
          1.0
        ],
        "metallicFactor": 0.4000000059604645,
        "roughnessFactor": 0.49053239822387695
      }
    }
  ],
  "meshes": [
    {
      "name": "pCone1",
      "primitives": [
        {
          "attributes": {
            "NORMAL": 1,
            "POSITION": 0,
            "TEXCOORD_0": 2
          },
          "indices": 3,
          "material": 0
        }
      ]
    },
    {
      "name": "pCube1",
      "primitives": [
        {
          "attributes": {
            "NORMAL": 5,
            "POSITION": 4,
            "TEXCOORD_0": 6
          },
          "indices": 7,
          "material": 0
        }
      ]
    }
  ],
  "nodes": [
    {
      "mesh": 0,
      "name": "pCone1"
    },
    {
      "mesh": 1,
      "name": "pCube1",
      "rotation": [
        0.0,
        0.3826834261417389,
        0.0,
        0.9238795042037964
      ],
      "scale": [
        0.46988645195961,
        2.117448568344116,
        0.46988645195961
      ],
      "translation": [
        0.0,
        -0.012131482362747192,
        0.0
      ]
    }
  ],
  "scenes": [
    {
      "nodes": [
        0,
        1
      ]
    }
  ]
}