{
  "accessors": [
    {
      "bufferView": 0,
      "componentType": 5126,
      "count": 80,
      "max": [
        17.41197967529297,
        8.670520782470703,
        17.7992000579834
      ],
      "min": [
        -17.0454044342041,
        7.929208755493164,
        -16.658185958862305
      ],
      "name": "Ograda/POSITION",
      "type": "VEC3"
    },
    {
      "bufferView": 0,
      "byteOffset": 12,
      "componentType": 5126,
      "count": 80,
      "name": "Ograda/NORMAL",
      "type": "VEC3"
    },
    {
      "bufferView": 0,
      "byteOffset": 24,
      "componentType": 5126,
      "count": 80,
      "name": "Ograda/TEXCOORD_0",
      "type": "VEC2"
    },
    {
      "bufferView": 1,
      "componentType": 5125,
      "count": 120,
      "name": "Ograda/INDICES",
      "type": "SCALAR"
    },
    {
      "bufferView": 2,
      "componentType": 5126,
      "count": 6640,
      "max": [
        14.925572395324707,
        0.04562544822692871,
        12.550424575805664
      ],
      "min": [
        -12.334485054016113,
        -0.01072283461689949,
        -11.203909873962402
      ],
      "name": "Pod_sa_putem_Material0/POSITION",
      "type": "VEC3"
    },
    {
      "bufferView": 2,
      "byteOffset": 12,
      "componentType": 5126,
      "count": 6640,
      "name": "Pod_sa_putem_Material0/NORMAL",
      "type": "VEC3"
    },
    {
      "bufferView": 2,
      "byteOffset": 24,
      "componentType": 5126,
      "count": 6640,
      "name": "Pod_sa_putem_Material0/TEXCOORD_0",
      "type": "VEC2"
    },
    {
      "bufferView": 3,
      "componentType": 5125,
      "count": 10845,
      "name": "Pod_sa_putem_Material0/INDICES",
      "type": "SCALAR"
    },
    {
      "bufferView": 4,
      "componentType": 5126,
      "count": 160,
      "max": [
        21.16900634765625,
        -0.0069136712700128555,
        21.55622100830078
      ],
      "min": [
        -20.802431106567383,
        -1.5253039598464966,
        -20.41521453857422
      ],
      "name": "Pod_sa_putem_Material0/POSITION",
      "type": "VEC3"
    },
    {
      "bufferView": 4,
      "byteOffset": 12,
      "componentType": 5126,
      "count": 160,
      "name": "Pod_sa_putem_Material0/NORMAL",
      "type": "VEC3"
    },
    {
      "bufferView": 4,
      "byteOffset": 24,
      "componentType": 5126,
      "count": 160,
      "name": "Pod_sa_putem_Material0/TEXCOORD_0",
      "type": "VEC2"
    },
    {
      "bufferView": 5,
      "componentType": 5125,
      "count": 414,
      "name": "Pod_sa_putem_Material0/INDICES",
      "type": "SCALAR"
    },
    {
      "bufferView": 6,
      "componentType": 5126,
      "count": 38760,
      "max": [
        15.418095588684082,
        2.885972023010254,
        9.88537883758545
      ],
      "min": [
        -10.932056427001953,
        -0.05267368257045746,
        -12.388345718383789
      ],
      "name": "Scena_Material0/POSITION",
      "type": "VEC3"
    },
    {
      "bufferView": 6,
      "byteOffset": 12,
      "componentType": 5126,
      "count": 38760,
      "name": "Scena_Material0/NORMAL",
      "type": "VEC3"
    },
    {
      "bufferView": 6,
      "byteOffset": 24,
      "componentType": 5126,
      "count": 38760,
      "name": "Scena_Material0/TEXCOORD_0",
      "type": "VEC2"
    },
    {
      "bufferView": 7,
      "componentType": 5125,
      "count": 99420,
      "name": "Scena_Material0/INDICES",
      "type": "SCALAR"
    },
    {
      "bufferView": 8,
      "componentType": 5126,
      "count": 38088,
      "max": [
        13.961601257324219,
        4.421305179595947,
        14.69792366027832
      ],
      "min": [
        -13.118712425231934,
        -0.08025561273097992,
        -11.694645881652832
      ],
      "name": "Scena_Material0/POSITION",
      "type": "VEC3"
    },
    {
      "bufferView": 8,
      "byteOffset": 12,
      "componentType": 5126,
      "count": 38088,
      "name": "Scena_Material0/NORMAL",
      "type": "VEC3"
    },
    {
      "bufferView": 8,
      "byteOffset": 24,
      "componentType": 5126,
      "count": 38088,
      "name": "Scena_Material0/TEXCOORD_0",
      "type": "VEC2"
    },
    {
      "bufferView": 9,
      "componentType": 5125,
      "count": 91050,
      "name": "Scena_Material0/INDICES",
      "type": "SCALAR"
    },
    {
      "bufferView": 10,
      "componentType": 5126,
      "count": 8004,
      "max": [
        12.547236442565918,
        2.4581925868988037,
        9.982254981994629
      ],
      "min": [
        -12.846288681030273,
        -0.009232980199158192,
        -9.590509414672852
      ],
      "name": "Scena_Material0/POSITION",
      "type": "VEC3"
    },
    {
      "bufferView": 10,
      "byteOffset": 12,
      "componentType": 5126,
      "count": 8004,
      "name": "Scena_Material0/NORMAL",
      "type": "VEC3"
    },
    {
      "bufferView": 10,
      "byteOffset": 24,
      "componentType": 5126,
      "count": 8004,
      "name": "Scena_Material0/TEXCOORD_0",
      "type": "VEC2"
    },
    {
      "bufferView": 11,
      "componentType": 5125,
      "count": 23697,
      "name": "Scena_Material0/INDICES",
      "type": "SCALAR"
    },
    {
      "bufferView": 12,
      "componentType": 5126,
      "count": 4692,
      "max": [
        2.669661521911621,
        4.729963302612305,
        -2.962188482284546
      ],
      "min": [
        -0.045928191393613815,
        -0.03885788097977638,
        -5.73202657699585
      ],
      "name": "Scena_Material0/POSITION",
      "type": "VEC3"
    },
    {
      "bufferView": 12,
      "byteOffset": 12,
      "componentType": 5126,
      "count": 4692,
      "name": "Scena_Material0/NORMAL",
      "type": "VEC3"
    },
    {
      "bufferView": 12,
      "byteOffset": 24,
      "componentType": 5126,
      "count": 4692,
      "name": "Scena_Material0/TEXCOORD_0",
      "type": "VEC2"
    },
    {
      "bufferView": 13,
      "componentType": 5125,
      "count": 8316,
      "name": "Scena_Material0/INDICES",
      "type": "SCALAR"
    },
    {
      "bufferView": 14,
      "componentType": 5126,
      "count": 623,
      "max": [
        11.521119117736816,
        2.0731887817382813,
        4.481695652008057
      ],
      "min": [
        -12.27275276184082,
        0.896731972694397,
        -5.403921127319336
      ],
      "name": "Scena_Material0/POSITION",
      "type": "VEC3"
    },
    {
      "bufferView": 14,
      "byteOffset": 12,
      "componentType": 5126,
      "count": 623,
      "name": "Scena_Material0/NORMAL",
      "type": "VEC3"
    },
    {
      "bufferView": 14,
      "byteOffset": 24,
      "componentType": 5126,
      "count": 623,
      "name": "Scena_Material0/TEXCOORD_0",
      "type": "VEC2"
    },
    {
      "bufferView": 15,
      "componentType": 5125,
      "count": 2520,
      "name": "Scena_Material0/INDICES",
      "type": "SCALAR"
    }
  ],
  "asset": {
    "copyright": "Copyright (c) 2018-2020 Chukong Technologies Inc.",
    "generator": "FBX-glTF-conv",
    "version": "2.0"
  },
  "bufferViews": [
    {
      "buffer": 0,
      "byteLength": 2560,
      "byteStride": 32,
      "name": "Ograda",
      "target": 34962
    },
    {
      "buffer": 0,
      "byteLength": 480,
      "byteOffset": 2560
    },
    {
      "buffer": 0,
      "byteLength": 212480,
      "byteOffset": 3040,
      "byteStride": 32,
      "name": "Pod_sa_putem_Material0",
      "target": 34962
    },
    {
      "buffer": 0,
      "byteLength": 43380,
      "byteOffset": 215520
    },
    {
      "buffer": 0,
      "byteLength": 5120,
      "byteOffset": 258900,
      "byteStride": 32,
      "name": "Pod_sa_putem_Material0",
      "target": 34962
    },
    {
      "buffer": 0,
      "byteLength": 1656,
      "byteOffset": 264020
    },
    {
      "buffer": 0,
      "byteLength": 1240320,
      "byteOffset": 265676,
      "byteStride": 32,
      "name": "Scena_Material0",
      "target": 34962
    },
    {
      "buffer": 0,
      "byteLength": 397680,
      "byteOffset": 1505996
    },
    {
      "buffer": 0,
      "byteLength": 1218816,
      "byteOffset": 1903676,
      "byteStride": 32,
      "name": "Scena_Material0",
      "target": 34962
    },
    {
      "buffer": 0,
      "byteLength": 364200,
      "byteOffset": 3122492
    },
    {
      "buffer": 0,
      "byteLength": 256128,
      "byteOffset": 3486692,
      "byteStride": 32,
      "name": "Scena_Material0",
      "target": 34962
    },
    {
      "buffer": 0,
      "byteLength": 94788,
      "byteOffset": 3742820
    },
    {
      "buffer": 0,
      "byteLength": 150144,
      "byteOffset": 3837608,
      "byteStride": 32,
      "name": "Scena_Material0",
      "target": 34962
    },
    {
      "buffer": 0,
      "byteLength": 33264,
      "byteOffset": 3987752
    },
    {
      "buffer": 0,
      "byteLength": 19936,
      "byteOffset": 4021016,
      "byteStride": 32,
      "name": "Scena_Material0",
      "target": 34962
    },
    {
      "buffer": 0,
      "byteLength": 10080,
      "byteOffset": 4040952
    }
  ],
  "buffers": [
    {
      "byteLength": 4051032,
      "uri": "out.bin"
    }
  ],
  "extras": {
    "FBX-glTF-conv": {
      "animationFrameRate": 24.0
    }
  },
  "images": [
    {
      "extras": {
        "FBX-glTF-conv": {
          "fileName": "/Users/aleksandarbedov/Documents/CocosCreator/tajanstvenesobe2/temp/asset-db/assets/fbx.FBX-glTF-conv/efd94e36-55a6-46bd-982f-4927a690a880/output/.fbm/875228D9/Razigrani grad.fbm/ograda.png",
          "relativeFileName": "../../../temp/asset-db/assets/fbx.FBX-glTF-conv/efd94e36-55a6-46bd-982f-4927a690a880/output/.fbm/875228D9/Razigrani grad.fbm/ograda.png"
        }
      },
      "name": "file1",
      "uri": "ograda.png"
    },
    {
      "extras": {
        "FBX-glTF-conv": {
          "fileName": "/Users/aleksandarbedov/Documents/CocosCreator/tajanstvenesobe2/temp/asset-db/assets/fbx.FBX-glTF-conv/efd94e36-55a6-46bd-982f-4927a690a880/output/.fbm/875228D9/Razigrani grad.fbm/Atlas-MiniToonStore_01.jpg",
          "relativeFileName": "../../../temp/asset-db/assets/fbx.FBX-glTF-conv/efd94e36-55a6-46bd-982f-4927a690a880/output/.fbm/875228D9/Razigrani grad.fbm/Atlas-MiniToonStore_01.jpg"
        }
      },
      "name": "Cartoon_shop:DiffuseColor_Texture",
      "uri": "Atlas-MiniToonStore_01.jpg"
    },
    {
      "extras": {
        "FBX-glTF-conv": {
          "fileName": "/Users/aleksandarbedov/Documents/CocosCreator/tajanstvenesobe2/temp/asset-db/assets/fbx.FBX-glTF-conv/efd94e36-55a6-46bd-982f-4927a690a880/output/.fbm/875228D9/Razigrani grad.fbm/T_BG_01_Diff.jpg",
          "relativeFileName": "../../../temp/asset-db/assets/fbx.FBX-glTF-conv/efd94e36-55a6-46bd-982f-4927a690a880/output/.fbm/875228D9/Razigrani grad.fbm/T_BG_01_Diff.jpg"
        }
      },
      "name": "Cartoon_shop:DiffuseColor_Texture_2",
      "uri": "T_BG_01_Diff.jpg"
    },
    {
      "extras": {
        "FBX-glTF-conv": {
          "fileName": "/Users/aleksandarbedov/Documents/CocosCreator/tajanstvenesobe2/temp/asset-db/assets/fbx.FBX-glTF-conv/efd94e36-55a6-46bd-982f-4927a690a880/output/.fbm/875228D9/Razigrani grad.fbm/Atlas-MiniToonStore_02.jpg",
          "relativeFileName": "../../../temp/asset-db/assets/fbx.FBX-glTF-conv/efd94e36-55a6-46bd-982f-4927a690a880/output/.fbm/875228D9/Razigrani grad.fbm/Atlas-MiniToonStore_02.jpg"
        }
      },
      "name": "Cartoon_shop:DiffuseColor_Texture_1",
      "uri": "Atlas-MiniToonStore_02.jpg"
    },
    {
      "extras": {
        "FBX-glTF-conv": {
          "fileName": "/Users/aleksandarbedov/Documents/CocosCreator/tajanstvenesobe2/temp/asset-db/assets/fbx.FBX-glTF-conv/efd94e36-55a6-46bd-982f-4927a690a880/output/.fbm/875228D9/Razigrani grad.fbm/Atlas-MiniToonStore_03.jpg",
          "relativeFileName": "../../../temp/asset-db/assets/fbx.FBX-glTF-conv/efd94e36-55a6-46bd-982f-4927a690a880/output/.fbm/875228D9/Razigrani grad.fbm/Atlas-MiniToonStore_03.jpg"
        }
      },
      "name": "Cartoon_shop:DiffuseColor_Texture_3",
      "uri": "Atlas-MiniToonStore_03.jpg"
    },
    {
      "extras": {
        "FBX-glTF-conv": {
          "fileName": "/Users/aleksandarbedov/Documents/CocosCreator/tajanstvenesobe2/temp/asset-db/assets/fbx.FBX-glTF-conv/efd94e36-55a6-46bd-982f-4927a690a880/output/.fbm/875228D9/Razigrani grad.fbm/BigClock.jpg",
          "relativeFileName": "../../../temp/asset-db/assets/fbx.FBX-glTF-conv/efd94e36-55a6-46bd-982f-4927a690a880/output/.fbm/875228D9/Razigrani grad.fbm/BigClock.jpg"
        }
      },
      "name": "Cartoon_shop:DiffuseColor_Texture_4",
      "uri": "BigClock.jpg"
    }
  ],
  "materials": [
    {
      "alphaMode": "BLEND",
      "name": "ograda",
      "pbrMetallicRoughness": {
        "baseColorFactor": [
          0.800000011920929,
          0.800000011920929,
          0.800000011920929,
          0.0
        ],
        "baseColorTexture": {
          "index": 0
        }
      }
    },
    {
      "name": "Cartoon_shop:Atlas_MiniToonStore_01",
      "pbrMetallicRoughness": {
        "baseColorTexture": {
          "index": 1
        }
      }
    },
    {
      "name": "Cartoon_shop:T_BG_01_Diff",
      "pbrMetallicRoughness": {
        "baseColorTexture": {
          "index": 2
        }
      }
    },
    {
      "name": "Cartoon_shop:Atlas_MiniToonStore_02",
      "pbrMetallicRoughness": {
        "baseColorTexture": {
          "index": 3
        }
      }
    },
    {
      "name": "Cartoon_shop:Atlas_MiniToonStore_03",
      "pbrMetallicRoughness": {
        "baseColorTexture": {
          "index": 4
        }
      }
    },
    {
      "name": "Cartoon_shop:BigClock",
      "pbrMetallicRoughness": {
        "baseColorTexture": {
          "index": 5
        }
      }
    },
    {
      "name": "Cartoon_shop:Transparent_Part",
      "pbrMetallicRoughness": {
        "baseColorTexture": {
          "index": 4
        }
      }
    }
  ],
  "meshes": [
    {
      "name": "Ograda",
      "primitives": [
        {
          "attributes": {
            "NORMAL": 1,
            "POSITION": 0,
            "TEXCOORD_0": 2
          },
          "indices": 3,
          "material": 0
        }
      ]
    },
    {
      "name": "Pod_sa_putem_Material0",
      "primitives": [
        {
          "attributes": {
            "NORMAL": 5,
            "POSITION": 4,
            "TEXCOORD_0": 6
          },
          "indices": 7,
          "material": 1
        },
        {
          "attributes": {
            "NORMAL": 9,
            "POSITION": 8,
            "TEXCOORD_0": 10
          },
          "indices": 11,
          "material": 2
        }
      ]
    },
    {
      "name": "Scena_Material0",
      "primitives": [
        {
          "attributes": {
            "NORMAL": 13,
            "POSITION": 12,
            "TEXCOORD_0": 14
          },
          "indices": 15,
          "material": 1
        },
        {
          "attributes": {
            "NORMAL": 17,
            "POSITION": 16,
            "TEXCOORD_0": 18
          },
          "indices": 19,
          "material": 3
        },
        {
          "attributes": {
            "NORMAL": 21,
            "POSITION": 20,
            "TEXCOORD_0": 22
          },
          "indices": 23,
          "material": 4
        },
        {
          "attributes": {
            "NORMAL": 25,
            "POSITION": 24,
            "TEXCOORD_0": 26
          },
          "indices": 27,
          "material": 5
        },
        {
          "attributes": {
            "NORMAL": 29,
            "POSITION": 28,
            "TEXCOORD_0": 30
          },
          "indices": 31,
          "material": 6
        }
      ]
    }
  ],
  "nodes": [
    {
      "mesh": 0,
      "name": "Ograda",
      "scale": [
        1.042614459991455,
        1.042614459991455,
        1.042614459991455
      ],
      "translation": [
        0.0,
        -8.825660705566406,
        0.0883576050400734
      ]
    },
    {
      "mesh": 1,
      "name": "Pod_sa_putem"
    },
    {
      "mesh": 2,
      "name": "Scena"
    }
  ],
  "samplers": [
    {}
  ],
  "scenes": [
    {
      "nodes": [
        0,
        1,
        2
      ]
    }
  ],
  "textures": [
    {
      "name": "file1",
      "sampler": 0,
      "source": 0
    },
    {
      "name": "Cartoon_shop:DiffuseColor_Texture",
      "sampler": 0,
      "source": 1
    },
    {
      "name": "Cartoon_shop:DiffuseColor_Texture_2",
      "sampler": 0,
      "source": 2
    },
    {
      "name": "Cartoon_shop:DiffuseColor_Texture_1",
      "sampler": 0,
      "source": 3
    },
    {
      "name": "Cartoon_shop:DiffuseColor_Texture_3",
      "sampler": 0,
      "source": 4
    },
    {
      "name": "Cartoon_shop:DiffuseColor_Texture_4",
      "sampler": 0,
      "source": 5
    }
  ]
}