{"buffers":[{"uri":"out.bin","byteLength":3821468}],"asset":{"version":"2.0","generator":"gltfpack 0.14"},"bufferViews":[{"buffer":0,"byteOffset":0,"byteLength":1231608,"byteStride":12,"target":34962},{"buffer":0,"byteOffset":1231608,"byteLength":1231608,"byteStride":12,"target":34962},{"buffer":0,"byteOffset":2463216,"byteLength":820560,"byteStride":8,"target":34962},{"buffer":0,"byteOffset":3283776,"byteLength":513900,"target":34963},{"buffer":0,"byteOffset":3797676,"byteLength":9132,"byteStride":4,"target":34962},{"buffer":0,"byteOffset":3806808,"byteLength":9132,"byteStride":4,"target":34962},{"buffer":0,"byteOffset":3815940,"byteLength":128},{"buffer":0,"byteOffset":3816068,"byteLength":600},{"buffer":0,"byteOffset":3816668,"byteLength":1800},{"buffer":0,"byteOffset":3818468,"byteLength":1200},{"buffer":0,"byteOffset":3819668,"byteLength":1800}],"accessors":[{"bufferView":0,"byteOffset":0,"componentType":5126,"count":6554,"type":"VEC3"},{"bufferView":1,"byteOffset":0,"componentType":5126,"count":6554,"type":"VEC3","min":[-2.72396779,-0.0844001696,-16.6907501],"max":[18.5697136,0.880294621,18.3133163]},{"bufferView":2,"byteOffset":0,"componentType":5126,"count":6554,"type":"VEC2"},{"bufferView":3,"byteOffset":0,"componentType":5123,"count":9441,"type":"SCALAR"},{"bufferView":0,"byteOffset":78648,"componentType":5126,"count":4328,"type":"VEC3"},{"bufferView":1,"byteOffset":78648,"componentType":5126,"count":4328,"type":"VEC3","min":[-11.0038586,-0.065858759,-4.31981802],"max":[15.4302998,8.66993046,15.6808596]},{"bufferView":2,"byteOffset":52432,"componentType":5126,"count":4328,"type":"VEC2"},{"bufferView":3,"byteOffset":18882,"componentType":5123,"count":9564,"type":"SCALAR"},{"bufferView":0,"byteOffset":130584,"componentType":5126,"count":607,"type":"VEC3"},{"bufferView":1,"byteOffset":130584,"componentType":5126,"count":607,"type":"VEC3","min":[-11.4713087,-0.0367416367,-4.7123189],"max":[-3.41731119,8.37701225,19.2987843]},{"bufferView":2,"byteOffset":87056,"componentType":5126,"count":607,"type":"VEC2"},{"bufferView":3,"byteOffset":38010,"componentType":5123,"count":1665,"type":"SCALAR"},{"bufferView":0,"byteOffset":137868,"componentType":5126,"count":117,"type":"VEC3"},{"bufferView":1,"byteOffset":137868,"componentType":5126,"count":117,"type":"VEC3","min":[-5.20565891,0.804395676,17.8812103],"max":[-4.21721363,1.45910966,18.6282883]},{"bufferView":2,"byteOffset":91912,"componentType":5126,"count":117,"type":"VEC2"},{"bufferView":3,"byteOffset":41340,"componentType":5123,"count":618,"type":"SCALAR"},{"bufferView":4,"byteOffset":0,"componentType":5121,"count":1250,"type":"VEC4"},{"bufferView":0,"byteOffset":139272,"componentType":5126,"count":1250,"type":"VEC3"},{"bufferView":1,"byteOffset":139272,"componentType":5126,"count":1250,"type":"VEC3","min":[-0.924694836,-0.00999130215,-0.924694836],"max":[0.924694836,2.85186195,0.924695134]},{"bufferView":2,"byteOffset":92848,"componentType":5126,"count":1250,"type":"VEC2"},{"bufferView":5,"byteOffset":0,"componentType":5121,"count":1250,"type":"VEC4","normalized":true},{"bufferView":3,"byteOffset":42576,"componentType":5123,"count":3444,"type":"SCALAR"},{"bufferView":4,"byteOffset":5000,"componentType":5121,"count":1033,"type":"VEC4"},{"bufferView":0,"byteOffset":154272,"componentType":5126,"count":1033,"type":"VEC3"},{"bufferView":1,"byteOffset":154272,"componentType":5126,"count":1033,"type":"VEC3","min":[-0.442647696,0.205720171,-0.437909096],"max":[0.447413325,0.549876273,0.471273184]},{"bufferView":2,"byteOffset":102848,"componentType":5126,"count":1033,"type":"VEC2"},{"bufferView":5,"byteOffset":5000,"componentType":5121,"count":1033,"type":"VEC4","normalized":true},{"bufferView":3,"byteOffset":49464,"componentType":5123,"count":3690,"type":"SCALAR"},{"bufferView":0,"byteOffset":166668,"componentType":5126,"count":197,"type":"VEC3"},{"bufferView":1,"byteOffset":166668,"componentType":5126,"count":197,"type":"VEC3","min":[9.12063694,1.02263951,12.9677296],"max":[9.25842857,1.76620364,13.7135649]},{"bufferView":2,"byteOffset":111112,"componentType":5126,"count":197,"type":"VEC2"},{"bufferView":3,"byteOffset":56844,"componentType":5123,"count":858,"type":"SCALAR"},{"bufferView":0,"byteOffset":169032,"componentType":5126,"count":8808,"type":"VEC3"},{"bufferView":1,"byteOffset":169032,"componentType":5126,"count":8808,"type":"VEC3","min":[-7.56130981,-0.03297548,-5.91078234],"max":[9.94793606,2.24413323,15.0469723]},{"bufferView":2,"byteOffset":112688,"componentType":5126,"count":8808,"type":"VEC2"},{"bufferView":3,"byteOffset":58560,"componentType":5123,"count":28662,"type":"SCALAR"},{"bufferView":0,"byteOffset":274728,"componentType":5126,"count":12300,"type":"VEC3"},{"bufferView":1,"byteOffset":274728,"componentType":5126,"count":12300,"type":"VEC3","min":[-27.0314102,-1.02716482,-27.5448437],"max":[28.3753567,7.68109369,26.9529934]},{"bufferView":2,"byteOffset":183152,"componentType":5126,"count":12300,"type":"VEC2"},{"bufferView":3,"byteOffset":115884,"componentType":5123,"count":34131,"type":"SCALAR"},{"bufferView":0,"byteOffset":422328,"componentType":5126,"count":7940,"type":"VEC3"},{"bufferView":1,"byteOffset":422328,"componentType":5126,"count":7940,"type":"VEC3","min":[-14.5814438,-0.181225777,-18.2019558],"max":[20.9031181,3.99387574,22.4598503]},{"bufferView":2,"byteOffset":281552,"componentType":5126,"count":7940,"type":"VEC2"},{"bufferView":3,"byteOffset":184146,"componentType":5123,"count":27339,"type":"SCALAR"},{"bufferView":0,"byteOffset":517608,"componentType":5126,"count":298,"type":"VEC3"},{"bufferView":1,"byteOffset":517608,"componentType":5126,"count":298,"type":"VEC3","min":[-0.292872459,0.180420145,-5.62665033],"max":[3.99027729,1.33373106,0.476175845]},{"bufferView":2,"byteOffset":345072,"componentType":5126,"count":298,"type":"VEC2"},{"bufferView":3,"byteOffset":238824,"componentType":5123,"count":1566,"type":"SCALAR"},{"bufferView":0,"byteOffset":521184,"componentType":5126,"count":3122,"type":"VEC3"},{"bufferView":1,"byteOffset":521184,"componentType":5126,"count":3122,"type":"VEC3","min":[0.255188495,-0.0749726072,-5.87659788],"max":[6.12476683,1.04080892,5.27497149]},{"bufferView":2,"byteOffset":347456,"componentType":5126,"count":3122,"type":"VEC2"},{"bufferView":3,"byteOffset":241956,"componentType":5123,"count":13140,"type":"SCALAR"},{"bufferView":0,"byteOffset":558648,"componentType":5126,"count":39064,"type":"VEC3"},{"bufferView":1,"byteOffset":558648,"componentType":5126,"count":39064,"type":"VEC3","min":[-21.8105698,-0.160519108,-22.5363007],"max":[22.1638947,4.65801382,21.4818649]},{"bufferView":2,"byteOffset":372432,"componentType":5126,"count":39064,"type":"VEC2"},{"bufferView":3,"byteOffset":268236,"componentType":5123,"count":84705,"type":"SCALAR"},{"bufferView":0,"byteOffset":1027416,"componentType":5126,"count":1571,"type":"VEC3"},{"bufferView":1,"byteOffset":1027416,"componentType":5126,"count":1571,"type":"VEC3","min":[-8.60618877,-0.019940706,5.76129389],"max":[-5.54967976,4.49469805,10.3964891]},{"bufferView":2,"byteOffset":684944,"componentType":5126,"count":1571,"type":"VEC2"},{"bufferView":3,"byteOffset":437646,"componentType":5123,"count":2847,"type":"SCALAR"},{"bufferView":0,"byteOffset":1046268,"componentType":5126,"count":64,"type":"VEC3"},{"bufferView":1,"byteOffset":1046268,"componentType":5126,"count":64,"type":"VEC3","min":[-4.98833609,1.38122118,1.35306716],"max":[12.6419859,1.66650081,10.1586323]},{"bufferView":3,"byteOffset":443340,"componentType":5123,"count":96,"type":"SCALAR"},{"bufferView":0,"byteOffset":1047036,"componentType":5126,"count":960,"type":"VEC3"},{"bufferView":1,"byteOffset":1047036,"componentType":5126,"count":960,"type":"VEC3","min":[9.28672981,-0.00312586594,-3.29619837],"max":[12.5291195,1.57295644,-0.579045892]},{"bufferView":2,"byteOffset":697512,"componentType":5126,"count":960,"type":"VEC2"},{"bufferView":3,"byteOffset":443532,"componentType":5123,"count":2022,"type":"SCALAR"},{"bufferView":0,"byteOffset":1058556,"componentType":5126,"count":517,"type":"VEC3"},{"bufferView":1,"byteOffset":1058556,"componentType":5126,"count":517,"type":"VEC3","min":[-8.82414627,0.000583899033,13.9482508],"max":[-6.11923504,1.51040816,16.2273121]},{"bufferView":2,"byteOffset":705192,"componentType":5126,"count":517,"type":"VEC2"},{"bufferView":3,"byteOffset":447576,"componentType":5123,"count":1065,"type":"SCALAR"},{"bufferView":0,"byteOffset":1064760,"componentType":5126,"count":1330,"type":"VEC3"},{"bufferView":1,"byteOffset":1064760,"componentType":5126,"count":1330,"type":"VEC3","min":[6.33603191,-0.00117217214,17.7860527],"max":[8.14356995,1.53613651,20.1294537]},{"bufferView":2,"byteOffset":709328,"componentType":5126,"count":1330,"type":"VEC2"},{"bufferView":3,"byteOffset":449706,"componentType":5123,"count":3060,"type":"SCALAR"},{"bufferView":0,"byteOffset":1080720,"componentType":5126,"count":725,"type":"VEC3"},{"bufferView":1,"byteOffset":1080720,"componentType":5126,"count":725,"type":"VEC3","min":[12.2810411,-0.00317965215,12.2520361],"max":[14.7042007,1.69411612,14.3081131]},{"bufferView":2,"byteOffset":719968,"componentType":5126,"count":725,"type":"VEC2"},{"bufferView":3,"byteOffset":455826,"componentType":5123,"count":1413,"type":"SCALAR"},{"bufferView":0,"byteOffset":1089420,"componentType":5126,"count":649,"type":"VEC3"},{"bufferView":1,"byteOffset":1089420,"componentType":5126,"count":649,"type":"VEC3","min":[17.3267593,0.0818033591,1.70730639],"max":[20.4104156,1.7528311,4.44210386]},{"bufferView":2,"byteOffset":725768,"componentType":5126,"count":649,"type":"VEC2"},{"bufferView":3,"byteOffset":458652,"componentType":5123,"count":1191,"type":"SCALAR"},{"bufferView":0,"byteOffset":1097208,"componentType":5126,"count":466,"type":"VEC3"},{"bufferView":1,"byteOffset":1097208,"componentType":5126,"count":466,"type":"VEC3","min":[-0.614946067,-0.00271679112,18.8062115],"max":[2.09717536,1.57352996,20.2002716]},{"bufferView":2,"byteOffset":730960,"componentType":5126,"count":466,"type":"VEC2"},{"bufferView":3,"byteOffset":461034,"componentType":5123,"count":1137,"type":"SCALAR"},{"bufferView":0,"byteOffset":1102800,"componentType":5126,"count":2472,"type":"VEC3"},{"bufferView":1,"byteOffset":1102800,"componentType":5126,"count":2472,"type":"VEC3","min":[-0.981658399,-0.00412200391,-8.74121571],"max":[4.79662418,0.691410005,20.7975636]},{"bufferView":2,"byteOffset":734688,"componentType":5126,"count":2472,"type":"VEC2"},{"bufferView":3,"byteOffset":463308,"componentType":5123,"count":3888,"type":"SCALAR"},{"bufferView":0,"byteOffset":1132464,"componentType":5126,"count":547,"type":"VEC3"},{"bufferView":1,"byteOffset":1132464,"componentType":5126,"count":547,"type":"VEC3","min":[2.57829571,0.000781450479,-8.2455759],"max":[4.31025648,1.88247526,-6.5574131]},{"bufferView":2,"byteOffset":754464,"componentType":5126,"count":547,"type":"VEC2"},{"bufferView":3,"byteOffset":471084,"componentType":5123,"count":1194,"type":"SCALAR"},{"bufferView":0,"byteOffset":1139028,"componentType":5126,"count":639,"type":"VEC3"},{"bufferView":1,"byteOffset":1139028,"componentType":5126,"count":639,"type":"VEC3","min":[-4.08222914,-0.0908831432,-3.81035399],"max":[-0.875570834,2.24645972,-0.693878472]},{"bufferView":2,"byteOffset":758840,"componentType":5126,"count":639,"type":"VEC2"},{"bufferView":3,"byteOffset":473472,"componentType":5123,"count":1416,"type":"SCALAR"},{"bufferView":0,"byteOffset":1146696,"componentType":5126,"count":875,"type":"VEC3"},{"bufferView":1,"byteOffset":1146696,"componentType":5126,"count":875,"type":"VEC3","min":[-6.8481307,-0.00126546319,10.7442064],"max":[-4.96256065,1.53795993,13.5801086]},{"bufferView":2,"byteOffset":763952,"componentType":5126,"count":875,"type":"VEC2"},{"bufferView":3,"byteOffset":476304,"componentType":5123,"count":1908,"type":"SCALAR"},{"bufferView":0,"byteOffset":1157196,"componentType":5126,"count":1645,"type":"VEC3"},{"bufferView":1,"byteOffset":1157196,"componentType":5126,"count":1645,"type":"VEC3","min":[-10.2169561,-0.154190451,-9.34434795],"max":[3.67447567,3.46530294,16.816164]},{"bufferView":2,"byteOffset":770952,"componentType":5126,"count":1645,"type":"VEC2"},{"bufferView":3,"byteOffset":480120,"componentType":5123,"count":7119,"type":"SCALAR"},{"bufferView":0,"byteOffset":1176936,"componentType":5126,"count":219,"type":"VEC3"},{"bufferView":1,"byteOffset":1176936,"componentType":5126,"count":219,"type":"VEC3","min":[1.62183321,-0.0243088696,-0.468518913],"max":[1.93864703,0.581734061,1.02224553]},{"bufferView":2,"byteOffset":784112,"componentType":5126,"count":219,"type":"VEC2"},{"bufferView":3,"byteOffset":494358,"componentType":5123,"count":798,"type":"SCALAR"},{"bufferView":0,"byteOffset":1179564,"componentType":5126,"count":675,"type":"VEC3"},{"bufferView":1,"byteOffset":1179564,"componentType":5126,"count":675,"type":"VEC3","min":[-11.6477175,-0.0587689057,-6.73838758],"max":[4.95435476,1.53663349,17.2140656]},{"bufferView":2,"byteOffset":785864,"componentType":5126,"count":675,"type":"VEC2"},{"bufferView":3,"byteOffset":495954,"componentType":5123,"count":2664,"type":"SCALAR"},{"bufferView":0,"byteOffset":1187664,"componentType":5126,"count":3479,"type":"VEC3"},{"bufferView":1,"byteOffset":1187664,"componentType":5126,"count":3479,"type":"VEC3","min":[-9.55853653,-0.0426758565,-4.86037636],"max":[17.287466,0.0709611997,18.3916626]},{"bufferView":2,"byteOffset":791264,"componentType":5126,"count":3479,"type":"VEC2"},{"bufferView":3,"byteOffset":501282,"componentType":5123,"count":5337,"type":"SCALAR"},{"bufferView":0,"byteOffset":1229412,"componentType":5126,"count":183,"type":"VEC3"},{"bufferView":1,"byteOffset":1229412,"componentType":5126,"count":183,"type":"VEC3","min":[-27.6394806,-2.0042963,-27.6562214],"max":[27.6804276,-0.00300891628,27.6636772]},{"bufferView":2,"byteOffset":819096,"componentType":5126,"count":183,"type":"VEC2"},{"bufferView":3,"byteOffset":511956,"componentType":5123,"count":972,"type":"SCALAR"},{"bufferView":6,"byteOffset":0,"componentType":5126,"count":2,"type":"MAT4"},{"bufferView":7,"byteOffset":0,"componentType":5126,"count":150,"type":"SCALAR","min":[0],"max":[4.9666667]},{"bufferView":8,"byteOffset":0,"componentType":5126,"count":150,"type":"VEC3"},{"bufferView":9,"byteOffset":0,"componentType":5122,"count":150,"type":"VEC4","normalized":true},{"bufferView":10,"byteOffset":0,"componentType":5126,"count":150,"type":"VEC3"}],"images":[{"uri":"Atlas_Xmas_Plants.png"},{"uri":"Atlas_Xmas_Plants.png"},{"uri":"Atlas_Xmas_Items_02-edited-s-koracima.png"},{"uri":"Novi-za-Circus.png"},{"uri":"Snow_Man_02.png"},{"uri":"Atlas_Xmas_Items_01.png"},{"uri":"elf-rudoft-ginger-gift.png"},{"uri":"Curve_Candy_01.png"},{"uri":"ChristmasBarn.png"},{"uri":"House_10-.png"},{"uri":"House_04_Diff.png"},{"uri":"House_08.png"},{"uri":"House_09-.png"},{"uri":"House_07_Diff.png"},{"uri":"House_05_Diff.png"},{"uri":"T_Gate_Diff.png"},{"uri":"House_02_Diff.png"},{"uri":"House_06_Diff.png"},{"uri":"House_01_Diff.png"},{"uri":"Santa_01.png"},{"uri":"Snow_Man_01.png"},{"uri":"Road1-.png"},{"uri":"T_BG_01_Diff.png"}],"textures":[{"source":0},{"source":1},{"source":2},{"source":3},{"source":4},{"source":5},{"source":6},{"source":7},{"source":8},{"source":9},{"source":10},{"source":11},{"source":12},{"source":13},{"source":14},{"source":15},{"source":16},{"source":17},{"source":18},{"source":19},{"source":20},{"source":21},{"source":22}],"materials":[{"name":"Atlas_Xmas_Plants","pbrMetallicRoughness":{"baseColorFactor":[1,1,1,0],"baseColorTexture":{"index":1,"texCoord":0}},"alphaMode":"BLEND"},{"name":"Atlas_Xmas_Items_02","pbrMetallicRoughness":{"baseColorFactor":[1,1,1,0],"baseColorTexture":{"index":2,"texCoord":0}},"alphaMode":"BLEND"},{"name":"Atlas_Xmas_Mountain_Buildings","pbrMetallicRoughness":{"baseColorTexture":{"index":3,"texCoord":0}}},{"name":"Snow_Man_02","pbrMetallicRoughness":{"baseColorTexture":{"index":4,"texCoord":0}}},{"name":"Atlas_Xmas_Items_01","pbrMetallicRoughness":{"baseColorTexture":{"index":5,"texCoord":0}}},{"name":"elf_rudoft_ginger_gift","pbrMetallicRoughness":{"baseColorFactor":[1,1,1,0],"baseColorTexture":{"index":6,"texCoord":0}},"alphaMode":"BLEND"},{"name":"Curve_Candy_01","pbrMetallicRoughness":{"baseColorTexture":{"index":7,"texCoord":6}}},{"name":"ChristmasBarn","pbrMetallicRoughness":{"baseColorTexture":{"index":8,"texCoord":11}}},{"name":"phong1","pbrMetallicRoughness":{"baseColorFactor":[0.400000006,0.400000006,0.400000006,0.362595439],"metallicFactor":0.400000006,"roughnessFactor":0.301511347},"alphaMode":"BLEND"},{"name":"House_10_","pbrMetallicRoughness":{"baseColorTexture":{"index":9,"texCoord":7}}},{"name":"House_04_Diff","pbrMetallicRoughness":{"baseColorTexture":{"index":10,"texCoord":5}}},{"name":"House_08","pbrMetallicRoughness":{"baseColorTexture":{"index":11,"texCoord":20}}},{"name":"House_09_","pbrMetallicRoughness":{"baseColorTexture":{"index":12,"texCoord":19}}},{"name":"House_07_Diff","pbrMetallicRoughness":{"baseColorTexture":{"index":13,"texCoord":18}}},{"name":"House_05_Diff","pbrMetallicRoughness":{"baseColorTexture":{"index":14,"texCoord":13}}},{"name":"T_Gate_Diff","pbrMetallicRoughness":{"baseColorTexture":{"index":15,"texCoord":14}}},{"name":"House_02_Diff","pbrMetallicRoughness":{"baseColorTexture":{"index":16,"texCoord":8}}},{"name":"House_06_Diff","pbrMetallicRoughness":{"baseColorTexture":{"index":17,"texCoord":15}}},{"name":"House_01_Diff","pbrMetallicRoughness":{"baseColorTexture":{"index":18,"texCoord":16}}},{"name":"Santa_01","pbrMetallicRoughness":{"baseColorTexture":{"index":19,"texCoord":12}}},{"name":"Snow_Man_01","pbrMetallicRoughness":{"baseColorTexture":{"index":20,"texCoord":10}}},{"name":"Road1_","pbrMetallicRoughness":{"baseColorTexture":{"index":21,"texCoord":0}}},{"name":"T_BG_01_Diff","pbrMetallicRoughness":{"baseColorTexture":{"index":22,"texCoord":0}}}],"meshes":[{"primitives":[{"attributes":{"NORMAL":0,"POSITION":1,"TEXCOORD_0":2},"mode":4,"indices":3,"material":0},{"attributes":{"NORMAL":4,"POSITION":5,"TEXCOORD_0":6},"mode":4,"indices":7,"material":1},{"attributes":{"NORMAL":8,"POSITION":9,"TEXCOORD_0":10},"mode":4,"indices":11,"material":2},{"attributes":{"NORMAL":12,"POSITION":13,"TEXCOORD_0":14},"mode":4,"indices":15,"material":3}]},{"primitives":[{"attributes":{"JOINTS_0":16,"NORMAL":17,"POSITION":18,"TEXCOORD_0":19,"WEIGHTS_0":20},"mode":4,"indices":21,"material":4},{"attributes":{"JOINTS_0":22,"NORMAL":23,"POSITION":24,"TEXCOORD_0":25,"WEIGHTS_0":26},"mode":4,"indices":27,"material":1}]},{"primitives":[{"attributes":{"NORMAL":28,"POSITION":29,"TEXCOORD_0":30},"mode":4,"indices":31,"material":5},{"attributes":{"NORMAL":32,"POSITION":33,"TEXCOORD_0":34},"mode":4,"indices":35,"material":4},{"attributes":{"NORMAL":36,"POSITION":37,"TEXCOORD_0":38},"mode":4,"indices":39,"material":2},{"attributes":{"NORMAL":40,"POSITION":41,"TEXCOORD_0":42},"mode":4,"indices":43,"material":0},{"attributes":{"NORMAL":44,"POSITION":45,"TEXCOORD_6":46},"mode":4,"indices":47,"material":6},{"attributes":{"NORMAL":48,"POSITION":49,"TEXCOORD_0":50},"mode":4,"indices":51,"material":5},{"attributes":{"NORMAL":52,"POSITION":53,"TEXCOORD_0":54},"mode":4,"indices":55,"material":1},{"attributes":{"NORMAL":56,"POSITION":57,"TEXCOORD_11":58},"mode":4,"indices":59,"material":7},{"attributes":{"NORMAL":60,"POSITION":61},"mode":4,"indices":62,"material":8},{"attributes":{"NORMAL":63,"POSITION":64,"TEXCOORD_7":65},"mode":4,"indices":66,"material":9},{"attributes":{"NORMAL":67,"POSITION":68,"TEXCOORD_5":69},"mode":4,"indices":70,"material":10},{"attributes":{"NORMAL":71,"POSITION":72,"TEXCOORD_20":73},"mode":4,"indices":74,"material":11},{"attributes":{"NORMAL":75,"POSITION":76,"TEXCOORD_19":77},"mode":4,"indices":78,"material":12},{"attributes":{"NORMAL":79,"POSITION":80,"TEXCOORD_18":81},"mode":4,"indices":82,"material":13},{"attributes":{"NORMAL":83,"POSITION":84,"TEXCOORD_13":85},"mode":4,"indices":86,"material":14},{"attributes":{"NORMAL":87,"POSITION":88,"TEXCOORD_14":89},"mode":4,"indices":90,"material":15},{"attributes":{"NORMAL":91,"POSITION":92,"TEXCOORD_8":93},"mode":4,"indices":94,"material":16},{"attributes":{"NORMAL":95,"POSITION":96,"TEXCOORD_15":97},"mode":4,"indices":98,"material":17},{"attributes":{"NORMAL":99,"POSITION":100,"TEXCOORD_16":101},"mode":4,"indices":102,"material":18},{"attributes":{"NORMAL":103,"POSITION":104,"TEXCOORD_0":105},"mode":4,"indices":106,"material":3},{"attributes":{"NORMAL":107,"POSITION":108,"TEXCOORD_12":109},"mode":4,"indices":110,"material":19},{"attributes":{"NORMAL":111,"POSITION":112,"TEXCOORD_10":113},"mode":4,"indices":114,"material":20},{"attributes":{"NORMAL":115,"POSITION":116,"TEXCOORD_0":117},"mode":4,"indices":118,"material":21},{"attributes":{"NORMAL":119,"POSITION":120,"TEXCOORD_0":121},"mode":4,"indices":122,"material":22}]}],"skins":[{"joints":[4,5],"inverseBindMatrices":123}],"animations":[{"name":"Take 001","samplers":[{"input":124,"output":125},{"input":124,"output":126},{"input":124,"output":127}],"channels":[{"sampler":0,"target":{"node":4,"path":"translation"}},{"sampler":1,"target":{"node":5,"path":"rotation"}},{"sampler":2,"target":{"node":5,"path":"scale"}}]}],"nodes":[{"mesh":0},{"mesh":1,"skin":0},{"mesh":2},{"name":"Balon","translation":[1.83465898,0.532838702,12.2645683],"children":[4,1]},{"name":"joint1","translation":[0.0194908734,0.0546479374,-0.0863702372],"children":[5]},{"name":"joint2","translation":[0,0.970720768,0],"rotation":[0,0,0.0192920025,0.999813914]}],"scenes":[{"nodes":[0,2,3]}],"scene":0}