{
  "accessors": [
    {
      "bufferView": 0,
      "componentType": 5126,
      "count": 914,
      "max": [
        -0.05634293705224991,
        0.0042587039060890675,
        -0.040140412747859955
      ],
      "min": [
        -0.07336154580116272,
        0.0025862136390060186,
        -0.048414334654808044
      ],
      "name": "Samo_boce/POSITION",
      "type": "VEC3"
    },
    {
      "bufferView": 0,
      "byteOffset": 12,
      "componentType": 5126,
      "count": 914,
      "name": "Samo_boce/NORMAL",
      "type": "VEC3"
    },
    {
      "bufferView": 0,
      "byteOffset": 24,
      "componentType": 5126,
      "count": 914,
      "name": "Samo_boce/TEXCOORD_0",
      "type": "VEC2"
    },
    {
      "bufferView": 1,
      "componentType": 5125,
      "count": 5094,
      "name": "Samo_boce/INDICES",
      "type": "SCALAR"
    }
  ],
  "asset": {
    "copyright": "Copyright (c) 2018-2020 Chukong Technologies Inc.",
    "generator": "FBX-glTF-conv",
    "version": "2.0"
  },
  "bufferViews": [
    {
      "buffer": 0,
      "byteLength": 29248,
      "byteStride": 32,
      "name": "Samo_boce",
      "target": 34962
    },
    {
      "buffer": 0,
      "byteLength": 20376,
      "byteOffset": 29248
    }
  ],
  "buffers": [
    {
      "byteLength": 49624,
      "uri": "out.bin"
    }
  ],
  "extras": {
    "FBX-glTF-conv": {
      "animationFrameRate": 24.0
    }
  },
  "images": [
    {
      "extras": {
        "FBX-glTF-conv": {
          "fileName": "S:/STICK$ROPE/Klett/FINALE/Cocos/Srednjevekovna 3. mart PIVOTs.fbm/Medieval_Obj edited 8bit.png",
          "relativeFileName": "..\\..\\Cocos\\Srednjevekovna 3. mart PIVOTs.fbm\\Medieval_Obj edited 8bit.png"
        }
      },
      "name": "NOVA_Sredjnevekovna_scena_62_Cocos_combined_14:DiffuseColor_Texture",
      "uri": "data:image/png;base64,"
    }
  ],
  "materials": [
    {
      "alphaMode": "BLEND",
      "name": "NOVA_Sredjnevekovna_scena_62_Cocos_combined_14:Medieval_Obj",
      "pbrMetallicRoughness": {
        "baseColorFactor": [
          1.0,
          1.0,
          1.0,
          0.0
        ],
        "baseColorTexture": {
          "index": 0
        }
      }
    }
  ],
  "meshes": [
    {
      "name": "Samo_boce",
      "primitives": [
        {
          "attributes": {
            "NORMAL": 1,
            "POSITION": 0,
            "TEXCOORD_0": 2
          },
          "indices": 3,
          "material": 0
        }
      ]
    }
  ],
  "nodes": [
    {
      "mesh": 0,
      "name": "Samo_boce"
    }
  ],
  "samplers": [
    {}
  ],
  "scenes": [
    {
      "nodes": [
        0
      ]
    }
  ],
  "textures": [
    {
      "name": "NOVA_Sredjnevekovna_scena_62_Cocos_combined_14:DiffuseColor_Texture",
      "sampler": 0,
      "source": 0
    }
  ]
}