{
  "accessors": [
    {
      "bufferView": 0,
      "componentType": 5126,
      "count": 645,
      "max": [
        0.005630753468722105,
        0.020007595419883728,
        0.008430255576968193
      ],
      "min": [
        -0.005630753468722105,
        9.992007618673103e-18,
        -0.007898356765508652
      ],
      "name": "SE_Chicken_01/POSITION",
      "type": "VEC3"
    },
    {
      "bufferView": 0,
      "byteOffset": 12,
      "componentType": 5126,
      "count": 645,
      "name": "SE_Chicken_01/NORMAL",
      "type": "VEC3"
    },
    {
      "bufferView": 0,
      "byteOffset": 24,
      "componentType": 5126,
      "count": 645,
      "name": "SE_Chicken_01/TEXCOORD_0",
      "type": "VEC2"
    },
    {
      "bufferView": 0,
      "byteOffset": 32,
      "componentType": 5123,
      "count": 645,
      "name": "SE_Chicken_01/JOINTS_0",
      "type": "VEC4"
    },
    {
      "bufferView": 0,
      "byteOffset": 40,
      "componentType": 5126,
      "count": 645,
      "name": "SE_Chicken_01/WEIGHTS_0",
      "type": "VEC4"
    },
    {
      "bufferView": 0,
      "byteOffset": 56,
      "componentType": 5123,
      "count": 645,
      "name": "SE_Chicken_01/JOINTS_1",
      "type": "VEC4"
    },
    {
      "bufferView": 0,
      "byteOffset": 64,
      "componentType": 5126,
      "count": 645,
      "name": "SE_Chicken_01/WEIGHTS_1",
      "type": "VEC4"
    },
    {
      "bufferView": 1,
      "componentType": 5125,
      "count": 2682,
      "name": "SE_Chicken_01/INDICES",
      "type": "SCALAR"
    },
    {
      "bufferView": 2,
      "componentType": 5126,
      "count": 16,
      "name": "/InverseBindMatrices",
      "type": "MAT4"
    },
    {
      "bufferView": 3,
      "componentType": 5126,
      "count": 53,
      "max": [
        8.333333015441895
      ],
      "min": [
        0.0
      ],
      "name": "Hips/Trs/Input",
      "type": "SCALAR"
    },
    {
      "bufferView": 4,
      "componentType": 5126,
      "count": 53,
      "name": "Hips/translation/Output",
      "type": "VEC3"
    },
    {
      "bufferView": 5,
      "componentType": 5126,
      "count": 53,
      "name": "Hips/rotation/Output",
      "type": "VEC4"
    },
    {
      "bufferView": 6,
      "componentType": 5126,
      "count": 55,
      "max": [
        8.333333015441895
      ],
      "min": [
        0.0
      ],
      "name": "Leg_L1/Trs/Input",
      "type": "SCALAR"
    },
    {
      "bufferView": 7,
      "componentType": 5126,
      "count": 55,
      "name": "Leg_L1/translation/Output",
      "type": "VEC3"
    },
    {
      "bufferView": 8,
      "componentType": 5126,
      "count": 55,
      "name": "Leg_L1/rotation/Output",
      "type": "VEC4"
    },
    {
      "bufferView": 9,
      "componentType": 5126,
      "count": 55,
      "max": [
        8.333333015441895
      ],
      "min": [
        0.0
      ],
      "name": "Leg_L2/Trs/Input",
      "type": "SCALAR"
    },
    {
      "bufferView": 10,
      "componentType": 5126,
      "count": 55,
      "name": "Leg_L2/translation/Output",
      "type": "VEC3"
    },
    {
      "bufferView": 11,
      "componentType": 5126,
      "count": 55,
      "name": "Leg_L2/rotation/Output",
      "type": "VEC4"
    },
    {
      "bufferView": 12,
      "componentType": 5126,
      "count": 55,
      "max": [
        8.333333015441895
      ],
      "min": [
        0.0
      ],
      "name": "Leg_R1/Trs/Input",
      "type": "SCALAR"
    },
    {
      "bufferView": 13,
      "componentType": 5126,
      "count": 55,
      "name": "Leg_R1/translation/Output",
      "type": "VEC3"
    },
    {
      "bufferView": 14,
      "componentType": 5126,
      "count": 55,
      "name": "Leg_R1/rotation/Output",
      "type": "VEC4"
    },
    {
      "bufferView": 15,
      "componentType": 5126,
      "count": 55,
      "max": [
        8.333333015441895
      ],
      "min": [
        0.0
      ],
      "name": "Leg_R2/Trs/Input",
      "type": "SCALAR"
    },
    {
      "bufferView": 16,
      "componentType": 5126,
      "count": 55,
      "name": "Leg_R2/translation/Output",
      "type": "VEC3"
    },
    {
      "bufferView": 17,
      "componentType": 5126,
      "count": 55,
      "name": "Leg_R2/rotation/Output",
      "type": "VEC4"
    },
    {
      "bufferView": 18,
      "componentType": 5126,
      "count": 78,
      "max": [
        8.333333015441895
      ],
      "min": [
        0.0
      ],
      "name": "Tail_1/Trs/Input",
      "type": "SCALAR"
    },
    {
      "bufferView": 19,
      "componentType": 5126,
      "count": 78,
      "name": "Tail_1/rotation/Output",
      "type": "VEC4"
    },
    {
      "bufferView": 20,
      "componentType": 5126,
      "count": 37,
      "max": [
        8.333333015441895
      ],
      "min": [
        0.0
      ],
      "name": "Breasts1/Trs/Input",
      "type": "SCALAR"
    },
    {
      "bufferView": 21,
      "componentType": 5126,
      "count": 37,
      "name": "Breasts1/rotation/Output",
      "type": "VEC4"
    },
    {
      "bufferView": 22,
      "componentType": 5126,
      "count": 85,
      "max": [
        8.333333015441895
      ],
      "min": [
        0.0
      ],
      "name": "Breasts2/Trs/Input",
      "type": "SCALAR"
    },
    {
      "bufferView": 23,
      "componentType": 5126,
      "count": 85,
      "name": "Breasts2/translation/Output",
      "type": "VEC3"
    },
    {
      "bufferView": 24,
      "componentType": 5126,
      "count": 71,
      "max": [
        8.333333015441895
      ],
      "min": [
        0.0
      ],
      "name": "Head_1/Trs/Input",
      "type": "SCALAR"
    },
    {
      "bufferView": 25,
      "componentType": 5126,
      "count": 71,
      "name": "Head_1/translation/Output",
      "type": "VEC3"
    },
    {
      "bufferView": 26,
      "componentType": 5126,
      "count": 71,
      "name": "Head_1/rotation/Output",
      "type": "VEC4"
    },
    {
      "bufferView": 27,
      "componentType": 5126,
      "count": 76,
      "max": [
        8.333333015441895
      ],
      "min": [
        0.0
      ],
      "name": "Head_2/Trs/Input",
      "type": "SCALAR"
    },
    {
      "bufferView": 28,
      "componentType": 5126,
      "count": 76,
      "name": "Head_2/translation/Output",
      "type": "VEC3"
    },
    {
      "bufferView": 29,
      "componentType": 5126,
      "count": 76,
      "name": "Head_2/rotation/Output",
      "type": "VEC4"
    },
    {
      "bufferView": 30,
      "componentType": 5126,
      "count": 118,
      "max": [
        8.333333015441895
      ],
      "min": [
        0.0
      ],
      "name": "Feather_1/Trs/Input",
      "type": "SCALAR"
    },
    {
      "bufferView": 31,
      "componentType": 5126,
      "count": 118,
      "name": "Feather_1/translation/Output",
      "type": "VEC3"
    },
    {
      "bufferView": 32,
      "componentType": 5126,
      "count": 118,
      "name": "Feather_1/rotation/Output",
      "type": "VEC4"
    }
  ],
  "animations": [
    {
      "channels": [
        {
          "sampler": 0,
          "target": {
            "node": 2,
            "path": "translation"
          }
        },
        {
          "sampler": 1,
          "target": {
            "node": 2,
            "path": "rotation"
          }
        },
        {
          "sampler": 2,
          "target": {
            "node": 3,
            "path": "translation"
          }
        },
        {
          "sampler": 3,
          "target": {
            "node": 3,
            "path": "rotation"
          }
        },
        {
          "sampler": 4,
          "target": {
            "node": 4,
            "path": "translation"
          }
        },
        {
          "sampler": 5,
          "target": {
            "node": 4,
            "path": "rotation"
          }
        },
        {
          "sampler": 6,
          "target": {
            "node": 6,
            "path": "translation"
          }
        },
        {
          "sampler": 7,
          "target": {
            "node": 6,
            "path": "rotation"
          }
        },
        {
          "sampler": 8,
          "target": {
            "node": 7,
            "path": "translation"
          }
        },
        {
          "sampler": 9,
          "target": {
            "node": 7,
            "path": "rotation"
          }
        },
        {
          "sampler": 10,
          "target": {
            "node": 9,
            "path": "rotation"
          }
        },
        {
          "sampler": 11,
          "target": {
            "node": 11,
            "path": "rotation"
          }
        },
        {
          "sampler": 12,
          "target": {
            "node": 12,
            "path": "translation"
          }
        },
        {
          "sampler": 13,
          "target": {
            "node": 13,
            "path": "translation"
          }
        },
        {
          "sampler": 14,
          "target": {
            "node": 13,
            "path": "rotation"
          }
        },
        {
          "sampler": 15,
          "target": {
            "node": 14,
            "path": "translation"
          }
        },
        {
          "sampler": 16,
          "target": {
            "node": 14,
            "path": "rotation"
          }
        },
        {
          "sampler": 17,
          "target": {
            "node": 15,
            "path": "translation"
          }
        },
        {
          "sampler": 18,
          "target": {
            "node": 15,
            "path": "rotation"
          }
        }
      ],
      "name": "Take 001",
      "samplers": [
        {
          "input": 9,
          "output": 10
        },
        {
          "input": 9,
          "output": 11
        },
        {
          "input": 12,
          "output": 13
        },
        {
          "input": 12,
          "output": 14
        },
        {
          "input": 15,
          "output": 16
        },
        {
          "input": 15,
          "output": 17
        },
        {
          "input": 18,
          "output": 19
        },
        {
          "input": 18,
          "output": 20
        },
        {
          "input": 21,
          "output": 22
        },
        {
          "input": 21,
          "output": 23
        },
        {
          "input": 24,
          "output": 25
        },
        {
          "input": 26,
          "output": 27
        },
        {
          "input": 28,
          "output": 29
        },
        {
          "input": 30,
          "output": 31
        },
        {
          "input": 30,
          "output": 32
        },
        {
          "input": 33,
          "output": 34
        },
        {
          "input": 33,
          "output": 35
        },
        {
          "input": 36,
          "output": 37
        },
        {
          "input": 36,
          "output": 38
        }
      ]
    }
  ],
  "asset": {
    "copyright": "Copyright (c) 2018-2020 Chukong Technologies Inc.",
    "generator": "FBX-glTF-conv",
    "version": "2.0"
  },
  "bufferViews": [
    {
      "buffer": 0,
      "byteLength": 51600,
      "byteStride": 80,
      "name": "SE_Chicken_01",
      "target": 34962
    },
    {
      "buffer": 0,
      "byteLength": 10728,
      "byteOffset": 51600
    },
    {
      "buffer": 0,
      "byteLength": 1024,
      "byteOffset": 62328
    },
    {
      "buffer": 0,
      "byteLength": 212,
      "byteOffset": 63352
    },
    {
      "buffer": 0,
      "byteLength": 636,
      "byteOffset": 63564
    },
    {
      "buffer": 0,
      "byteLength": 848,
      "byteOffset": 64200
    },
    {
      "buffer": 0,
      "byteLength": 220,
      "byteOffset": 65048
    },
    {
      "buffer": 0,
      "byteLength": 660,
      "byteOffset": 65268
    },
    {
      "buffer": 0,
      "byteLength": 880,
      "byteOffset": 65928
    },
    {
      "buffer": 0,
      "byteLength": 220,
      "byteOffset": 66808
    },
    {
      "buffer": 0,
      "byteLength": 660,
      "byteOffset": 67028
    },
    {
      "buffer": 0,
      "byteLength": 880,
      "byteOffset": 67688
    },
    {
      "buffer": 0,
      "byteLength": 220,
      "byteOffset": 68568
    },
    {
      "buffer": 0,
      "byteLength": 660,
      "byteOffset": 68788
    },
    {
      "buffer": 0,
      "byteLength": 880,
      "byteOffset": 69448
    },
    {
      "buffer": 0,
      "byteLength": 220,
      "byteOffset": 70328
    },
    {
      "buffer": 0,
      "byteLength": 660,
      "byteOffset": 70548
    },
    {
      "buffer": 0,
      "byteLength": 880,
      "byteOffset": 71208
    },
    {
      "buffer": 0,
      "byteLength": 312,
      "byteOffset": 72088
    },
    {
      "buffer": 0,
      "byteLength": 1248,
      "byteOffset": 72400
    },
    {
      "buffer": 0,
      "byteLength": 148,
      "byteOffset": 73648
    },
    {
      "buffer": 0,
      "byteLength": 592,
      "byteOffset": 73796
    },
    {
      "buffer": 0,
      "byteLength": 340,
      "byteOffset": 74388
    },
    {
      "buffer": 0,
      "byteLength": 1020,
      "byteOffset": 74728
    },
    {
      "buffer": 0,
      "byteLength": 284,
      "byteOffset": 75748
    },
    {
      "buffer": 0,
      "byteLength": 852,
      "byteOffset": 76032
    },
    {
      "buffer": 0,
      "byteLength": 1136,
      "byteOffset": 76884
    },
    {
      "buffer": 0,
      "byteLength": 304,
      "byteOffset": 78020
    },
    {
      "buffer": 0,
      "byteLength": 912,
      "byteOffset": 78324
    },
    {
      "buffer": 0,
      "byteLength": 1216,
      "byteOffset": 79236
    },
    {
      "buffer": 0,
      "byteLength": 472,
      "byteOffset": 80452
    },
    {
      "buffer": 0,
      "byteLength": 1416,
      "byteOffset": 80924
    },
    {
      "buffer": 0,
      "byteLength": 1888,
      "byteOffset": 82340
    }
  ],
  "buffers": [
    {
      "byteLength": 84228,
      "uri": "out.bin"
    }
  ],
  "extras": {
    "FBX-glTF-conv": {
      "animationFrameRate": 24.0
    }
  },
  "images": [
    {
      "extras": {
        "FBX-glTF-conv": {
          "fileName": "/Users/aleksandarbedov/Documents/CocosCreator/tajanstvenesobe2/temp/asset-db/assets/fbx.FBX-glTF-conv/960bbbf7-44f1-4488-8366-dc43fdc6c2d6/output/.fbm/D20C23AC/Pile-002.fbm/SE_Chicken_Diffuse.jpg",
          "relativeFileName": "../../../temp/asset-db/assets/fbx.FBX-glTF-conv/960bbbf7-44f1-4488-8366-dc43fdc6c2d6/output/.fbm/D20C23AC/Pile-002.fbm/SE_Chicken_Diffuse.jpg"
        }
      },
      "name": "file1",
      "uri": "SE_Chicken_Diffuse.jpg"
    }
  ],
  "materials": [
    {
      "name": "Pile",
      "pbrMetallicRoughness": {
        "baseColorFactor": [
          0.800000011920929,
          0.800000011920929,
          0.800000011920929,
          1.0
        ],
        "baseColorTexture": {
          "index": 0
        }
      }
    }
  ],
  "meshes": [
    {
      "name": "SE_Chicken_01",
      "primitives": [
        {
          "attributes": {
            "JOINTS_0": 3,
            "JOINTS_1": 5,
            "NORMAL": 1,
            "POSITION": 0,
            "TEXCOORD_0": 2,
            "WEIGHTS_0": 4,
            "WEIGHTS_1": 6
          },
          "indices": 7,
          "material": 0
        }
      ]
    }
  ],
  "nodes": [
    {
      "children": [
        1
      ],
      "mesh": 0,
      "name": "SE_Chicken_01",
      "scale": [
        100.0,
        100.0,
        100.0
      ],
      "skin": 0
    },
    {
      "children": [
        2
      ],
      "extras": {
        "FBX-glTF-conv": {
          "skeleton": {
            "skeletonType": "LimbNode"
          }
        }
      },
      "name": "Root",
      "translation": [
        -4.371641989564523e-05,
        0.007750727701932192,
        -0.00020176965335849673
      ]
    },
    {
      "children": [
        3,
        6,
        9,
        11
      ],
      "extras": {
        "FBX-glTF-conv": {
          "skeleton": {
            "skeletonType": "LimbNode"
          }
        }
      },
      "name": "Hips",
      "rotation": [
        -1.5231742180731874e-16,
        0.9649574756622314,
        -0.26240628957748413,
        -3.2677377022680273e-16
      ],
      "translation": [
        -1.5612511904176723e-19,
        -0.0011861077509820461,
        -0.0012968747178092599
      ]
    },
    {
      "children": [
        4
      ],
      "extras": {
        "FBX-glTF-conv": {
          "skeleton": {
            "skeletonType": "LimbNode"
          }
        }
      },
      "name": "Leg_L1",
      "rotation": [
        1.2693216201546258e-16,
        0.8678772449493408,
        0.4967787265777588,
        -3.450104954603062e-16
      ],
      "translation": [
        -0.0031654397025704384,
        -0.0018403747817501426,
        0.0009956981521099806
      ]
    },
    {
      "children": [
        5
      ],
      "extras": {
        "FBX-glTF-conv": {
          "skeleton": {
            "skeletonType": "LimbNode"
          }
        }
      },
      "name": "Leg_L2",
      "rotation": [
        -0.10214245319366455,
        -3.8319937403719873e-32,
        -1.0306073840184655e-31,
        0.9947697520256042
      ],
      "translation": [
        -0.0006052178796380758,
        -0.0009485356276854873,
        -0.004320349544286728
      ]
    },
    {
      "extras": {
        "FBX-glTF-conv": {
          "skeleton": {
            "skeletonType": "LimbNode"
          }
        }
      },
      "name": "Leg_L3",
      "rotation": [
        -0.612845778465271,
        3.017864571014785e-16,
        4.343506338274635e-16,
        0.7902025580406189
      ],
      "translation": [
        0.0007741532754153013,
        -0.002147131133824587,
        -0.0005471803597174585
      ]
    },
    {
      "children": [
        7
      ],
      "extras": {
        "FBX-glTF-conv": {
          "skeleton": {
            "skeletonType": "LimbNode"
          }
        }
      },
      "name": "Leg_R1",
      "rotation": [
        1.2693216201546258e-16,
        0.8678772449493408,
        0.4967787265777588,
        -3.450104954603062e-16
      ],
      "translation": [
        0.0031543737277388573,
        -0.0018403747817501426,
        0.0009956981521099806
      ]
    },
    {
      "children": [
        8
      ],
      "extras": {
        "FBX-glTF-conv": {
          "skeleton": {
            "skeletonType": "LimbNode"
          }
        }
      },
      "name": "Leg_R2",
      "rotation": [
        -0.10214245319366455,
        1.232688146010981e-31,
        1.2657179503517137e-32,
        0.9947697520256042
      ],
      "translation": [
        0.0006052180542610586,
        -0.0009485356276854873,
        -0.004320349544286728
      ]
    },
    {
      "extras": {
        "FBX-glTF-conv": {
          "skeleton": {
            "skeletonType": "LimbNode"
          }
        }
      },
      "name": "Leg_R3",
      "rotation": [
        -0.612845778465271,
        2.9560094606459475e-16,
        4.295534097911296e-16,
        0.7902025580406189
      ],
      "translation": [
        -0.0007741536246612668,
        -0.002147131133824587,
        -0.0005471803597174585
      ]
    },
    {
      "children": [
        10
      ],
      "extras": {
        "FBX-glTF-conv": {
          "skeleton": {
            "skeletonType": "LimbNode"
          }
        }
      },
      "name": "Tail_1",
      "rotation": [
        -3.1086294427495886e-08,
        -0.6983398199081421,
        0.7157663702964783,
        -3.032944917435998e-08
      ],
      "translation": [
        -6.999125584661314e-11,
        0.0012407660251483321,
        0.002566111274063587
      ]
    },
    {
      "extras": {
        "FBX-glTF-conv": {
          "skeleton": {
            "skeletonType": "LimbNode"
          }
        }
      },
      "name": "Tail_2",
      "translation": [
        1.2200297716535857e-10,
        -0.0025299214757978916,
        -0.0016559772193431854
      ]
    },
    {
      "children": [
        12,
        13
      ],
      "extras": {
        "FBX-glTF-conv": {
          "skeleton": {
            "skeletonType": "LimbNode"
          }
        }
      },
      "name": "Breasts1",
      "rotation": [
        0.3798016905784607,
        4.001861508839966e-09,
        -9.747174622987131e-09,
        0.9250679016113281
      ],
      "translation": [
        6.898641380370663e-11,
        0.0008564775343984365,
        -0.003316659713163972
      ]
    },
    {
      "extras": {
        "FBX-glTF-conv": {
          "skeleton": {
            "skeletonType": "LimbNode"
          }
        }
      },
      "name": "Breasts2",
      "rotation": [
        -6.053618495371893e-09,
        0.7929888367652893,
        -0.6092361211776733,
        8.187828193229052e-09
      ],
      "translation": [
        7.902029031114921e-11,
        -0.00517876073718071,
        0.0023068238515406847
      ]
    },
    {
      "children": [
        14
      ],
      "extras": {
        "FBX-glTF-conv": {
          "skeleton": {
            "skeletonType": "LimbNode"
          }
        }
      },
      "name": "Head_1",
      "rotation": [
        -0.004979468882083893,
        0.05963996425271034,
        -0.0735153928399086,
        0.9954967498779297
      ],
      "translation": [
        0.000544703216291964,
        -0.0009225602261722088,
        -0.003460140433162451
      ]
    },
    {
      "children": [
        15
      ],
      "extras": {
        "FBX-glTF-conv": {
          "skeleton": {
            "skeletonType": "LimbNode"
          }
        }
      },
      "name": "Head_2",
      "rotation": [
        -0.675447404384613,
        0.15911659598350525,
        0.06450304388999939,
        0.7171415686607361
      ],
      "translation": [
        4.114154580747709e-05,
        -0.001965171657502651,
        -0.0020585248712450266
      ]
    },
    {
      "children": [
        16
      ],
      "extras": {
        "FBX-glTF-conv": {
          "skeleton": {
            "skeletonType": "LimbNode"
          }
        }
      },
      "name": "Feather_1",
      "rotation": [
        0.08858216553926468,
        0.9161913990974426,
        -0.3240429759025574,
        -0.21850083768367767
      ],
      "translation": [
        1.0731305031879898e-13,
        0.004552719183266163,
        0.0009056136477738619
      ]
    },
    {
      "extras": {
        "FBX-glTF-conv": {
          "skeleton": {
            "skeletonType": "LimbNode"
          }
        }
      },
      "name": "Feather_2",
      "translation": [
        8.326672498573036e-19,
        0.002829313278198242,
        -0.001943332958035171
      ]
    }
  ],
  "samplers": [
    {}
  ],
  "scenes": [
    {
      "nodes": [
        0
      ]
    }
  ],
  "skins": [
    {
      "inverseBindMatrices": 8,
      "joints": [
        1,
        2,
        3,
        4,
        5,
        6,
        7,
        8,
        9,
        10,
        11,
        12,
        13,
        14,
        15,
        16
      ]
    }
  ],
  "textures": [
    {
      "name": "file1",
      "sampler": 0,
      "source": 0
    }
  ]
}