{
  "accessors": [
    {
      "bufferView": 0,
      "componentType": 5126,
      "count": 102,
      "max": [
        0.009748633950948715,
        0.0006218045018613338,
        0.00995690282434225
      ],
      "min": [
        -0.010204548947513103,
        1.5714671235400601e-06,
        -0.009956910274922848
      ],
      "name": "Ograda/POSITION",
      "type": "VEC3"
    },
    {
      "bufferView": 0,
      "byteOffset": 12,
      "componentType": 5126,
      "count": 102,
      "name": "Ograda/NORMAL",
      "type": "VEC3"
    },
    {
      "bufferView": 0,
      "byteOffset": 24,
      "componentType": 5126,
      "count": 102,
      "name": "Ograda/TEXCOORD_0",
      "type": "VEC2"
    },
    {
      "bufferView": 1,
      "componentType": 5125,
      "count": 300,
      "name": "Ograda/INDICES",
      "type": "SCALAR"
    }
  ],
  "asset": {
    "copyright": "Copyright (c) 2018-2020 Chukong Technologies Inc.",
    "generator": "FBX-glTF-conv",
    "version": "2.0"
  },
  "bufferViews": [
    {
      "buffer": 0,
      "byteLength": 3264,
      "byteStride": 32,
      "name": "Ograda",
      "target": 34962
    },
    {
      "buffer": 0,
      "byteLength": 1200,
      "byteOffset": 3264
    }
  ],
  "buffers": [
    {
      "byteLength": 4464,
      "uri": "out.bin"
    }
  ],
  "extras": {
    "FBX-glTF-conv": {
      "animationFrameRate": 24.0
    }
  },
  "images": [
    {
      "extras": {
        "FBX-glTF-conv": {
          "fileName": "/Users/aleksandarbedov/Documents/CocosCreator/tajanstvenesobe2/temp/asset-db/assets/fbx.FBX-glTF-conv/1c728bd2-4da6-435b-8410-8a3e21a61ca1/output/.fbm/2B5D2FC0/Razigrani grad samo ograda 16. mart.fbm/ograda.png",
          "relativeFileName": "../../../temp/asset-db/assets/fbx.FBX-glTF-conv/1c728bd2-4da6-435b-8410-8a3e21a61ca1/output/.fbm/2B5D2FC0/Razigrani grad samo ograda 16. mart.fbm/ograda.png"
        }
      },
      "name": "file2",
      "uri": "ograda.png"
    }
  ],
  "materials": [
    {
      "alphaMode": "BLEND",
      "name": "ograda",
      "pbrMetallicRoughness": {
        "baseColorFactor": [
          0.800000011920929,
          0.800000011920929,
          0.800000011920929,
          0.0
        ],
        "baseColorTexture": {
          "index": 0
        }
      }
    }
  ],
  "meshes": [
    {
      "name": "Ograda",
      "primitives": [
        {
          "attributes": {
            "NORMAL": 1,
            "POSITION": 0,
            "TEXCOORD_0": 2
          },
          "indices": 3,
          "material": 0
        }
      ]
    }
  ],
  "nodes": [
    {
      "mesh": 0,
      "name": "Ograda",
      "scale": [
        1775.5789794921875,
        1775.5789794921875,
        1775.5789794921875
      ],
      "translation": [
        0.4304172098636627,
        -0.6525676250457764,
        0.556809663772583
      ]
    }
  ],
  "samplers": [
    {}
  ],
  "scenes": [
    {
      "nodes": [
        0
      ]
    }
  ],
  "textures": [
    {
      "name": "file2",
      "sampler": 0,
      "source": 0
    }
  ]
}