{
  "accessors": [
    {
      "bufferView": 0,
      "componentType": 5126,
      "count": 170,
      "max": [
        0.00122763158287853,
        0.003397331340238452,
        0.005288028623908758
      ],
      "min": [
        -0.0012529039522632957,
        -0.003397331340238452,
        -0.00523346895352006
      ],
      "name": "mala_ograda_Material0/POSITION",
      "type": "VEC3"
    },
    {
      "bufferView": 0,
      "byteOffset": 12,
      "componentType": 5126,
      "count": 170,
      "name": "mala_ograda_Material0/NORMAL",
      "type": "VEC3"
    },
    {
      "bufferView": 0,
      "byteOffset": 24,
      "componentType": 5126,
      "count": 170,
      "name": "mala_ograda_Material0/TEXCOORD_0",
      "type": "VEC2"
    },
    {
      "bufferView": 0,
      "byteOffset": 32,
      "componentType": 5126,
      "count": 170,
      "name": "mala_ograda_Material0/TEXCOORD_1",
      "type": "VEC2"
    },
    {
      "bufferView": 1,
      "componentType": 5125,
      "count": 312,
      "name": "mala_ograda_Material0/INDICES",
      "type": "SCALAR"
    },
    {
      "bufferView": 2,
      "componentType": 5126,
      "count": 1413,
      "max": [
        0.0009820079430937767,
        0.0006525611970573664,
        0.003310208208858967
      ],
      "min": [
        -0.0011972523061558604,
        -0.0021363473497331142,
        -0.0031668280716985464
      ],
      "name": "mala_ograda_Material0/POSITION",
      "type": "VEC3"
    },
    {
      "bufferView": 2,
      "byteOffset": 12,
      "componentType": 5126,
      "count": 1413,
      "name": "mala_ograda_Material0/NORMAL",
      "type": "VEC3"
    },
    {
      "bufferView": 2,
      "byteOffset": 24,
      "componentType": 5126,
      "count": 1413,
      "name": "mala_ograda_Material0/TEXCOORD_0",
      "type": "VEC2"
    },
    {
      "bufferView": 2,
      "byteOffset": 32,
      "componentType": 5126,
      "count": 1413,
      "name": "mala_ograda_Material0/TEXCOORD_1",
      "type": "VEC2"
    },
    {
      "bufferView": 3,
      "componentType": 5125,
      "count": 3936,
      "name": "mala_ograda_Material0/INDICES",
      "type": "SCALAR"
    }
  ],
  "asset": {
    "copyright": "Copyright (c) 2018-2020 Chukong Technologies Inc.",
    "generator": "FBX-glTF-conv",
    "version": "2.0"
  },
  "bufferViews": [
    {
      "buffer": 0,
      "byteLength": 6800,
      "byteStride": 40,
      "name": "mala_ograda_Material0",
      "target": 34962
    },
    {
      "buffer": 0,
      "byteLength": 1248,
      "byteOffset": 6800
    },
    {
      "buffer": 0,
      "byteLength": 56520,
      "byteOffset": 8048,
      "byteStride": 40,
      "name": "mala_ograda_Material0",
      "target": 34962
    },
    {
      "buffer": 0,
      "byteLength": 15744,
      "byteOffset": 64568
    }
  ],
  "buffers": [
    {
      "byteLength": 80312,
      "uri": "out.bin"
    }
  ],
  "extras": {
    "FBX-glTF-conv": {
      "animationFrameRate": 24.0
    }
  },
  "images": [
    {
      "extras": {
        "FBX-glTF-conv": {
          "fileName": "/Users/aleksandarbedov/Documents/CocosCreator/tajanstvenesobe2/temp/asset-db/assets/fbx.FBX-glTF-conv/b60e9dd3-a1ba-46ab-a08a-c2885397d564/output/.fbm/7D0B3A3E/Grad nevidljivih ljudi samo mala ograda za vetrenjacu.fbm/Manmade02Diffuse.jpg",
          "relativeFileName": "../../../temp/asset-db/assets/fbx.FBX-glTF-conv/b60e9dd3-a1ba-46ab-a08a-c2885397d564/output/.fbm/7D0B3A3E/Grad nevidljivih ljudi samo mala ograda za vetrenjacu.fbm/Manmade02Diffuse.jpg"
        }
      },
      "name": "DiffuseColor_Texture_2",
      "uri": "Manmade02Diffuse.jpg"
    },
    {
      "extras": {
        "FBX-glTF-conv": {
          "fileName": "/Users/aleksandarbedov/Documents/CocosCreator/tajanstvenesobe2/temp/asset-db/assets/fbx.FBX-glTF-conv/b60e9dd3-a1ba-46ab-a08a-c2885397d564/output/.fbm/7D0B3A3E/Grad nevidljivih ljudi samo mala ograda za vetrenjacu.fbm/Manmade04Diffuse.jpg",
          "relativeFileName": "../../../temp/asset-db/assets/fbx.FBX-glTF-conv/b60e9dd3-a1ba-46ab-a08a-c2885397d564/output/.fbm/7D0B3A3E/Grad nevidljivih ljudi samo mala ograda za vetrenjacu.fbm/Manmade04Diffuse.jpg"
        }
      },
      "name": "DiffuseColor_Texture_3",
      "uri": "Manmade04Diffuse.jpg"
    }
  ],
  "materials": [
    {
      "name": "Manmade02Diffuse2",
      "pbrMetallicRoughness": {
        "baseColorTexture": {
          "index": 0
        }
      }
    },
    {
      "name": "Manmade04Diffuse1",
      "pbrMetallicRoughness": {
        "baseColorTexture": {
          "index": 1
        }
      }
    }
  ],
  "meshes": [
    {
      "name": "mala_ograda_Material0",
      "primitives": [
        {
          "attributes": {
            "NORMAL": 1,
            "POSITION": 0,
            "TEXCOORD_0": 2,
            "TEXCOORD_1": 3
          },
          "indices": 4,
          "material": 0
        },
        {
          "attributes": {
            "NORMAL": 6,
            "POSITION": 5,
            "TEXCOORD_0": 7,
            "TEXCOORD_1": 8
          },
          "indices": 9,
          "material": 1
        }
      ]
    }
  ],
  "nodes": [
    {
      "mesh": 0,
      "name": "mala_ograda"
    }
  ],
  "samplers": [
    {}
  ],
  "scenes": [
    {
      "nodes": [
        0
      ]
    }
  ],
  "textures": [
    {
      "name": "DiffuseColor_Texture_2",
      "sampler": 0,
      "source": 0
    },
    {
      "name": "DiffuseColor_Texture_3",
      "sampler": 0,
      "source": 1
    }
  ]
}