{
  "accessors": [
    {
      "bufferView": 0,
      "componentType": 5126,
      "count": 2040,
      "max": [
        0.03467484191060066,
        0.02039078064262867,
        0.03467633202672005
      ],
      "min": [
        -0.2504284083843231,
        -0.0003242230450268835,
        -0.0014272689586505294
      ],
      "name": "Ulicna_rasveta_Material0/POSITION",
      "type": "VEC3"
    },
    {
      "bufferView": 0,
      "byteOffset": 12,
      "componentType": 5126,
      "count": 2040,
      "name": "Ulicna_rasveta_Material0/NORMAL",
      "type": "VEC3"
    },
    {
      "bufferView": 0,
      "byteOffset": 24,
      "componentType": 5126,
      "count": 2040,
      "name": "Ulicna_rasveta_Material0/TEXCOORD_0",
      "type": "VEC2"
    },
    {
      "bufferView": 1,
      "componentType": 5125,
      "count": 5232,
      "name": "Ulicna_rasveta_Material0/INDICES",
      "type": "SCALAR"
    },
    {
      "bufferView": 2,
      "componentType": 5126,
      "count": 144,
      "max": [
        0.03403856232762337,
        0.01807534322142601,
        0.034102220088243484
      ],
      "min": [
        -0.24979214370250702,
        0.016301311552524567,
        -0.0008543586591258645
      ],
      "name": "Ulicna_rasveta_Material0/POSITION",
      "type": "VEC3"
    },
    {
      "bufferView": 2,
      "byteOffset": 12,
      "componentType": 5126,
      "count": 144,
      "name": "Ulicna_rasveta_Material0/NORMAL",
      "type": "VEC3"
    },
    {
      "bufferView": 2,
      "byteOffset": 24,
      "componentType": 5126,
      "count": 144,
      "name": "Ulicna_rasveta_Material0/TEXCOORD_0",
      "type": "VEC2"
    },
    {
      "bufferView": 3,
      "componentType": 5125,
      "count": 336,
      "name": "Ulicna_rasveta_Material0/INDICES",
      "type": "SCALAR"
    }
  ],
  "asset": {
    "copyright": "Copyright (c) 2018-2020 Chukong Technologies Inc.",
    "generator": "FBX-glTF-conv",
    "version": "2.0"
  },
  "bufferViews": [
    {
      "buffer": 0,
      "byteLength": 65280,
      "byteStride": 32,
      "name": "Ulicna_rasveta_Material0",
      "target": 34962
    },
    {
      "buffer": 0,
      "byteLength": 20928,
      "byteOffset": 65280
    },
    {
      "buffer": 0,
      "byteLength": 4608,
      "byteOffset": 86208,
      "byteStride": 32,
      "name": "Ulicna_rasveta_Material0",
      "target": 34962
    },
    {
      "buffer": 0,
      "byteLength": 1344,
      "byteOffset": 90816
    }
  ],
  "buffers": [
    {
      "byteLength": 92160,
      "uri": "out.bin"
    }
  ],
  "extras": {
    "FBX-glTF-conv": {
      "animationFrameRate": 24.0
    }
  },
  "images": [
    {
      "extras": {
        "FBX-glTF-conv": {
          "fileName": "/Users/aleksandarbedov/Documents/CocosCreator/tajanstvenesobe2/temp/asset-db/assets/fbx.FBX-glTF-conv/5df307b6-5def-40f8-8f52-35a01e87eaed/output/.fbm/67612E22/Vesele ulice samo rasveta 30. maj.fbm/CityPack.png",
          "relativeFileName": "../../../temp/asset-db/assets/fbx.FBX-glTF-conv/5df307b6-5def-40f8-8f52-35a01e87eaed/output/.fbm/67612E22/Vesele ulice samo rasveta 30. maj.fbm/CityPack.png"
        }
      },
      "name": "CityPack.png",
      "uri": "CityPack.png"
    },
    {
      "extras": {
        "FBX-glTF-conv": {
          "fileName": "/Users/aleksandarbedov/Documents/CocosCreator/tajanstvenesobe2/temp/asset-db/assets/fbx.FBX-glTF-conv/5df307b6-5def-40f8-8f52-35a01e87eaed/output/.fbm/67612E22/Vesele ulice samo rasveta 30. maj.fbm/CityPack.png",
          "relativeFileName": "../../../temp/asset-db/assets/fbx.FBX-glTF-conv/5df307b6-5def-40f8-8f52-35a01e87eaed/output/.fbm/67612E22/Vesele ulice samo rasveta 30. maj.fbm/CityPack.png"
        }
      },
      "name": "CityPack.png",
      "uri": "CityPack.png"
    },
    {
      "extras": {
        "FBX-glTF-conv": {
          "fileName": "/Users/aleksandarbedov/Documents/CocosCreator/tajanstvenesobe2/temp/asset-db/assets/fbx.FBX-glTF-conv/5df307b6-5def-40f8-8f52-35a01e87eaed/output/.fbm/67612E22/Vesele ulice samo rasveta 30. maj.fbm/CityPack.png",
          "relativeFileName": "../../../temp/asset-db/assets/fbx.FBX-glTF-conv/5df307b6-5def-40f8-8f52-35a01e87eaed/output/.fbm/67612E22/Vesele ulice samo rasveta 30. maj.fbm/CityPack.png"
        }
      },
      "name": "CityPack.png",
      "uri": "CityPack.png"
    }
  ],
  "materials": [
    {
      "name": "CityPack_Metal_High",
      "pbrMetallicRoughness": {
        "baseColorTexture": {
          "index": 0
        }
      }
    },
    {
      "emissiveFactor": [
        1.0,
        1.0,
        1.0
      ],
      "emissiveTexture": {
        "index": 2
      },
      "name": "CityPack_Lamp",
      "pbrMetallicRoughness": {
        "baseColorTexture": {
          "index": 1
        }
      }
    }
  ],
  "meshes": [
    {
      "name": "Ulicna_rasveta_Material0",
      "primitives": [
        {
          "attributes": {
            "NORMAL": 1,
            "POSITION": 0,
            "TEXCOORD_0": 2
          },
          "indices": 3,
          "material": 0
        },
        {
          "attributes": {
            "NORMAL": 5,
            "POSITION": 4,
            "TEXCOORD_0": 6
          },
          "indices": 7,
          "material": 1
        }
      ]
    }
  ],
  "nodes": [
    {
      "mesh": 0,
      "name": "Ulicna_rasveta",
      "translation": [
        -0.035472553223371506,
        0.010662387125194073,
        0.08474709838628769
      ]
    }
  ],
  "samplers": [
    {}
  ],
  "scenes": [
    {
      "nodes": [
        0
      ]
    }
  ],
  "textures": [
    {
      "name": "CityPack.png",
      "sampler": 0,
      "source": 0
    },
    {
      "name": "CityPack.png",
      "sampler": 0,
      "source": 1
    },
    {
      "name": "CityPack.png",
      "sampler": 0,
      "source": 2
    }
  ]
}