{
  "accessors": [
    {
      "bufferView": 0,
      "componentType": 5126,
      "count": 108,
      "max": [
        6.058886528015137,
        0.5000003576278687,
        2.348930835723877
      ],
      "min": [
        -6.058886528015137,
        -0.5000004172325134,
        -2.348930835723877
      ],
      "name": "Arrow5/POSITION",
      "type": "VEC3"
    },
    {
      "bufferView": 0,
      "byteOffset": 12,
      "componentType": 5126,
      "count": 108,
      "name": "Arrow5/NORMAL",
      "type": "VEC3"
    },
    {
      "bufferView": 0,
      "byteOffset": 24,
      "componentType": 5126,
      "count": 108,
      "name": "Arrow5/TEXCOORD_0",
      "type": "VEC2"
    },
    {
      "bufferView": 1,
      "componentType": 5125,
      "count": 324,
      "name": "Arrow5/INDICES",
      "type": "SCALAR"
    },
    {
      "bufferView": 2,
      "componentType": 5126,
      "count": 2,
      "max": [
        3.3333332538604736
      ],
      "min": [
        0.0
      ],
      "name": "Arrow5/Trs/Input",
      "type": "SCALAR"
    },
    {
      "bufferView": 3,
      "componentType": 5126,
      "count": 2,
      "name": "Arrow5/rotation/Output",
      "type": "VEC4"
    }
  ],
  "animations": [
    {
      "channels": [
        {
          "sampler": 0,
          "target": {
            "node": 0,
            "path": "rotation"
          }
        }
      ],
      "name": "Take 001",
      "samplers": [
        {
          "input": 4,
          "output": 5
        }
      ]
    }
  ],
  "asset": {
    "copyright": "Copyright (c) 2018-2020 Chukong Technologies Inc.",
    "generator": "FBX-glTF-conv",
    "version": "2.0"
  },
  "bufferViews": [
    {
      "buffer": 0,
      "byteLength": 3456,
      "byteStride": 32,
      "name": "Arrow5",
      "target": 34962
    },
    {
      "buffer": 0,
      "byteLength": 1296,
      "byteOffset": 3456
    },
    {
      "buffer": 0,
      "byteLength": 8,
      "byteOffset": 4752
    },
    {
      "buffer": 0,
      "byteLength": 32,
      "byteOffset": 4760
    }
  ],
  "buffers": [
    {
      "byteLength": 4792,
      "uri": "out.bin"
    }
  ],
  "extras": {
    "FBX-glTF-conv": {
      "animationFrameRate": 30.0
    }
  },
  "images": [
    {
      "extras": {
        "FBX-glTF-conv": {
          "fileName": "F:\\M n B\\_MESH\\A mesh\\Arrow 5\\Arrow5Albedo.png",
          "relativeFileName": "Arrow5Albedo.png"
        }
      },
      "name": "Map #53",
      "uri": "data:image/png;base64,"
    },
    {
      "extras": {
        "FBX-glTF-conv": {
          "fileName": "F:\\M n B\\_MESH\\A mesh\\Arrow 5\\Arrow5Normal.png",
          "relativeFileName": "Arrow5Normal.png"
        }
      },
      "name": "Map #55",
      "uri": "data:image/png;base64,"
    }
  ],
  "materials": [
    {
      "name": "Arrow5",
      "normalTexture": {
        "index": 1
      },
      "pbrMetallicRoughness": {
        "baseColorTexture": {
          "index": 0
        },
        "metallicFactor": 0.4000000059604645,
        "roughnessFactor": 0.7071067690849304
      }
    }
  ],
  "meshes": [
    {
      "name": "Arrow5",
      "primitives": [
        {
          "attributes": {
            "NORMAL": 1,
            "POSITION": 0,
            "TEXCOORD_0": 2
          },
          "indices": 3,
          "material": 0
        }
      ]
    }
  ],
  "nodes": [
    {
      "mesh": 0,
      "name": "Arrow5",
      "rotation": [
        -0.7071067690849304,
        -0.0,
        0.0,
        0.7071067690849304
      ],
      "scale": [
        0.02539999969303608,
        0.02539999969303608,
        0.02539999969303608
      ]
    }
  ],
  "samplers": [
    {}
  ],
  "scenes": [
    {
      "nodes": [
        0
      ]
    }
  ],
  "textures": [
    {
      "name": "Map #53",
      "sampler": 0,
      "source": 0
    },
    {
      "name": "Map #55",
      "sampler": 0,
      "source": 1
    }
  ]
}