{
  "accessors": [
    {
      "bufferView": 0,
      "componentType": 5126,
      "count": 464,
      "max": [
        -0.12507356703281403,
        0.014871912077069283,
        0.09274179488420486
      ],
      "min": [
        -0.13365447521209717,
        0.011348175816237926,
        0.08305313438177109
      ],
      "name": "Balon1_Material0/POSITION",
      "type": "VEC3"
    },
    {
      "bufferView": 0,
      "byteOffset": 12,
      "componentType": 5126,
      "count": 464,
      "name": "Balon1_Material0/NORMAL",
      "type": "VEC3"
    },
    {
      "bufferView": 0,
      "byteOffset": 24,
      "componentType": 5126,
      "count": 464,
      "name": "Balon1_Material0/TEXCOORD_0",
      "type": "VEC2"
    },
    {
      "bufferView": 1,
      "componentType": 5125,
      "count": 900,
      "name": "Balon1_Material0/INDICES",
      "type": "SCALAR"
    },
    {
      "bufferView": 2,
      "componentType": 5126,
      "count": 214,
      "max": [
        -0.12986774742603302,
        0.014926224015653133,
        0.09184997528791428
      ],
      "min": [
        -0.13287022709846497,
        0.014163335785269737,
        0.08885502070188522
      ],
      "name": "Balon1_Material0/POSITION",
      "type": "VEC3"
    },
    {
      "bufferView": 2,
      "byteOffset": 12,
      "componentType": 5126,
      "count": 214,
      "name": "Balon1_Material0/NORMAL",
      "type": "VEC3"
    },
    {
      "bufferView": 2,
      "byteOffset": 24,
      "componentType": 5126,
      "count": 214,
      "name": "Balon1_Material0/TEXCOORD_0",
      "type": "VEC2"
    },
    {
      "bufferView": 3,
      "componentType": 5125,
      "count": 444,
      "name": "Balon1_Material0/INDICES",
      "type": "SCALAR"
    },
    {
      "bufferView": 4,
      "componentType": 5126,
      "count": 5774,
      "max": [
        -0.10313636064529419,
        0.01588417962193489,
        0.11399857699871063
      ],
      "min": [
        -0.13848643004894257,
        0.010606619529426098,
        0.07581335306167603
      ],
      "name": "Balon1_Material0/POSITION",
      "type": "VEC3"
    },
    {
      "bufferView": 4,
      "byteOffset": 12,
      "componentType": 5126,
      "count": 5774,
      "name": "Balon1_Material0/NORMAL",
      "type": "VEC3"
    },
    {
      "bufferView": 4,
      "byteOffset": 24,
      "componentType": 5126,
      "count": 5774,
      "name": "Balon1_Material0/TEXCOORD_0",
      "type": "VEC2"
    },
    {
      "bufferView": 5,
      "componentType": 5125,
      "count": 9894,
      "name": "Balon1_Material0/INDICES",
      "type": "SCALAR"
    },
    {
      "bufferView": 6,
      "componentType": 5126,
      "count": 421,
      "max": [
        -0.10418380796909332,
        0.00992686115205288,
        0.1124579980969429
      ],
      "min": [
        -0.1372923105955124,
        -0.01192920096218586,
        0.07530349493026733
      ],
      "name": "Balon1_Material0/POSITION",
      "type": "VEC3"
    },
    {
      "bufferView": 6,
      "byteOffset": 12,
      "componentType": 5126,
      "count": 421,
      "name": "Balon1_Material0/NORMAL",
      "type": "VEC3"
    },
    {
      "bufferView": 6,
      "byteOffset": 24,
      "componentType": 5126,
      "count": 421,
      "name": "Balon1_Material0/TEXCOORD_0",
      "type": "VEC2"
    },
    {
      "bufferView": 7,
      "componentType": 5125,
      "count": 1038,
      "name": "Balon1_Material0/INDICES",
      "type": "SCALAR"
    },
    {
      "bufferView": 8,
      "componentType": 5126,
      "count": 884,
      "max": [
        -0.11137107759714127,
        0.016514893621206284,
        0.09664919227361679
      ],
      "min": [
        -0.11858482658863068,
        0.012762848287820816,
        0.0910659059882164
      ],
      "name": "Balon1_Material0/POSITION",
      "type": "VEC3"
    },
    {
      "bufferView": 8,
      "byteOffset": 12,
      "componentType": 5126,
      "count": 884,
      "name": "Balon1_Material0/NORMAL",
      "type": "VEC3"
    },
    {
      "bufferView": 8,
      "byteOffset": 24,
      "componentType": 5126,
      "count": 884,
      "name": "Balon1_Material0/TEXCOORD_0",
      "type": "VEC2"
    },
    {
      "bufferView": 9,
      "componentType": 5125,
      "count": 1392,
      "name": "Balon1_Material0/INDICES",
      "type": "SCALAR"
    },
    {
      "bufferView": 10,
      "componentType": 5126,
      "count": 551,
      "max": [
        -0.11262679100036621,
        0.017277952283620834,
        0.09647740423679352
      ],
      "min": [
        -0.11757665872573853,
        0.011362757533788681,
        0.09125694632530212
      ],
      "name": "Balon1_Material0/POSITION",
      "type": "VEC3"
    },
    {
      "bufferView": 10,
      "byteOffset": 12,
      "componentType": 5126,
      "count": 551,
      "name": "Balon1_Material0/NORMAL",
      "type": "VEC3"
    },
    {
      "bufferView": 10,
      "byteOffset": 24,
      "componentType": 5126,
      "count": 551,
      "name": "Balon1_Material0/TEXCOORD_0",
      "type": "VEC2"
    },
    {
      "bufferView": 11,
      "componentType": 5125,
      "count": 972,
      "name": "Balon1_Material0/INDICES",
      "type": "SCALAR"
    },
    {
      "bufferView": 12,
      "componentType": 5126,
      "count": 1402,
      "max": [
        -0.13185736536979675,
        0.056765418499708176,
        0.08318987488746643
      ],
      "min": [
        -0.15820226073265076,
        -0.002288449089974165,
        0.0559183731675148
      ],
      "name": "Balon1_Material0/POSITION",
      "type": "VEC3"
    },
    {
      "bufferView": 12,
      "byteOffset": 12,
      "componentType": 5126,
      "count": 1402,
      "name": "Balon1_Material0/NORMAL",
      "type": "VEC3"
    },
    {
      "bufferView": 12,
      "byteOffset": 24,
      "componentType": 5126,
      "count": 1402,
      "name": "Balon1_Material0/TEXCOORD_0",
      "type": "VEC2"
    },
    {
      "bufferView": 13,
      "componentType": 5125,
      "count": 3090,
      "name": "Balon1_Material0/INDICES",
      "type": "SCALAR"
    },
    {
      "bufferView": 14,
      "componentType": 5126,
      "count": 3637,
      "max": [
        -0.11481059342622757,
        0.0326390415430069,
        0.02531837671995163
      ],
      "min": [
        -0.15079045295715332,
        -0.009283706545829773,
        -0.01217405591160059
      ],
      "name": "Balon1_Material0/POSITION",
      "type": "VEC3"
    },
    {
      "bufferView": 14,
      "byteOffset": 12,
      "componentType": 5126,
      "count": 3637,
      "name": "Balon1_Material0/NORMAL",
      "type": "VEC3"
    },
    {
      "bufferView": 14,
      "byteOffset": 24,
      "componentType": 5126,
      "count": 3637,
      "name": "Balon1_Material0/TEXCOORD_0",
      "type": "VEC2"
    },
    {
      "bufferView": 15,
      "componentType": 5125,
      "count": 5193,
      "name": "Balon1_Material0/INDICES",
      "type": "SCALAR"
    },
    {
      "bufferView": 16,
      "componentType": 5126,
      "count": 2582,
      "max": [
        -0.0927172377705574,
        0.013706613332033157,
        0.1380896419286728
      ],
      "min": [
        -0.1039368063211441,
        -0.001491241855546832,
        0.12710916996002197
      ],
      "name": "Balon1_Material0/POSITION",
      "type": "VEC3"
    },
    {
      "bufferView": 16,
      "byteOffset": 12,
      "componentType": 5126,
      "count": 2582,
      "name": "Balon1_Material0/NORMAL",
      "type": "VEC3"
    },
    {
      "bufferView": 16,
      "byteOffset": 24,
      "componentType": 5126,
      "count": 2582,
      "name": "Balon1_Material0/TEXCOORD_0",
      "type": "VEC2"
    },
    {
      "bufferView": 17,
      "componentType": 5125,
      "count": 4377,
      "name": "Balon1_Material0/INDICES",
      "type": "SCALAR"
    },
    {
      "bufferView": 18,
      "componentType": 5126,
      "count": 482,
      "max": [
        -0.09599481523036957,
        0.018859142437577248,
        0.05676516890525818
      ],
      "min": [
        -0.10004972666501999,
        -0.0015144480857998133,
        0.05281476676464081
      ],
      "name": "Balon1_Material0/POSITION",
      "type": "VEC3"
    },
    {
      "bufferView": 18,
      "byteOffset": 12,
      "componentType": 5126,
      "count": 482,
      "name": "Balon1_Material0/NORMAL",
      "type": "VEC3"
    },
    {
      "bufferView": 18,
      "byteOffset": 24,
      "componentType": 5126,
      "count": 482,
      "name": "Balon1_Material0/TEXCOORD_0",
      "type": "VEC2"
    },
    {
      "bufferView": 19,
      "componentType": 5125,
      "count": 756,
      "name": "Balon1_Material0/INDICES",
      "type": "SCALAR"
    }
  ],
  "asset": {
    "copyright": "Copyright (c) 2018-2020 Chukong Technologies Inc.",
    "generator": "FBX-glTF-conv",
    "version": "2.0"
  },
  "bufferViews": [
    {
      "buffer": 0,
      "byteLength": 14848,
      "byteStride": 32,
      "name": "Balon1_Material0",
      "target": 34962
    },
    {
      "buffer": 0,
      "byteLength": 3600,
      "byteOffset": 14848
    },
    {
      "buffer": 0,
      "byteLength": 6848,
      "byteOffset": 18448,
      "byteStride": 32,
      "name": "Balon1_Material0",
      "target": 34962
    },
    {
      "buffer": 0,
      "byteLength": 1776,
      "byteOffset": 25296
    },
    {
      "buffer": 0,
      "byteLength": 184768,
      "byteOffset": 27072,
      "byteStride": 32,
      "name": "Balon1_Material0",
      "target": 34962
    },
    {
      "buffer": 0,
      "byteLength": 39576,
      "byteOffset": 211840
    },
    {
      "buffer": 0,
      "byteLength": 13472,
      "byteOffset": 251416,
      "byteStride": 32,
      "name": "Balon1_Material0",
      "target": 34962
    },
    {
      "buffer": 0,
      "byteLength": 4152,
      "byteOffset": 264888
    },
    {
      "buffer": 0,
      "byteLength": 28288,
      "byteOffset": 269040,
      "byteStride": 32,
      "name": "Balon1_Material0",
      "target": 34962
    },
    {
      "buffer": 0,
      "byteLength": 5568,
      "byteOffset": 297328
    },
    {
      "buffer": 0,
      "byteLength": 17632,
      "byteOffset": 302896,
      "byteStride": 32,
      "name": "Balon1_Material0",
      "target": 34962
    },
    {
      "buffer": 0,
      "byteLength": 3888,
      "byteOffset": 320528
    },
    {
      "buffer": 0,
      "byteLength": 44864,
      "byteOffset": 324416,
      "byteStride": 32,
      "name": "Balon1_Material0",
      "target": 34962
    },
    {
      "buffer": 0,
      "byteLength": 12360,
      "byteOffset": 369280
    },
    {
      "buffer": 0,
      "byteLength": 116384,
      "byteOffset": 381640,
      "byteStride": 32,
      "name": "Balon1_Material0",
      "target": 34962
    },
    {
      "buffer": 0,
      "byteLength": 20772,
      "byteOffset": 498024
    },
    {
      "buffer": 0,
      "byteLength": 82624,
      "byteOffset": 518796,
      "byteStride": 32,
      "name": "Balon1_Material0",
      "target": 34962
    },
    {
      "buffer": 0,
      "byteLength": 17508,
      "byteOffset": 601420
    },
    {
      "buffer": 0,
      "byteLength": 15424,
      "byteOffset": 618928,
      "byteStride": 32,
      "name": "Balon1_Material0",
      "target": 34962
    },
    {
      "buffer": 0,
      "byteLength": 3024,
      "byteOffset": 634352
    }
  ],
  "buffers": [
    {
      "byteLength": 637376,
      "uri": "out.bin"
    }
  ],
  "extras": {
    "FBX-glTF-conv": {
      "animationFrameRate": 24.0
    }
  },
  "images": [
    {
      "extras": {
        "FBX-glTF-conv": {
          "fileName": "/Users/aleksandarbedov/Documents/CocosCreator/tajanstvenesobe2/temp/asset-db/assets/fbx.FBX-glTF-conv/83cea833-6ee4-47cc-98eb-c6ac1c74afba/output/.fbm/5E3E2E01/Prolecna deo samo Balon deo 8. april.fbm/SE_Seat_01b_Diffuse.jpg",
          "relativeFileName": "../../../temp/asset-db/assets/fbx.FBX-glTF-conv/83cea833-6ee4-47cc-98eb-c6ac1c74afba/output/.fbm/5E3E2E01/Prolecna deo samo Balon deo 8. april.fbm/SE_Seat_01b_Diffuse.jpg"
        }
      },
      "name": "SE_Seat_01b_Diffuse.jpg",
      "uri": "SE_Seat_01b_Diffuse.jpg"
    },
    {
      "extras": {
        "FBX-glTF-conv": {
          "fileName": "/Users/aleksandarbedov/Documents/CocosCreator/tajanstvenesobe2/temp/asset-db/assets/fbx.FBX-glTF-conv/83cea833-6ee4-47cc-98eb-c6ac1c74afba/output/.fbm/5E3E2E01/Prolecna deo samo Balon deo 8. april.fbm/SE_Sunglasses_Diffuse.jpg",
          "relativeFileName": "../../../temp/asset-db/assets/fbx.FBX-glTF-conv/83cea833-6ee4-47cc-98eb-c6ac1c74afba/output/.fbm/5E3E2E01/Prolecna deo samo Balon deo 8. april.fbm/SE_Sunglasses_Diffuse.jpg"
        }
      },
      "name": "SE_Sunglasses_Diffuse.jpg",
      "uri": "SE_Sunglasses_Diffuse.jpg"
    },
    {
      "extras": {
        "FBX-glTF-conv": {
          "fileName": "/Users/aleksandarbedov/Documents/CocosCreator/tajanstvenesobe2/temp/asset-db/assets/fbx.FBX-glTF-conv/83cea833-6ee4-47cc-98eb-c6ac1c74afba/output/.fbm/5E3E2E01/Prolecna deo samo Balon deo 8. april.fbm/SE_Fence_01b_Diffuse.jpg",
          "relativeFileName": "../../../temp/asset-db/assets/fbx.FBX-glTF-conv/83cea833-6ee4-47cc-98eb-c6ac1c74afba/output/.fbm/5E3E2E01/Prolecna deo samo Balon deo 8. april.fbm/SE_Fence_01b_Diffuse.jpg"
        }
      },
      "name": "SE_Fence_01b_Diffuse.jpg",
      "uri": "SE_Fence_01b_Diffuse.jpg"
    },
    {
      "extras": {
        "FBX-glTF-conv": {
          "fileName": "/Users/aleksandarbedov/Documents/CocosCreator/tajanstvenesobe2/temp/asset-db/assets/fbx.FBX-glTF-conv/83cea833-6ee4-47cc-98eb-c6ac1c74afba/output/.fbm/5E3E2E01/Prolecna deo samo Balon deo 8. april.fbm/SE_Henhouse_01a_Diffuse.jpg",
          "relativeFileName": "../../../temp/asset-db/assets/fbx.FBX-glTF-conv/83cea833-6ee4-47cc-98eb-c6ac1c74afba/output/.fbm/5E3E2E01/Prolecna deo samo Balon deo 8. april.fbm/SE_Henhouse_01a_Diffuse.jpg"
        }
      },
      "name": "SE_Henhouse_01a_Diffuse.jpg",
      "uri": "SE_Henhouse_01a_Diffuse.jpg"
    },
    {
      "extras": {
        "FBX-glTF-conv": {
          "fileName": "/Users/aleksandarbedov/Documents/CocosCreator/tajanstvenesobe2/temp/asset-db/assets/fbx.FBX-glTF-conv/83cea833-6ee4-47cc-98eb-c6ac1c74afba/output/.fbm/5E3E2E01/Prolecna deo samo Balon deo 8. april.fbm/SE_Flowers_Diffuse.png",
          "relativeFileName": "../../../temp/asset-db/assets/fbx.FBX-glTF-conv/83cea833-6ee4-47cc-98eb-c6ac1c74afba/output/.fbm/5E3E2E01/Prolecna deo samo Balon deo 8. april.fbm/SE_Flowers_Diffuse.png"
        }
      },
      "name": "SE_Flowers_Diffuse.png1",
      "uri": "SE_Flowers_Diffuse.png"
    },
    {
      "extras": {
        "FBX-glTF-conv": {
          "fileName": "/Users/aleksandarbedov/Documents/CocosCreator/tajanstvenesobe2/temp/asset-db/assets/fbx.FBX-glTF-conv/83cea833-6ee4-47cc-98eb-c6ac1c74afba/output/.fbm/5E3E2E01/Prolecna deo samo Balon deo 8. april.fbm/SE_Basket_01_Diffuse.jpg",
          "relativeFileName": "../../../temp/asset-db/assets/fbx.FBX-glTF-conv/83cea833-6ee4-47cc-98eb-c6ac1c74afba/output/.fbm/5E3E2E01/Prolecna deo samo Balon deo 8. april.fbm/SE_Basket_01_Diffuse.jpg"
        }
      },
      "name": "SE_Basket_01_Diffuse.jpg",
      "uri": "SE_Basket_01_Diffuse.jpg"
    },
    {
      "extras": {
        "FBX-glTF-conv": {
          "fileName": "/Users/aleksandarbedov/Documents/CocosCreator/tajanstvenesobe2/temp/asset-db/assets/fbx.FBX-glTF-conv/83cea833-6ee4-47cc-98eb-c6ac1c74afba/output/.fbm/5E3E2E01/Prolecna deo samo Balon deo 8. april.fbm/SE_Birch_Diffuse.png",
          "relativeFileName": "../../../temp/asset-db/assets/fbx.FBX-glTF-conv/83cea833-6ee4-47cc-98eb-c6ac1c74afba/output/.fbm/5E3E2E01/Prolecna deo samo Balon deo 8. april.fbm/SE_Birch_Diffuse.png"
        }
      },
      "name": "SE_Birch_Diffuse.png",
      "uri": "SE_Birch_Diffuse.png"
    },
    {
      "extras": {
        "FBX-glTF-conv": {
          "fileName": "/Users/aleksandarbedov/Documents/CocosCreator/tajanstvenesobe2/temp/asset-db/assets/fbx.FBX-glTF-conv/83cea833-6ee4-47cc-98eb-c6ac1c74afba/output/.fbm/5E3E2E01/Prolecna deo samo Balon deo 8. april.fbm/SE_Willow_Diffuse.png",
          "relativeFileName": "../../../temp/asset-db/assets/fbx.FBX-glTF-conv/83cea833-6ee4-47cc-98eb-c6ac1c74afba/output/.fbm/5E3E2E01/Prolecna deo samo Balon deo 8. april.fbm/SE_Willow_Diffuse.png"
        }
      },
      "name": "SE_Willow_Diffuse.png",
      "uri": "SE_Willow_Diffuse.png"
    },
    {
      "extras": {
        "FBX-glTF-conv": {
          "fileName": "/Users/aleksandarbedov/Documents/CocosCreator/tajanstvenesobe2/temp/asset-db/assets/fbx.FBX-glTF-conv/83cea833-6ee4-47cc-98eb-c6ac1c74afba/output/.fbm/5E3E2E01/Prolecna deo samo Balon deo 8. april.fbm/SE_Lilac_Diffuse.png",
          "relativeFileName": "../../../temp/asset-db/assets/fbx.FBX-glTF-conv/83cea833-6ee4-47cc-98eb-c6ac1c74afba/output/.fbm/5E3E2E01/Prolecna deo samo Balon deo 8. april.fbm/SE_Lilac_Diffuse.png"
        }
      },
      "name": "SE_Lilac_Diffuse.png",
      "uri": "SE_Lilac_Diffuse.png"
    },
    {
      "extras": {
        "FBX-glTF-conv": {
          "fileName": "/Users/aleksandarbedov/Documents/CocosCreator/tajanstvenesobe2/temp/asset-db/assets/fbx.FBX-glTF-conv/83cea833-6ee4-47cc-98eb-c6ac1c74afba/output/.fbm/5E3E2E01/Prolecna deo samo Balon deo 8. april.fbm/SE_Lamps_01b_Diffuse.jpg",
          "relativeFileName": "../../../temp/asset-db/assets/fbx.FBX-glTF-conv/83cea833-6ee4-47cc-98eb-c6ac1c74afba/output/.fbm/5E3E2E01/Prolecna deo samo Balon deo 8. april.fbm/SE_Lamps_01b_Diffuse.jpg"
        }
      },
      "name": "SE_Lamps_01b_Diffuse.jpg",
      "uri": "SE_Lamps_01b_Diffuse.jpg"
    },
    {
      "extras": {
        "FBX-glTF-conv": {
          "fileName": "/Users/aleksandarbedov/Documents/CocosCreator/tajanstvenesobe2/temp/asset-db/assets/fbx.FBX-glTF-conv/83cea833-6ee4-47cc-98eb-c6ac1c74afba/output/.fbm/5E3E2E01/Prolecna deo samo Balon deo 8. april.fbm/SE_Lamps_Emissive.jpg",
          "relativeFileName": "../../../temp/asset-db/assets/fbx.FBX-glTF-conv/83cea833-6ee4-47cc-98eb-c6ac1c74afba/output/.fbm/5E3E2E01/Prolecna deo samo Balon deo 8. april.fbm/SE_Lamps_Emissive.jpg"
        }
      },
      "name": "SE_Lamps_Emissive.jpg",
      "uri": "SE_Lamps_Emissive.jpg"
    }
  ],
  "materials": [
    {
      "name": "NOVA_Prolecna_scena_31_MAC:SE_Seat_01b_Mat5",
      "pbrMetallicRoughness": {
        "baseColorTexture": {
          "index": 0
        }
      }
    },
    {
      "name": "NOVA_Prolecna_scena_31_MAC:SE_Sunglasses_Mat1",
      "pbrMetallicRoughness": {
        "baseColorTexture": {
          "index": 1
        }
      }
    },
    {
      "name": "NOVA_Prolecna_scena_31_MAC:SE_Fence_b_Mat6",
      "pbrMetallicRoughness": {
        "baseColorTexture": {
          "index": 2
        }
      }
    },
    {
      "name": "NOVA_Prolecna_scena_31_MAC:SE_Henhouse_a_Mat7",
      "pbrMetallicRoughness": {
        "baseColorTexture": {
          "index": 3
        }
      }
    },
    {
      "alphaMode": "BLEND",
      "name": "SE_Flowers_Mat4",
      "pbrMetallicRoughness": {
        "baseColorFactor": [
          1.0,
          1.0,
          1.0,
          0.0
        ],
        "baseColorTexture": {
          "index": 4
        }
      }
    },
    {
      "name": "NOVA_Prolecna_scena_31_MAC:SE_Basket_01_Mat3",
      "pbrMetallicRoughness": {
        "baseColorTexture": {
          "index": 5
        }
      }
    },
    {
      "alphaMode": "BLEND",
      "name": "NOVA_Prolecna_scena_31_MAC:SE_Birch_a_Mat10",
      "pbrMetallicRoughness": {
        "baseColorFactor": [
          1.0,
          1.0,
          1.0,
          0.0
        ],
        "baseColorTexture": {
          "index": 6
        }
      }
    },
    {
      "alphaMode": "BLEND",
      "name": "NOVA_Prolecna_scena_31_MAC:SE_Willow_Mat1",
      "pbrMetallicRoughness": {
        "baseColorFactor": [
          1.0,
          1.0,
          1.0,
          0.0
        ],
        "baseColorTexture": {
          "index": 7
        }
      }
    },
    {
      "alphaMode": "BLEND",
      "name": "NOVA_Prolecna_scena_31_MAC:SE_Lilac_Mat5",
      "pbrMetallicRoughness": {
        "baseColorFactor": [
          1.0,
          1.0,
          1.0,
          0.0
        ],
        "baseColorTexture": {
          "index": 8
        }
      }
    },
    {
      "emissiveFactor": [
        1.0,
        1.0,
        1.0
      ],
      "emissiveTexture": {
        "index": 10
      },
      "name": "NOVA_Prolecna_scena_31_MAC:SE_Lamps_01b_Mat",
      "pbrMetallicRoughness": {
        "baseColorTexture": {
          "index": 9
        }
      }
    }
  ],
  "meshes": [
    {
      "name": "Balon1_Material0",
      "primitives": [
        {
          "attributes": {
            "NORMAL": 1,
            "POSITION": 0,
            "TEXCOORD_0": 2
          },
          "indices": 3,
          "material": 0
        },
        {
          "attributes": {
            "NORMAL": 5,
            "POSITION": 4,
            "TEXCOORD_0": 6
          },
          "indices": 7,
          "material": 1
        },
        {
          "attributes": {
            "NORMAL": 9,
            "POSITION": 8,
            "TEXCOORD_0": 10
          },
          "indices": 11,
          "material": 2
        },
        {
          "attributes": {
            "NORMAL": 13,
            "POSITION": 12,
            "TEXCOORD_0": 14
          },
          "indices": 15,
          "material": 3
        },
        {
          "attributes": {
            "NORMAL": 17,
            "POSITION": 16,
            "TEXCOORD_0": 18
          },
          "indices": 19,
          "material": 4
        },
        {
          "attributes": {
            "NORMAL": 21,
            "POSITION": 20,
            "TEXCOORD_0": 22
          },
          "indices": 23,
          "material": 5
        },
        {
          "attributes": {
            "NORMAL": 25,
            "POSITION": 24,
            "TEXCOORD_0": 26
          },
          "indices": 27,
          "material": 6
        },
        {
          "attributes": {
            "NORMAL": 29,
            "POSITION": 28,
            "TEXCOORD_0": 30
          },
          "indices": 31,
          "material": 7
        },
        {
          "attributes": {
            "NORMAL": 33,
            "POSITION": 32,
            "TEXCOORD_0": 34
          },
          "indices": 35,
          "material": 8
        },
        {
          "attributes": {
            "NORMAL": 37,
            "POSITION": 36,
            "TEXCOORD_0": 38
          },
          "indices": 39,
          "material": 9
        }
      ]
    }
  ],
  "nodes": [
    {
      "mesh": 0,
      "name": "Balon1"
    }
  ],
  "samplers": [
    {}
  ],
  "scenes": [
    {
      "nodes": [
        0
      ]
    }
  ],
  "textures": [
    {
      "name": "SE_Seat_01b_Diffuse.jpg",
      "sampler": 0,
      "source": 0
    },
    {
      "name": "SE_Sunglasses_Diffuse.jpg",
      "sampler": 0,
      "source": 1
    },
    {
      "name": "SE_Fence_01b_Diffuse.jpg",
      "sampler": 0,
      "source": 2
    },
    {
      "name": "SE_Henhouse_01a_Diffuse.jpg",
      "sampler": 0,
      "source": 3
    },
    {
      "name": "SE_Flowers_Diffuse.png1",
      "sampler": 0,
      "source": 4
    },
    {
      "name": "SE_Basket_01_Diffuse.jpg",
      "sampler": 0,
      "source": 5
    },
    {
      "name": "SE_Birch_Diffuse.png",
      "sampler": 0,
      "source": 6
    },
    {
      "name": "SE_Willow_Diffuse.png",
      "sampler": 0,
      "source": 7
    },
    {
      "name": "SE_Lilac_Diffuse.png",
      "sampler": 0,
      "source": 8
    },
    {
      "name": "SE_Lamps_01b_Diffuse.jpg",
      "sampler": 0,
      "source": 9
    },
    {
      "name": "SE_Lamps_Emissive.jpg",
      "sampler": 0,
      "source": 10
    }
  ]
}