{
  "accessors": [
    {
      "bufferView": 0,
      "componentType": 5126,
      "count": 224,
      "max": [
        0.015689583495259285,
        0.02323295548558235,
        0.0009967207442969084
      ],
      "min": [
        -0.01568954437971115,
        -5.2798241085838526e-05,
        -0.0009966540383175015
      ],
      "name": "Stapovi/POSITION",
      "type": "VEC3"
    },
    {
      "bufferView": 0,
      "byteOffset": 12,
      "componentType": 5126,
      "count": 224,
      "name": "Stapovi/NORMAL",
      "type": "VEC3"
    },
    {
      "bufferView": 0,
      "byteOffset": 24,
      "componentType": 5126,
      "count": 224,
      "name": "Stapovi/TEXCOORD_0",
      "type": "VEC2"
    },
    {
      "bufferView": 1,
      "componentType": 5125,
      "count": 336,
      "name": "Stapovi/INDICES",
      "type": "SCALAR"
    },
    {
      "bufferView": 2,
      "componentType": 5126,
      "count": 12,
      "max": [
        0.014130515977740288,
        0.021501274779438972,
        0.0001103138638427481
      ],
      "min": [
        -0.014142418280243874,
        0.0026531792245805264,
        -8.45154354465194e-05
      ],
      "name": "strik_i_cebe/POSITION",
      "type": "VEC3"
    },
    {
      "bufferView": 2,
      "byteOffset": 12,
      "componentType": 5126,
      "count": 12,
      "name": "strik_i_cebe/NORMAL",
      "type": "VEC3"
    },
    {
      "bufferView": 2,
      "byteOffset": 24,
      "componentType": 5126,
      "count": 12,
      "name": "strik_i_cebe/TEXCOORD_0",
      "type": "VEC2"
    },
    {
      "bufferView": 2,
      "byteOffset": 32,
      "componentType": 5123,
      "count": 12,
      "name": "strik_i_cebe/JOINTS_0",
      "type": "VEC4"
    },
    {
      "bufferView": 2,
      "byteOffset": 40,
      "componentType": 5126,
      "count": 12,
      "name": "strik_i_cebe/WEIGHTS_0",
      "type": "VEC4"
    },
    {
      "bufferView": 3,
      "componentType": 5125,
      "count": 36,
      "name": "strik_i_cebe/INDICES",
      "type": "SCALAR"
    },
    {
      "bufferView": 4,
      "componentType": 5126,
      "count": 1,
      "name": "/InverseBindMatrices",
      "type": "MAT4"
    },
    {
      "bufferView": 5,
      "componentType": 5126,
      "count": 100,
      "max": [
        4.125
      ],
      "min": [
        0.0
      ],
      "name": "joint1/Trs/Input",
      "type": "SCALAR"
    },
    {
      "bufferView": 6,
      "componentType": 5126,
      "count": 100,
      "name": "joint1/translation/Output",
      "type": "VEC3"
    },
    {
      "bufferView": 7,
      "componentType": 5126,
      "count": 100,
      "name": "joint1/rotation/Output",
      "type": "VEC4"
    },
    {
      "bufferView": 8,
      "componentType": 5126,
      "count": 100,
      "name": "joint1/scale/Output",
      "type": "VEC3"
    }
  ],
  "animations": [
    {
      "channels": [
        {
          "sampler": 0,
          "target": {
            "node": 3,
            "path": "translation"
          }
        },
        {
          "sampler": 1,
          "target": {
            "node": 3,
            "path": "rotation"
          }
        },
        {
          "sampler": 2,
          "target": {
            "node": 3,
            "path": "scale"
          }
        }
      ],
      "name": "Take 001",
      "samplers": [
        {
          "input": 11,
          "output": 12
        },
        {
          "input": 11,
          "output": 13
        },
        {
          "input": 11,
          "output": 14
        }
      ]
    }
  ],
  "asset": {
    "copyright": "Copyright (c) 2018-2020 Chukong Technologies Inc.",
    "generator": "FBX-glTF-conv",
    "version": "2.0"
  },
  "bufferViews": [
    {
      "buffer": 0,
      "byteLength": 7168,
      "byteStride": 32,
      "name": "Stapovi",
      "target": 34962
    },
    {
      "buffer": 0,
      "byteLength": 1344,
      "byteOffset": 7168
    },
    {
      "buffer": 0,
      "byteLength": 672,
      "byteOffset": 8512,
      "byteStride": 56,
      "name": "strik_i_cebe",
      "target": 34962
    },
    {
      "buffer": 0,
      "byteLength": 144,
      "byteOffset": 9184
    },
    {
      "buffer": 0,
      "byteLength": 64,
      "byteOffset": 9328
    },
    {
      "buffer": 0,
      "byteLength": 400,
      "byteOffset": 9392
    },
    {
      "buffer": 0,
      "byteLength": 1200,
      "byteOffset": 9792
    },
    {
      "buffer": 0,
      "byteLength": 1600,
      "byteOffset": 10992
    },
    {
      "buffer": 0,
      "byteLength": 1200,
      "byteOffset": 12592
    }
  ],
  "buffers": [
    {
      "byteLength": 13792,
      "uri": "out.bin"
    }
  ],
  "extras": {
    "FBX-glTF-conv": {
      "animationFrameRate": 24.0
    }
  },
  "images": [
    {
      "extras": {
        "FBX-glTF-conv": {
          "fileName": "/Users/aleksandarbedov/Documents/CocosCreator/tajanstvenesobe2/temp/asset-db/assets/fbx.FBX-glTF-conv/f11055da-75c1-4dd6-9e73-d8a314c668b1/output/.fbm/5806281A/Cebe i strik.fbm/Medieval_Obj.png",
          "relativeFileName": "../../../temp/asset-db/assets/fbx.FBX-glTF-conv/f11055da-75c1-4dd6-9e73-d8a314c668b1/output/.fbm/5806281A/Cebe i strik.fbm/Medieval_Obj.png"
        }
      },
      "name": "DiffuseColor_Texture",
      "uri": "Medieval_Obj.png"
    }
  ],
  "materials": [
    {
      "alphaMode": "BLEND",
      "name": "Medieval_Obj",
      "pbrMetallicRoughness": {
        "baseColorFactor": [
          1.0,
          1.0,
          1.0,
          0.0
        ],
        "baseColorTexture": {
          "index": 0
        }
      }
    }
  ],
  "meshes": [
    {
      "name": "Stapovi",
      "primitives": [
        {
          "attributes": {
            "NORMAL": 1,
            "POSITION": 0,
            "TEXCOORD_0": 2
          },
          "indices": 3,
          "material": 0
        }
      ]
    },
    {
      "name": "strik_i_cebe",
      "primitives": [
        {
          "attributes": {
            "JOINTS_0": 7,
            "NORMAL": 5,
            "POSITION": 4,
            "TEXCOORD_0": 6,
            "WEIGHTS_0": 8
          },
          "indices": 9,
          "material": 0
        }
      ]
    }
  ],
  "nodes": [
    {
      "children": [
        1,
        2,
        3
      ],
      "name": "Strik_i_cebe"
    },
    {
      "mesh": 0,
      "name": "Stapovi"
    },
    {
      "mesh": 1,
      "name": "strik_i_cebe",
      "scale": [
        1.0,
        1.0,
        2.293224334716797
      ],
      "skin": 0,
      "translation": [
        0.0,
        0.0,
        -3.665599797386676e-05
      ]
    },
    {
      "extras": {
        "FBX-glTF-conv": {
          "skeleton": {
            "skeletonType": "LimbNode"
          }
        }
      },
      "name": "joint1",
      "rotation": [
        -0.057930879294872284,
        -0.0,
        0.0,
        0.9983205795288086
      ],
      "scale": [
        1.0,
        0.8736568689346313,
        1.0
      ],
      "translation": [
        0.0,
        0.02013343945145607,
        0.0
      ]
    }
  ],
  "samplers": [
    {}
  ],
  "scenes": [
    {
      "nodes": [
        0
      ]
    }
  ],
  "skins": [
    {
      "inverseBindMatrices": 10,
      "joints": [
        3
      ]
    }
  ],
  "textures": [
    {
      "name": "DiffuseColor_Texture",
      "sampler": 0,
      "source": 0
    }
  ]
}