{
  "accessors": [
    {
      "bufferView": 0,
      "componentType": 5126,
      "count": 1182,
      "max": [
        0.0029032223392277956,
        0.0023052748292684555,
        -0.0005751843564212322
      ],
      "min": [
        0.00014781295612920076,
        -0.003740983083844185,
        -0.004049201030284166
      ],
      "name": "KOREKCIJE_Grad_nevidljivih_ljudi_samo_anim:Crveni_fenjer_Material0/POSITION",
      "type": "VEC3"
    },
    {
      "bufferView": 0,
      "byteOffset": 12,
      "componentType": 5126,
      "count": 1182,
      "name": "KOREKCIJE_Grad_nevidljivih_ljudi_samo_anim:Crveni_fenjer_Material0/NORMAL",
      "type": "VEC3"
    },
    {
      "bufferView": 0,
      "byteOffset": 24,
      "componentType": 5126,
      "count": 1182,
      "name": "KOREKCIJE_Grad_nevidljivih_ljudi_samo_anim:Crveni_fenjer_Material0/TEXCOORD_0",
      "type": "VEC2"
    },
    {
      "bufferView": 0,
      "byteOffset": 32,
      "componentType": 5126,
      "count": 1182,
      "name": "KOREKCIJE_Grad_nevidljivih_ljudi_samo_anim:Crveni_fenjer_Material0/TEXCOORD_1",
      "type": "VEC2"
    },
    {
      "bufferView": 0,
      "byteOffset": 40,
      "componentType": 5123,
      "count": 1182,
      "name": "KOREKCIJE_Grad_nevidljivih_ljudi_samo_anim:Crveni_fenjer_Material0/JOINTS_0",
      "type": "VEC4"
    },
    {
      "bufferView": 0,
      "byteOffset": 48,
      "componentType": 5126,
      "count": 1182,
      "name": "KOREKCIJE_Grad_nevidljivih_ljudi_samo_anim:Crveni_fenjer_Material0/WEIGHTS_0",
      "type": "VEC4"
    },
    {
      "bufferView": 1,
      "componentType": 5125,
      "count": 2391,
      "name": "KOREKCIJE_Grad_nevidljivih_ljudi_samo_anim:Crveni_fenjer_Material0/INDICES",
      "type": "SCALAR"
    },
    {
      "bufferView": 2,
      "componentType": 5126,
      "count": 69,
      "max": [
        0.0025941438507288694,
        0.00022243772400543094,
        -0.0011808907147496939
      ],
      "min": [
        0.00046286769793368876,
        -0.002003298606723547,
        -0.003461901331320405
      ],
      "name": "KOREKCIJE_Grad_nevidljivih_ljudi_samo_anim:Crveni_fenjer_Material0/POSITION",
      "type": "VEC3"
    },
    {
      "bufferView": 2,
      "byteOffset": 12,
      "componentType": 5126,
      "count": 69,
      "name": "KOREKCIJE_Grad_nevidljivih_ljudi_samo_anim:Crveni_fenjer_Material0/NORMAL",
      "type": "VEC3"
    },
    {
      "bufferView": 2,
      "byteOffset": 24,
      "componentType": 5126,
      "count": 69,
      "name": "KOREKCIJE_Grad_nevidljivih_ljudi_samo_anim:Crveni_fenjer_Material0/TEXCOORD_0",
      "type": "VEC2"
    },
    {
      "bufferView": 2,
      "byteOffset": 32,
      "componentType": 5126,
      "count": 69,
      "name": "KOREKCIJE_Grad_nevidljivih_ljudi_samo_anim:Crveni_fenjer_Material0/TEXCOORD_1",
      "type": "VEC2"
    },
    {
      "bufferView": 2,
      "byteOffset": 40,
      "componentType": 5123,
      "count": 69,
      "name": "KOREKCIJE_Grad_nevidljivih_ljudi_samo_anim:Crveni_fenjer_Material0/JOINTS_0",
      "type": "VEC4"
    },
    {
      "bufferView": 2,
      "byteOffset": 48,
      "componentType": 5126,
      "count": 69,
      "name": "KOREKCIJE_Grad_nevidljivih_ljudi_samo_anim:Crveni_fenjer_Material0/WEIGHTS_0",
      "type": "VEC4"
    },
    {
      "bufferView": 3,
      "componentType": 5125,
      "count": 171,
      "name": "KOREKCIJE_Grad_nevidljivih_ljudi_samo_anim:Crveni_fenjer_Material0/INDICES",
      "type": "SCALAR"
    },
    {
      "bufferView": 4,
      "componentType": 5126,
      "count": 1,
      "name": "/InverseBindMatrices",
      "type": "MAT4"
    },
    {
      "bufferView": 5,
      "componentType": 5126,
      "count": 419,
      "max": [
        0.3908313512802124,
        -0.007347641047090292,
        0.41512203216552734
      ],
      "min": [
        -0.4456425905227661,
        -1.1592106819152832,
        -0.4296221137046814
      ],
      "name": "KOREKCIJE_Grad_nevidljivih_ljudi_samo_anim:Crveni_fenjer_stalak_Material0/POSITION",
      "type": "VEC3"
    },
    {
      "bufferView": 5,
      "byteOffset": 12,
      "componentType": 5126,
      "count": 419,
      "name": "KOREKCIJE_Grad_nevidljivih_ljudi_samo_anim:Crveni_fenjer_stalak_Material0/NORMAL",
      "type": "VEC3"
    },
    {
      "bufferView": 5,
      "byteOffset": 24,
      "componentType": 5126,
      "count": 419,
      "name": "KOREKCIJE_Grad_nevidljivih_ljudi_samo_anim:Crveni_fenjer_stalak_Material0/TEXCOORD_0",
      "type": "VEC2"
    },
    {
      "bufferView": 5,
      "byteOffset": 32,
      "componentType": 5126,
      "count": 419,
      "name": "KOREKCIJE_Grad_nevidljivih_ljudi_samo_anim:Crveni_fenjer_stalak_Material0/TEXCOORD_1",
      "type": "VEC2"
    },
    {
      "bufferView": 6,
      "componentType": 5125,
      "count": 648,
      "name": "KOREKCIJE_Grad_nevidljivih_ljudi_samo_anim:Crveni_fenjer_stalak_Material0/INDICES",
      "type": "SCALAR"
    },
    {
      "bufferView": 7,
      "componentType": 5126,
      "count": 616,
      "max": [
        0.20524618029594421,
        4.345322132110596,
        0.22485385835170746
      ],
      "min": [
        -1.4552931785583496,
        -0.033496782183647156,
        -0.2285858690738678
      ],
      "name": "KOREKCIJE_Grad_nevidljivih_ljudi_samo_anim:Crveni_fenjer_stalak_Material0/POSITION",
      "type": "VEC3"
    },
    {
      "bufferView": 7,
      "byteOffset": 12,
      "componentType": 5126,
      "count": 616,
      "name": "KOREKCIJE_Grad_nevidljivih_ljudi_samo_anim:Crveni_fenjer_stalak_Material0/NORMAL",
      "type": "VEC3"
    },
    {
      "bufferView": 7,
      "byteOffset": 24,
      "componentType": 5126,
      "count": 616,
      "name": "KOREKCIJE_Grad_nevidljivih_ljudi_samo_anim:Crveni_fenjer_stalak_Material0/TEXCOORD_0",
      "type": "VEC2"
    },
    {
      "bufferView": 7,
      "byteOffset": 32,
      "componentType": 5126,
      "count": 616,
      "name": "KOREKCIJE_Grad_nevidljivih_ljudi_samo_anim:Crveni_fenjer_stalak_Material0/TEXCOORD_1",
      "type": "VEC2"
    },
    {
      "bufferView": 8,
      "componentType": 5125,
      "count": 1218,
      "name": "KOREKCIJE_Grad_nevidljivih_ljudi_samo_anim:Crveni_fenjer_stalak_Material0/INDICES",
      "type": "SCALAR"
    },
    {
      "bufferView": 9,
      "componentType": 5126,
      "count": 103,
      "max": [
        0.16127711534500122,
        4.756779670715332,
        0.1871870458126068
      ],
      "min": [
        -0.20409630239009857,
        -0.5145865082740784,
        -0.19091904163360596
      ],
      "name": "KOREKCIJE_Grad_nevidljivih_ljudi_samo_anim:Crveni_fenjer_stalak_Material0/POSITION",
      "type": "VEC3"
    },
    {
      "bufferView": 9,
      "byteOffset": 12,
      "componentType": 5126,
      "count": 103,
      "name": "KOREKCIJE_Grad_nevidljivih_ljudi_samo_anim:Crveni_fenjer_stalak_Material0/NORMAL",
      "type": "VEC3"
    },
    {
      "bufferView": 9,
      "byteOffset": 24,
      "componentType": 5126,
      "count": 103,
      "name": "KOREKCIJE_Grad_nevidljivih_ljudi_samo_anim:Crveni_fenjer_stalak_Material0/TEXCOORD_0",
      "type": "VEC2"
    },
    {
      "bufferView": 9,
      "byteOffset": 32,
      "componentType": 5126,
      "count": 103,
      "name": "KOREKCIJE_Grad_nevidljivih_ljudi_samo_anim:Crveni_fenjer_stalak_Material0/TEXCOORD_1",
      "type": "VEC2"
    },
    {
      "bufferView": 10,
      "componentType": 5125,
      "count": 198,
      "name": "KOREKCIJE_Grad_nevidljivih_ljudi_samo_anim:Crveni_fenjer_stalak_Material0/INDICES",
      "type": "SCALAR"
    },
    {
      "bufferView": 11,
      "componentType": 5126,
      "count": 101,
      "max": [
        4.958333492279053
      ],
      "min": [
        0.0
      ],
      "name": "KOREKCIJE_Grad_nevidljivih_ljudi_samo_anim:joint19/Trs/Input",
      "type": "SCALAR"
    },
    {
      "bufferView": 12,
      "componentType": 5126,
      "count": 101,
      "name": "KOREKCIJE_Grad_nevidljivih_ljudi_samo_anim:joint19/translation/Output",
      "type": "VEC3"
    },
    {
      "bufferView": 13,
      "componentType": 5126,
      "count": 101,
      "name": "KOREKCIJE_Grad_nevidljivih_ljudi_samo_anim:joint19/rotation/Output",
      "type": "VEC4"
    },
    {
      "bufferView": 14,
      "componentType": 5126,
      "count": 101,
      "name": "KOREKCIJE_Grad_nevidljivih_ljudi_samo_anim:joint19/scale/Output",
      "type": "VEC3"
    }
  ],
  "animations": [
    {
      "channels": [
        {
          "sampler": 0,
          "target": {
            "node": 2,
            "path": "translation"
          }
        },
        {
          "sampler": 1,
          "target": {
            "node": 2,
            "path": "rotation"
          }
        },
        {
          "sampler": 2,
          "target": {
            "node": 2,
            "path": "scale"
          }
        }
      ],
      "name": "Take 001",
      "samplers": [
        {
          "input": 30,
          "output": 31
        },
        {
          "input": 30,
          "output": 32
        },
        {
          "input": 30,
          "output": 33
        }
      ]
    }
  ],
  "asset": {
    "copyright": "Copyright (c) 2018-2020 Chukong Technologies Inc.",
    "generator": "FBX-glTF-conv",
    "version": "2.0"
  },
  "bufferViews": [
    {
      "buffer": 0,
      "byteLength": 75648,
      "byteStride": 64,
      "name": "KOREKCIJE_Grad_nevidljivih_ljudi_samo_anim:Crveni_fenjer_Material0",
      "target": 34962
    },
    {
      "buffer": 0,
      "byteLength": 9564,
      "byteOffset": 75648
    },
    {
      "buffer": 0,
      "byteLength": 4416,
      "byteOffset": 85212,
      "byteStride": 64,
      "name": "KOREKCIJE_Grad_nevidljivih_ljudi_samo_anim:Crveni_fenjer_Material0",
      "target": 34962
    },
    {
      "buffer": 0,
      "byteLength": 684,
      "byteOffset": 89628
    },
    {
      "buffer": 0,
      "byteLength": 64,
      "byteOffset": 90312
    },
    {
      "buffer": 0,
      "byteLength": 16760,
      "byteOffset": 90376,
      "byteStride": 40,
      "name": "KOREKCIJE_Grad_nevidljivih_ljudi_samo_anim:Crveni_fenjer_stalak_Material0",
      "target": 34962
    },
    {
      "buffer": 0,
      "byteLength": 2592,
      "byteOffset": 107136
    },
    {
      "buffer": 0,
      "byteLength": 24640,
      "byteOffset": 109728,
      "byteStride": 40,
      "name": "KOREKCIJE_Grad_nevidljivih_ljudi_samo_anim:Crveni_fenjer_stalak_Material0",
      "target": 34962
    },
    {
      "buffer": 0,
      "byteLength": 4872,
      "byteOffset": 134368
    },
    {
      "buffer": 0,
      "byteLength": 4120,
      "byteOffset": 139240,
      "byteStride": 40,
      "name": "KOREKCIJE_Grad_nevidljivih_ljudi_samo_anim:Crveni_fenjer_stalak_Material0",
      "target": 34962
    },
    {
      "buffer": 0,
      "byteLength": 792,
      "byteOffset": 143360
    },
    {
      "buffer": 0,
      "byteLength": 404,
      "byteOffset": 144152
    },
    {
      "buffer": 0,
      "byteLength": 1212,
      "byteOffset": 144556
    },
    {
      "buffer": 0,
      "byteLength": 1616,
      "byteOffset": 145768
    },
    {
      "buffer": 0,
      "byteLength": 1212,
      "byteOffset": 147384
    }
  ],
  "buffers": [
    {
      "byteLength": 148596,
      "uri": "out.bin"
    }
  ],
  "extras": {
    "FBX-glTF-conv": {
      "animationFrameRate": 24.0
    }
  },
  "images": [
    {
      "extras": {
        "FBX-glTF-conv": {
          "fileName": "/Users/aleksandarbedov/Documents/CocosCreator/tajanstvenesobe2/temp/asset-db/assets/fbx.FBX-glTF-conv/368237f6-31c3-4684-bdbf-513920fd7582/output/.fbm/5BC037BF/Grad nevidljivih ljudi samo crveni fenjer 30 maj.fbm/Manmade04Diffuse.jpg",
          "relativeFileName": "../../../temp/asset-db/assets/fbx.FBX-glTF-conv/368237f6-31c3-4684-bdbf-513920fd7582/output/.fbm/5BC037BF/Grad nevidljivih ljudi samo crveni fenjer 30 maj.fbm/Manmade04Diffuse.jpg"
        }
      },
      "name": "DiffuseColor_Texture_3",
      "uri": "Manmade04Diffuse.jpg"
    },
    {
      "extras": {
        "FBX-glTF-conv": {
          "fileName": "/Users/aleksandarbedov/Documents/CocosCreator/tajanstvenesobe2/temp/asset-db/assets/fbx.FBX-glTF-conv/368237f6-31c3-4684-bdbf-513920fd7582/output/.fbm/5BC037BF/Grad nevidljivih ljudi samo crveni fenjer 30 maj.fbm/Stone01Diffuse.jpg",
          "relativeFileName": "../../../temp/asset-db/assets/fbx.FBX-glTF-conv/368237f6-31c3-4684-bdbf-513920fd7582/output/.fbm/5BC037BF/Grad nevidljivih ljudi samo crveni fenjer 30 maj.fbm/Stone01Diffuse.jpg"
        }
      },
      "name": "DiffuseColor_Texture_21",
      "uri": "Stone01Diffuse.jpg"
    },
    {
      "extras": {
        "FBX-glTF-conv": {
          "fileName": "/Users/aleksandarbedov/Documents/CocosCreator/tajanstvenesobe2/temp/asset-db/assets/fbx.FBX-glTF-conv/368237f6-31c3-4684-bdbf-513920fd7582/output/.fbm/5BC037BF/Grad nevidljivih ljudi samo crveni fenjer 30 maj.fbm/Manmade02Diffuse.jpg",
          "relativeFileName": "../../../temp/asset-db/assets/fbx.FBX-glTF-conv/368237f6-31c3-4684-bdbf-513920fd7582/output/.fbm/5BC037BF/Grad nevidljivih ljudi samo crveni fenjer 30 maj.fbm/Manmade02Diffuse.jpg"
        }
      },
      "name": "DiffuseColor_Texture_2",
      "uri": "Manmade02Diffuse.jpg"
    }
  ],
  "materials": [
    {
      "name": "Manmade04Diffuse1",
      "pbrMetallicRoughness": {
        "baseColorTexture": {
          "index": 0
        }
      }
    },
    {
      "name": "Manmade03Diffuse4"
    },
    {
      "name": "Stone01Diffuse",
      "pbrMetallicRoughness": {
        "baseColorTexture": {
          "index": 1
        }
      }
    },
    {
      "name": "Manmade02Diffuse2",
      "pbrMetallicRoughness": {
        "baseColorTexture": {
          "index": 2
        }
      }
    }
  ],
  "meshes": [
    {
      "name": "KOREKCIJE_Grad_nevidljivih_ljudi_samo_anim:Crveni_fenjer_Material0",
      "primitives": [
        {
          "attributes": {
            "JOINTS_0": 4,
            "NORMAL": 1,
            "POSITION": 0,
            "TEXCOORD_0": 2,
            "TEXCOORD_1": 3,
            "WEIGHTS_0": 5
          },
          "indices": 6,
          "material": 0
        },
        {
          "attributes": {
            "JOINTS_0": 11,
            "NORMAL": 8,
            "POSITION": 7,
            "TEXCOORD_0": 9,
            "TEXCOORD_1": 10,
            "WEIGHTS_0": 12
          },
          "indices": 13,
          "material": 1
        }
      ]
    },
    {
      "name": "KOREKCIJE_Grad_nevidljivih_ljudi_samo_anim:Crveni_fenjer_stalak_Material0",
      "primitives": [
        {
          "attributes": {
            "NORMAL": 16,
            "POSITION": 15,
            "TEXCOORD_0": 17,
            "TEXCOORD_1": 18
          },
          "indices": 19,
          "material": 2
        },
        {
          "attributes": {
            "NORMAL": 21,
            "POSITION": 20,
            "TEXCOORD_0": 22,
            "TEXCOORD_1": 23
          },
          "indices": 24,
          "material": 0
        },
        {
          "attributes": {
            "NORMAL": 26,
            "POSITION": 25,
            "TEXCOORD_0": 27,
            "TEXCOORD_1": 28
          },
          "indices": 29,
          "material": 3
        }
      ]
    }
  ],
  "nodes": [
    {
      "children": [
        1,
        3
      ],
      "name": "Crveni_fenjer_anim"
    },
    {
      "children": [
        2
      ],
      "mesh": 0,
      "name": "KOREKCIJE_Grad_nevidljivih_ljudi_samo_anim:Crveni_fenjer",
      "skin": 0,
      "translation": [
        -0.060302987694740295,
        0.03956674039363861,
        -0.05568285286426544
      ]
    },
    {
      "extras": {
        "FBX-glTF-conv": {
          "skeleton": {
            "skeletonType": "LimbNode"
          }
        }
      },
      "name": "KOREKCIJE_Grad_nevidljivih_ljudi_samo_anim:joint19",
      "rotation": [
        0.05561985448002815,
        0.109152652323246,
        0.027316585183143616,
        0.992091715335846
      ],
      "translation": [
        0.0010006236843764782,
        0.0019052410498261452,
        -0.0014114804798737168
      ]
    },
    {
      "mesh": 1,
      "name": "KOREKCIJE_Grad_nevidljivih_ljudi_samo_anim:Crveni_fenjer_stalak",
      "rotation": [
        6.334273183478738e-17,
        0.9993844628334045,
        6.334273183478738e-17,
        -0.03508087247610092
      ],
      "scale": [
        0.003350005252286792,
        0.003350005252286792,
        0.003350005252286792
      ],
      "translation": [
        -0.06314076483249664,
        0.028339317068457603,
        -0.056779537349939346
      ]
    }
  ],
  "samplers": [
    {}
  ],
  "scenes": [
    {
      "nodes": [
        0
      ]
    }
  ],
  "skins": [
    {
      "inverseBindMatrices": 14,
      "joints": [
        2
      ]
    }
  ],
  "textures": [
    {
      "name": "DiffuseColor_Texture_3",
      "sampler": 0,
      "source": 0
    },
    {
      "name": "DiffuseColor_Texture_21",
      "sampler": 0,
      "source": 1
    },
    {
      "name": "DiffuseColor_Texture_2",
      "sampler": 0,
      "source": 2
    }
  ]
}