{
  "accessors": [
    {
      "bufferView": 0,
      "componentType": 5126,
      "count": 520,
      "max": [
        0.007980447262525558,
        0.0394027903676033,
        0.039402808994054794
      ],
      "min": [
        -0.00826327595859766,
        -0.0394027903676033,
        -0.039402808994054794
      ],
      "name": "Tockic_vetrenjaca_Material0/POSITION",
      "type": "VEC3"
    },
    {
      "bufferView": 0,
      "byteOffset": 12,
      "componentType": 5126,
      "count": 520,
      "name": "Tockic_vetrenjaca_Material0/NORMAL",
      "type": "VEC3"
    },
    {
      "bufferView": 0,
      "byteOffset": 24,
      "componentType": 5126,
      "count": 520,
      "name": "Tockic_vetrenjaca_Material0/TEXCOORD_0",
      "type": "VEC2"
    },
    {
      "bufferView": 1,
      "componentType": 5125,
      "count": 1080,
      "name": "Tockic_vetrenjaca_Material0/INDICES",
      "type": "SCALAR"
    },
    {
      "bufferView": 2,
      "componentType": 5126,
      "count": 122,
      "max": [
        0.007980447262525558,
        0.003277044277638197,
        0.0032438659109175205
      ],
      "min": [
        -0.00826327595859766,
        -0.002755117369815707,
        -0.0027883148286491632
      ],
      "name": "Tockic_vetrenjaca_Material0/POSITION",
      "type": "VEC3"
    },
    {
      "bufferView": 2,
      "byteOffset": 12,
      "componentType": 5126,
      "count": 122,
      "name": "Tockic_vetrenjaca_Material0/NORMAL",
      "type": "VEC3"
    },
    {
      "bufferView": 2,
      "byteOffset": 24,
      "componentType": 5126,
      "count": 122,
      "name": "Tockic_vetrenjaca_Material0/TEXCOORD_0",
      "type": "VEC2"
    },
    {
      "bufferView": 3,
      "componentType": 5125,
      "count": 360,
      "name": "Tockic_vetrenjaca_Material0/INDICES",
      "type": "SCALAR"
    },
    {
      "bufferView": 4,
      "componentType": 5126,
      "count": 96,
      "max": [
        0.00670577771961689,
        0.03219980373978615,
        0.03169052302837372
      ],
      "min": [
        -0.00670577771961689,
        -0.03240003436803818,
        -0.03138032928109169
      ],
      "name": "Tockic_vetrenjaca_Material0/POSITION",
      "type": "VEC3"
    },
    {
      "bufferView": 4,
      "byteOffset": 12,
      "componentType": 5126,
      "count": 96,
      "name": "Tockic_vetrenjaca_Material0/NORMAL",
      "type": "VEC3"
    },
    {
      "bufferView": 4,
      "byteOffset": 24,
      "componentType": 5126,
      "count": 96,
      "name": "Tockic_vetrenjaca_Material0/TEXCOORD_0",
      "type": "VEC2"
    },
    {
      "bufferView": 5,
      "componentType": 5125,
      "count": 144,
      "name": "Tockic_vetrenjaca_Material0/INDICES",
      "type": "SCALAR"
    },
    {
      "bufferView": 6,
      "componentType": 5126,
      "count": 484,
      "max": [
        0.0096078896895051,
        0.0039791204035282135,
        0.003907146397978067
      ],
      "min": [
        -0.0096078896895051,
        -0.00360108376480639,
        -0.0036730384454131126
      ],
      "name": "Tockic_vetrenjaca_Material0/POSITION",
      "type": "VEC3"
    },
    {
      "bufferView": 6,
      "byteOffset": 12,
      "componentType": 5126,
      "count": 484,
      "name": "Tockic_vetrenjaca_Material0/NORMAL",
      "type": "VEC3"
    },
    {
      "bufferView": 6,
      "byteOffset": 24,
      "componentType": 5126,
      "count": 484,
      "name": "Tockic_vetrenjaca_Material0/TEXCOORD_0",
      "type": "VEC2"
    },
    {
      "bufferView": 7,
      "componentType": 5125,
      "count": 1200,
      "name": "Tockic_vetrenjaca_Material0/INDICES",
      "type": "SCALAR"
    }
  ],
  "asset": {
    "copyright": "Copyright (c) 2018-2020 Chukong Technologies Inc.",
    "generator": "FBX-glTF-conv",
    "version": "2.0"
  },
  "bufferViews": [
    {
      "buffer": 0,
      "byteLength": 16640,
      "byteStride": 32,
      "name": "Tockic_vetrenjaca_Material0",
      "target": 34962
    },
    {
      "buffer": 0,
      "byteLength": 4320,
      "byteOffset": 16640
    },
    {
      "buffer": 0,
      "byteLength": 3904,
      "byteOffset": 20960,
      "byteStride": 32,
      "name": "Tockic_vetrenjaca_Material0",
      "target": 34962
    },
    {
      "buffer": 0,
      "byteLength": 1440,
      "byteOffset": 24864
    },
    {
      "buffer": 0,
      "byteLength": 3072,
      "byteOffset": 26304,
      "byteStride": 32,
      "name": "Tockic_vetrenjaca_Material0",
      "target": 34962
    },
    {
      "buffer": 0,
      "byteLength": 576,
      "byteOffset": 29376
    },
    {
      "buffer": 0,
      "byteLength": 15488,
      "byteOffset": 29952,
      "byteStride": 32,
      "name": "Tockic_vetrenjaca_Material0",
      "target": 34962
    },
    {
      "buffer": 0,
      "byteLength": 4800,
      "byteOffset": 45440
    }
  ],
  "buffers": [
    {
      "byteLength": 50240,
      "uri": "out.bin"
    }
  ],
  "extras": {
    "FBX-glTF-conv": {
      "animationFrameRate": 24.0
    }
  },
  "materials": [
    {
      "alphaMode": "BLEND",
      "name": "plastika_za_vetrenjacu",
      "pbrMetallicRoughness": {
        "baseColorFactor": [
          0.4000000059604645,
          0.4000000059604645,
          0.4000000059604645,
          0.20229005813598633
        ],
        "metallicFactor": 0.4000000059604645,
        "roughnessFactor": 0.49053239822387695
      }
    },
    {
      "name": "lambert1",
      "pbrMetallicRoughness": {
        "baseColorFactor": [
          0.4000000059604645,
          0.4000000059604645,
          0.4000000059604645,
          1.0
        ]
      }
    },
    {
      "name": "postolje",
      "pbrMetallicRoughness": {
        "baseColorFactor": [
          0.800000011920929,
          0.46829333901405334,
          0.0,
          1.0
        ],
        "metallicFactor": 0.4000000059604645,
        "roughnessFactor": 0.49053239822387695
      }
    },
    {
      "name": "metal_za_tastere",
      "pbrMetallicRoughness": {
        "baseColorFactor": [
          0.7450382113456726,
          0.7450382113456726,
          0.7450382113456726,
          1.0
        ],
        "metallicFactor": 0.4000000059604645,
        "roughnessFactor": 0.30151134729385376
      }
    }
  ],
  "meshes": [
    {
      "name": "Tockic_vetrenjaca_Material0",
      "primitives": [
        {
          "attributes": {
            "NORMAL": 1,
            "POSITION": 0,
            "TEXCOORD_0": 2
          },
          "indices": 3,
          "material": 0
        },
        {
          "attributes": {
            "NORMAL": 5,
            "POSITION": 4,
            "TEXCOORD_0": 6
          },
          "indices": 7,
          "material": 1
        },
        {
          "attributes": {
            "NORMAL": 9,
            "POSITION": 8,
            "TEXCOORD_0": 10
          },
          "indices": 11,
          "material": 2
        },
        {
          "attributes": {
            "NORMAL": 13,
            "POSITION": 12,
            "TEXCOORD_0": 14
          },
          "indices": 15,
          "material": 3
        }
      ]
    }
  ],
  "nodes": [
    {
      "children": [
        1
      ],
      "name": "Goldberg_2"
    },
    {
      "mesh": 0,
      "name": "Tockic_vetrenjaca",
      "translation": [
        0.02013925462961197,
        0.11520679295063019,
        0.2797722816467285
      ]
    }
  ],
  "scenes": [
    {
      "nodes": [
        0
      ]
    }
  ]
}