{
  "accessors": [
    {
      "bufferView": 0,
      "componentType": 5126,
      "count": 97,
      "max": [
        1.9697009325027466,
        0.14551006257534027,
        1.2012832164764404
      ],
      "min": [
        -1.8423547744750977,
        -0.07984811812639236,
        -1.4117196798324585
      ],
      "name": "Bara_korito_Material0/POSITION",
      "type": "VEC3"
    },
    {
      "bufferView": 0,
      "byteOffset": 12,
      "componentType": 5126,
      "count": 97,
      "name": "Bara_korito_Material0/NORMAL",
      "type": "VEC3"
    },
    {
      "bufferView": 0,
      "byteOffset": 24,
      "componentType": 5126,
      "count": 97,
      "name": "Bara_korito_Material0/TEXCOORD_0",
      "type": "VEC2"
    },
    {
      "bufferView": 1,
      "componentType": 5125,
      "count": 528,
      "name": "Bara_korito_Material0/INDICES",
      "type": "SCALAR"
    },
    {
      "bufferView": 2,
      "componentType": 5126,
      "count": 483,
      "max": [
        1.72698175907135,
        0.8577672839164734,
        1.117629051208496
      ],
      "min": [
        -1.582340121269226,
        -0.05734414979815483,
        -1.2949273586273193
      ],
      "name": "Bara_korito_Material0/POSITION",
      "type": "VEC3"
    },
    {
      "bufferView": 2,
      "byteOffset": 12,
      "componentType": 5126,
      "count": 483,
      "name": "Bara_korito_Material0/NORMAL",
      "type": "VEC3"
    },
    {
      "bufferView": 2,
      "byteOffset": 24,
      "componentType": 5126,
      "count": 483,
      "name": "Bara_korito_Material0/TEXCOORD_0",
      "type": "VEC2"
    },
    {
      "bufferView": 3,
      "componentType": 5125,
      "count": 2439,
      "name": "Bara_korito_Material0/INDICES",
      "type": "SCALAR"
    },
    {
      "bufferView": 4,
      "componentType": 5126,
      "count": 495,
      "max": [
        1.961228609085083,
        0.5450063347816467,
        1.3405297994613647
      ],
      "min": [
        0.4549407958984375,
        -0.05861370265483856,
        -0.2636779844760895
      ],
      "name": "Bara_korito_Material0/POSITION",
      "type": "VEC3"
    },
    {
      "bufferView": 4,
      "byteOffset": 12,
      "componentType": 5126,
      "count": 495,
      "name": "Bara_korito_Material0/NORMAL",
      "type": "VEC3"
    },
    {
      "bufferView": 4,
      "byteOffset": 24,
      "componentType": 5126,
      "count": 495,
      "name": "Bara_korito_Material0/TEXCOORD_0",
      "type": "VEC2"
    },
    {
      "bufferView": 5,
      "componentType": 5125,
      "count": 1584,
      "name": "Bara_korito_Material0/INDICES",
      "type": "SCALAR"
    },
    {
      "bufferView": 6,
      "componentType": 5126,
      "count": 512,
      "max": [
        0.4197619557380676,
        0.788776159286499,
        1.165635108947754
      ],
      "min": [
        -1.7937829494476318,
        -0.09276189655065536,
        -1.575697660446167
      ],
      "name": "Bara_korito_Material0/POSITION",
      "type": "VEC3"
    },
    {
      "bufferView": 6,
      "byteOffset": 12,
      "componentType": 5126,
      "count": 512,
      "name": "Bara_korito_Material0/NORMAL",
      "type": "VEC3"
    },
    {
      "bufferView": 6,
      "byteOffset": 24,
      "componentType": 5126,
      "count": 512,
      "name": "Bara_korito_Material0/TEXCOORD_0",
      "type": "VEC2"
    },
    {
      "bufferView": 7,
      "componentType": 5125,
      "count": 1152,
      "name": "Bara_korito_Material0/INDICES",
      "type": "SCALAR"
    },
    {
      "bufferView": 8,
      "componentType": 5126,
      "count": 128,
      "max": [
        1.4681975841522217,
        0.6622475385665894,
        -0.1910437047481537
      ],
      "min": [
        0.16554565727710724,
        0.08626436442136765,
        -1.3481662273406982
      ],
      "name": "Bara_korito_Material0/POSITION",
      "type": "VEC3"
    },
    {
      "bufferView": 8,
      "byteOffset": 12,
      "componentType": 5126,
      "count": 128,
      "name": "Bara_korito_Material0/NORMAL",
      "type": "VEC3"
    },
    {
      "bufferView": 8,
      "byteOffset": 24,
      "componentType": 5126,
      "count": 128,
      "name": "Bara_korito_Material0/TEXCOORD_0",
      "type": "VEC2"
    },
    {
      "bufferView": 9,
      "componentType": 5125,
      "count": 288,
      "name": "Bara_korito_Material0/INDICES",
      "type": "SCALAR"
    },
    {
      "bufferView": 10,
      "componentType": 5126,
      "count": 64,
      "max": [
        1.2456135749816895,
        0.16435439884662628,
        0.8012079000473022
      ],
      "min": [
        -1.3258225917816162,
        0.09530790150165558,
        -0.9582794308662415
      ],
      "name": "Bara_voda/POSITION",
      "type": "VEC3"
    },
    {
      "bufferView": 10,
      "byteOffset": 12,
      "componentType": 5126,
      "count": 64,
      "name": "Bara_voda/NORMAL",
      "type": "VEC3"
    },
    {
      "bufferView": 10,
      "byteOffset": 24,
      "componentType": 5126,
      "count": 64,
      "name": "Bara_voda/TEXCOORD_0",
      "type": "VEC2"
    },
    {
      "bufferView": 10,
      "byteOffset": 32,
      "componentType": 5123,
      "count": 64,
      "name": "Bara_voda/JOINTS_0",
      "type": "VEC4"
    },
    {
      "bufferView": 10,
      "byteOffset": 40,
      "componentType": 5126,
      "count": 64,
      "name": "Bara_voda/WEIGHTS_0",
      "type": "VEC4"
    },
    {
      "bufferView": 11,
      "componentType": 5125,
      "count": 180,
      "name": "Bara_voda/INDICES",
      "type": "SCALAR"
    },
    {
      "bufferView": 12,
      "componentType": 5126,
      "count": 1,
      "name": "/InverseBindMatrices",
      "type": "MAT4"
    },
    {
      "bufferView": 13,
      "componentType": 5126,
      "count": 81,
      "max": [
        4.958333492279053
      ],
      "min": [
        0.0
      ],
      "name": "joint1/Trs/Input",
      "type": "SCALAR"
    },
    {
      "bufferView": 14,
      "componentType": 5126,
      "count": 81,
      "name": "joint1/translation/Output",
      "type": "VEC3"
    },
    {
      "bufferView": 15,
      "componentType": 5126,
      "count": 81,
      "name": "joint1/rotation/Output",
      "type": "VEC4"
    },
    {
      "bufferView": 16,
      "componentType": 5126,
      "count": 81,
      "name": "joint1/scale/Output",
      "type": "VEC3"
    }
  ],
  "animations": [
    {
      "channels": [
        {
          "sampler": 0,
          "target": {
            "node": 3,
            "path": "translation"
          }
        },
        {
          "sampler": 1,
          "target": {
            "node": 3,
            "path": "rotation"
          }
        },
        {
          "sampler": 2,
          "target": {
            "node": 3,
            "path": "scale"
          }
        }
      ],
      "name": "Take 001",
      "samplers": [
        {
          "input": 27,
          "output": 28
        },
        {
          "input": 27,
          "output": 29
        },
        {
          "input": 27,
          "output": 30
        }
      ]
    }
  ],
  "asset": {
    "copyright": "Copyright (c) 2018-2020 Chukong Technologies Inc.",
    "generator": "FBX-glTF-conv",
    "version": "2.0"
  },
  "bufferViews": [
    {
      "buffer": 0,
      "byteLength": 3104,
      "byteStride": 32,
      "name": "Bara_korito_Material0",
      "target": 34962
    },
    {
      "buffer": 0,
      "byteLength": 2112,
      "byteOffset": 3104
    },
    {
      "buffer": 0,
      "byteLength": 15456,
      "byteOffset": 5216,
      "byteStride": 32,
      "name": "Bara_korito_Material0",
      "target": 34962
    },
    {
      "buffer": 0,
      "byteLength": 9756,
      "byteOffset": 20672
    },
    {
      "buffer": 0,
      "byteLength": 15840,
      "byteOffset": 30428,
      "byteStride": 32,
      "name": "Bara_korito_Material0",
      "target": 34962
    },
    {
      "buffer": 0,
      "byteLength": 6336,
      "byteOffset": 46268
    },
    {
      "buffer": 0,
      "byteLength": 16384,
      "byteOffset": 52604,
      "byteStride": 32,
      "name": "Bara_korito_Material0",
      "target": 34962
    },
    {
      "buffer": 0,
      "byteLength": 4608,
      "byteOffset": 68988
    },
    {
      "buffer": 0,
      "byteLength": 4096,
      "byteOffset": 73596,
      "byteStride": 32,
      "name": "Bara_korito_Material0",
      "target": 34962
    },
    {
      "buffer": 0,
      "byteLength": 1152,
      "byteOffset": 77692
    },
    {
      "buffer": 0,
      "byteLength": 3584,
      "byteOffset": 78844,
      "byteStride": 56,
      "name": "Bara_voda",
      "target": 34962
    },
    {
      "buffer": 0,
      "byteLength": 720,
      "byteOffset": 82428
    },
    {
      "buffer": 0,
      "byteLength": 64,
      "byteOffset": 83148
    },
    {
      "buffer": 0,
      "byteLength": 324,
      "byteOffset": 83212
    },
    {
      "buffer": 0,
      "byteLength": 972,
      "byteOffset": 83536
    },
    {
      "buffer": 0,
      "byteLength": 1296,
      "byteOffset": 84508
    },
    {
      "buffer": 0,
      "byteLength": 972,
      "byteOffset": 85804
    }
  ],
  "buffers": [
    {
      "byteLength": 86776,
      "uri": "out.bin"
    }
  ],
  "extras": {
    "FBX-glTF-conv": {
      "animationFrameRate": 24.0
    }
  },
  "images": [
    {
      "extras": {
        "FBX-glTF-conv": {
          "fileName": "/Users/aleksandarbedov/Documents/CocosCreator/tajanstvenesobe2/temp/asset-db/assets/fbx.FBX-glTF-conv/97e37576-2cf1-4d02-af4e-59f5bb3bac94/output/.fbm/F23B28ED/Uskrs samo bara 6. april.fbm/Pond_DF.png",
          "relativeFileName": "../../../temp/asset-db/assets/fbx.FBX-glTF-conv/97e37576-2cf1-4d02-af4e-59f5bb3bac94/output/.fbm/F23B28ED/Uskrs samo bara 6. april.fbm/Pond_DF.png"
        }
      },
      "name": "Pond_DF.png",
      "uri": "Pond_DF.png"
    },
    {
      "extras": {
        "FBX-glTF-conv": {
          "fileName": "/Users/aleksandarbedov/Documents/CocosCreator/tajanstvenesobe2/temp/asset-db/assets/fbx.FBX-glTF-conv/97e37576-2cf1-4d02-af4e-59f5bb3bac94/output/.fbm/F23B28ED/Uskrs samo bara 6. april.fbm/Rock_01.png",
          "relativeFileName": "../../../temp/asset-db/assets/fbx.FBX-glTF-conv/97e37576-2cf1-4d02-af4e-59f5bb3bac94/output/.fbm/F23B28ED/Uskrs samo bara 6. april.fbm/Rock_01.png"
        }
      },
      "name": "Rock_01.png",
      "uri": "Rock_01.png"
    },
    {
      "extras": {
        "FBX-glTF-conv": {
          "fileName": "/Users/aleksandarbedov/Documents/CocosCreator/tajanstvenesobe2/temp/asset-db/assets/fbx.FBX-glTF-conv/97e37576-2cf1-4d02-af4e-59f5bb3bac94/output/.fbm/F23B28ED/Uskrs samo bara 6. april.fbm/Bush_03.png",
          "relativeFileName": "../../../temp/asset-db/assets/fbx.FBX-glTF-conv/97e37576-2cf1-4d02-af4e-59f5bb3bac94/output/.fbm/F23B28ED/Uskrs samo bara 6. april.fbm/Bush_03.png"
        }
      },
      "name": "Bush_03.png",
      "uri": "Bush_03.png"
    },
    {
      "extras": {
        "FBX-glTF-conv": {
          "fileName": "/Users/aleksandarbedov/Documents/CocosCreator/tajanstvenesobe2/temp/asset-db/assets/fbx.FBX-glTF-conv/97e37576-2cf1-4d02-af4e-59f5bb3bac94/output/.fbm/F23B28ED/Uskrs samo bara 6. april.fbm/Bush_02.png",
          "relativeFileName": "../../../temp/asset-db/assets/fbx.FBX-glTF-conv/97e37576-2cf1-4d02-af4e-59f5bb3bac94/output/.fbm/F23B28ED/Uskrs samo bara 6. april.fbm/Bush_02.png"
        }
      },
      "name": "Bush_02.png",
      "uri": "Bush_02.png"
    },
    {
      "extras": {
        "FBX-glTF-conv": {
          "fileName": "/Users/aleksandarbedov/Documents/CocosCreator/tajanstvenesobe2/temp/asset-db/assets/fbx.FBX-glTF-conv/97e37576-2cf1-4d02-af4e-59f5bb3bac94/output/.fbm/F23B28ED/Uskrs samo bara 6. april.fbm/Bush_05.png",
          "relativeFileName": "../../../temp/asset-db/assets/fbx.FBX-glTF-conv/97e37576-2cf1-4d02-af4e-59f5bb3bac94/output/.fbm/F23B28ED/Uskrs samo bara 6. april.fbm/Bush_05.png"
        }
      },
      "name": "Bush_05.png",
      "uri": "Bush_05.png"
    }
  ],
  "materials": [
    {
      "alphaMode": "BLEND",
      "name": "Pond_water1",
      "pbrMetallicRoughness": {
        "baseColorFactor": [
          0.800000011920929,
          0.800000011920929,
          0.800000011920929,
          0.0
        ],
        "baseColorTexture": {
          "index": 0
        }
      }
    },
    {
      "alphaMode": "BLEND",
      "name": "Rock_02",
      "pbrMetallicRoughness": {
        "baseColorFactor": [
          1.0,
          1.0,
          1.0,
          0.0
        ],
        "baseColorTexture": {
          "index": 1
        }
      }
    },
    {
      "alphaMode": "BLEND",
      "name": "Bush_10",
      "pbrMetallicRoughness": {
        "baseColorFactor": [
          1.0,
          1.0,
          1.0,
          0.0
        ],
        "baseColorTexture": {
          "index": 2
        }
      }
    },
    {
      "alphaMode": "BLEND",
      "name": "Bush_09",
      "pbrMetallicRoughness": {
        "baseColorFactor": [
          1.0,
          1.0,
          1.0,
          0.0
        ],
        "baseColorTexture": {
          "index": 3
        }
      }
    },
    {
      "alphaMode": "BLEND",
      "name": "Bush_12",
      "pbrMetallicRoughness": {
        "baseColorFactor": [
          1.0,
          1.0,
          1.0,
          0.0
        ],
        "baseColorTexture": {
          "index": 4
        }
      }
    }
  ],
  "meshes": [
    {
      "name": "Bara_korito_Material0",
      "primitives": [
        {
          "attributes": {
            "NORMAL": 1,
            "POSITION": 0,
            "TEXCOORD_0": 2
          },
          "indices": 3,
          "material": 0
        },
        {
          "attributes": {
            "NORMAL": 5,
            "POSITION": 4,
            "TEXCOORD_0": 6
          },
          "indices": 7,
          "material": 1
        },
        {
          "attributes": {
            "NORMAL": 9,
            "POSITION": 8,
            "TEXCOORD_0": 10
          },
          "indices": 11,
          "material": 2
        },
        {
          "attributes": {
            "NORMAL": 13,
            "POSITION": 12,
            "TEXCOORD_0": 14
          },
          "indices": 15,
          "material": 3
        },
        {
          "attributes": {
            "NORMAL": 17,
            "POSITION": 16,
            "TEXCOORD_0": 18
          },
          "indices": 19,
          "material": 4
        }
      ]
    },
    {
      "name": "Bara_voda",
      "primitives": [
        {
          "attributes": {
            "JOINTS_0": 23,
            "NORMAL": 21,
            "POSITION": 20,
            "TEXCOORD_0": 22,
            "WEIGHTS_0": 24
          },
          "indices": 25,
          "material": 0
        }
      ]
    }
  ],
  "nodes": [
    {
      "children": [
        1,
        2,
        3
      ],
      "name": "Bara"
    },
    {
      "mesh": 0,
      "name": "Bara_korito",
      "rotation": [
        0.0,
        0.47030380368232727,
        0.0,
        0.8825045824050903
      ],
      "translation": [
        7.634974479675293,
        0.04460421949625015,
        4.604170322418213
      ]
    },
    {
      "mesh": 1,
      "name": "Bara_voda",
      "rotation": [
        0.0,
        0.47030380368232727,
        0.0,
        0.8825045824050903
      ],
      "skin": 0,
      "translation": [
        7.634974479675293,
        -0.022301532328128815,
        4.604170322418213
      ]
    },
    {
      "extras": {
        "FBX-glTF-conv": {
          "skeleton": {
            "skeletonType": "LimbNode"
          }
        }
      },
      "name": "joint1",
      "rotation": [
        -2.2816215277998708e-05,
        -0.0,
        0.0,
        1.0
      ],
      "scale": [
        1.0,
        1.0,
        0.9998624324798584
      ],
      "translation": [
        7.538886070251465,
        0.12939806282520294,
        4.676566123962402
      ]
    }
  ],
  "samplers": [
    {}
  ],
  "scenes": [
    {
      "nodes": [
        0
      ]
    }
  ],
  "skins": [
    {
      "inverseBindMatrices": 26,
      "joints": [
        3
      ]
    }
  ],
  "textures": [
    {
      "name": "Pond_DF.png",
      "sampler": 0,
      "source": 0
    },
    {
      "name": "Rock_01.png",
      "sampler": 0,
      "source": 1
    },
    {
      "name": "Bush_03.png",
      "sampler": 0,
      "source": 2
    },
    {
      "name": "Bush_02.png",
      "sampler": 0,
      "source": 3
    },
    {
      "name": "Bush_05.png",
      "sampler": 0,
      "source": 4
    }
  ]
}