{"buffers":[{"uri":"out.bin","byteLength":3001832}],"asset":{"version":"2.0","generator":"gltfpack 0.14"},"bufferViews":[{"buffer":0,"byteOffset":0,"byteLength":999804,"byteStride":12,"target":34962},{"buffer":0,"byteOffset":999804,"byteLength":999804,"byteStride":12,"target":34962},{"buffer":0,"byteOffset":1999608,"byteLength":666104,"byteStride":8,"target":34962},{"buffer":0,"byteOffset":2665712,"byteLength":315366,"target":34963},{"buffer":0,"byteOffset":2981080,"byteLength":5440,"byteStride":4,"target":34962},{"buffer":0,"byteOffset":2986520,"byteLength":5440,"byteStride":4,"target":34962},{"buffer":0,"byteOffset":2991960,"byteLength":1472},{"buffer":0,"byteOffset":2993432,"byteLength":600},{"buffer":0,"byteOffset":2994032,"byteLength":1800},{"buffer":0,"byteOffset":2995832,"byteLength":6000}],"accessors":[{"bufferView":0,"byteOffset":0,"componentType":5126,"count":354,"type":"VEC3"},{"bufferView":1,"byteOffset":0,"componentType":5126,"count":354,"type":"VEC3","min":[-0.00793846138,-0.00105569582,-0.00445284648],"max":[0.00789080188,0.0010556957,0.00441157585]},{"bufferView":2,"byteOffset":0,"componentType":5126,"count":354,"type":"VEC2"},{"bufferView":3,"byteOffset":0,"componentType":5123,"count":1206,"type":"SCALAR"},{"bufferView":0,"byteOffset":4248,"componentType":5126,"count":223,"type":"VEC3"},{"bufferView":1,"byteOffset":4248,"componentType":5126,"count":223,"type":"VEC3","min":[-0.001867429,0.00156447676,-0.003310445],"max":[0.00132276537,0.00358487898,0.00290300604]},{"bufferView":2,"byteOffset":2832,"componentType":5126,"count":223,"type":"VEC2"},{"bufferView":3,"byteOffset":2412,"componentType":5123,"count":666,"type":"SCALAR"},{"bufferView":0,"byteOffset":6924,"componentType":5126,"count":232,"type":"VEC3"},{"bufferView":1,"byteOffset":6924,"componentType":5126,"count":232,"type":"VEC3","min":[-0.00174043654,-0.000154763533,-0.00347201712],"max":[0.00194767956,0.00194094121,0.00319293374]},{"bufferView":2,"byteOffset":4616,"componentType":5126,"count":232,"type":"VEC2"},{"bufferView":3,"byteOffset":3744,"componentType":5123,"count":360,"type":"SCALAR"},{"bufferView":0,"byteOffset":9708,"componentType":5126,"count":54,"type":"VEC3"},{"bufferView":1,"byteOffset":9708,"componentType":5126,"count":54,"type":"VEC3","min":[-0.131869316,-0.1369147,-0.113160856],"max":[0.131869316,0.137748733,0.113160856]},{"bufferView":3,"byteOffset":4464,"componentType":5123,"count":294,"type":"SCALAR"},{"bufferView":0,"byteOffset":10356,"componentType":5126,"count":798,"type":"VEC3"},{"bufferView":1,"byteOffset":10356,"componentType":5126,"count":798,"type":"VEC3","min":[-0.527121663,-0.00116344308,-0.396530688],"max":[0.50766319,0.872044683,0.389544934]},{"bufferView":2,"byteOffset":6472,"componentType":5126,"count":798,"type":"VEC2"},{"bufferView":3,"byteOffset":5052,"componentType":5123,"count":2490,"type":"SCALAR"},{"bufferView":0,"byteOffset":19932,"componentType":5126,"count":1507,"type":"VEC3"},{"bufferView":1,"byteOffset":19932,"componentType":5126,"count":1507,"type":"VEC3","min":[-0.00454888353,-0.00761577906,-0.00514815282],"max":[0.00544237159,0.012789485,0.00484261289]},{"bufferView":2,"byteOffset":12856,"componentType":5126,"count":1507,"type":"VEC2"},{"bufferView":3,"byteOffset":10032,"componentType":5123,"count":2346,"type":"SCALAR"},{"bufferView":0,"byteOffset":38016,"componentType":5126,"count":718,"type":"VEC3"},{"bufferView":1,"byteOffset":38016,"componentType":5126,"count":718,"type":"VEC3","min":[-0.00639265077,-0.012789485,-0.00411659386],"max":[0.00639264565,-0.00513121299,0.00750218285]},{"bufferView":2,"byteOffset":24912,"componentType":5126,"count":718,"type":"VEC2"},{"bufferView":3,"byteOffset":14724,"componentType":5123,"count":1278,"type":"SCALAR"},{"bufferView":0,"byteOffset":46632,"componentType":5126,"count":104,"type":"VEC3"},{"bufferView":1,"byteOffset":46632,"componentType":5126,"count":104,"type":"VEC3","min":[-0.0103208348,5.61223933e-05,-0.000735951646],"max":[-0.00630085962,0.0148070101,0.00319848186]},{"bufferView":2,"byteOffset":30656,"componentType":5126,"count":104,"type":"VEC2"},{"bufferView":3,"byteOffset":17280,"componentType":5123,"count":174,"type":"SCALAR"},{"bufferView":0,"byteOffset":47880,"componentType":5126,"count":474,"type":"VEC3"},{"bufferView":1,"byteOffset":47880,"componentType":5126,"count":474,"type":"VEC3","min":[-0.000499882677,-0.00014586233,-0.0060772514],"max":[0.0100810956,0.00365503784,0.00585265644]},{"bufferView":2,"byteOffset":31488,"componentType":5126,"count":474,"type":"VEC2"},{"bufferView":3,"byteOffset":17628,"componentType":5123,"count":780,"type":"SCALAR"},{"bufferView":0,"byteOffset":53568,"componentType":5126,"count":3899,"type":"VEC3"},{"bufferView":1,"byteOffset":53568,"componentType":5126,"count":3899,"type":"VEC3","min":[-0.0100103067,-0.000397557829,-0.0104718087],"max":[0.0100103095,0.00178002834,0.0104718162]},{"bufferView":2,"byteOffset":35280,"componentType":5126,"count":3899,"type":"VEC2"},{"bufferView":3,"byteOffset":19188,"componentType":5123,"count":12672,"type":"SCALAR"},{"bufferView":0,"byteOffset":100356,"componentType":5126,"count":1038,"type":"VEC3"},{"bufferView":1,"byteOffset":100356,"componentType":5126,"count":1038,"type":"VEC3","min":[-1.05542421,-0.231392443,-0.496617585],"max":[1.05542421,0.231392443,0.496617585]},{"bufferView":2,"byteOffset":66472,"componentType":5126,"count":1038,"type":"VEC2"},{"bufferView":3,"byteOffset":44532,"componentType":5123,"count":3192,"type":"SCALAR"},{"bufferView":0,"byteOffset":112812,"componentType":5126,"count":4014,"type":"VEC3"},{"bufferView":1,"byteOffset":112812,"componentType":5126,"count":4014,"type":"VEC3","min":[-0.136959031,0.000840627996,-0.136959061],"max":[0.136959031,0.0276422985,0.136959061]},{"bufferView":2,"byteOffset":74776,"componentType":5126,"count":4014,"type":"VEC2"},{"bufferView":3,"byteOffset":50916,"componentType":5123,"count":4686,"type":"SCALAR"},{"bufferView":4,"byteOffset":0,"componentType":5121,"count":1360,"type":"VEC4"},{"bufferView":0,"byteOffset":160980,"componentType":5126,"count":1360,"type":"VEC3"},{"bufferView":1,"byteOffset":160980,"componentType":5126,"count":1360,"type":"VEC3","min":[-0.303408384,-0.343754947,0.000682726328],"max":[0.348267823,0.219219193,0.636008799]},{"bufferView":2,"byteOffset":106888,"componentType":5126,"count":1360,"type":"VEC2"},{"bufferView":5,"byteOffset":0,"componentType":5121,"count":1360,"type":"VEC4","normalized":true},{"bufferView":3,"byteOffset":60288,"componentType":5123,"count":1380,"type":"SCALAR"},{"bufferView":0,"byteOffset":177300,"componentType":5126,"count":4971,"type":"VEC3"},{"bufferView":1,"byteOffset":177300,"componentType":5126,"count":4971,"type":"VEC3","min":[-0.0472822413,0.00106415316,-0.0313525312],"max":[0.00140990701,0.0204153918,0.015211653]},{"bufferView":2,"byteOffset":117768,"componentType":5126,"count":4971,"type":"VEC2"},{"bufferView":3,"byteOffset":63048,"componentType":5123,"count":10344,"type":"SCALAR"},{"bufferView":0,"byteOffset":236952,"componentType":5126,"count":48,"type":"VEC3"},{"bufferView":1,"byteOffset":236952,"componentType":5126,"count":48,"type":"VEC3","min":[-0.0477497876,0.000967699452,-0.0323063806],"max":[0.00245572207,0.00111793505,0.0178960133]},{"bufferView":2,"byteOffset":157536,"componentType":5126,"count":48,"type":"VEC2"},{"bufferView":3,"byteOffset":83736,"componentType":5123,"count":72,"type":"SCALAR"},{"bufferView":0,"byteOffset":237528,"componentType":5126,"count":3077,"type":"VEC3"},{"bufferView":1,"byteOffset":237528,"componentType":5126,"count":3077,"type":"VEC3","min":[-0.124064311,-5.55306688e-05,-0.119036138],"max":[-0.0283443648,0.0256730299,-0.0549518205]},{"bufferView":2,"byteOffset":157920,"componentType":5126,"count":3077,"type":"VEC2"},{"bufferView":3,"byteOffset":83880,"componentType":5123,"count":4956,"type":"SCALAR"},{"bufferView":0,"byteOffset":274452,"componentType":5126,"count":4004,"type":"VEC3"},{"bufferView":1,"byteOffset":274452,"componentType":5126,"count":4004,"type":"VEC3","min":[-0.00182867283,-0.000888420444,-0.117899492],"max":[0.110513963,0.0268425718,-0.0666101649]},{"bufferView":2,"byteOffset":182536,"componentType":5126,"count":4004,"type":"VEC2"},{"bufferView":3,"byteOffset":93792,"componentType":5123,"count":7302,"type":"SCALAR"},{"bufferView":0,"byteOffset":322500,"componentType":5126,"count":1473,"type":"VEC3"},{"bufferView":1,"byteOffset":322500,"componentType":5126,"count":1473,"type":"VEC3","min":[0.0216783769,0.00300301635,0.0724240467],"max":[0.119888246,0.029376803,0.131334573]},{"bufferView":2,"byteOffset":214568,"componentType":5126,"count":1473,"type":"VEC2"},{"bufferView":3,"byteOffset":108396,"componentType":5123,"count":3276,"type":"SCALAR"},{"bufferView":0,"byteOffset":340176,"componentType":5126,"count":1858,"type":"VEC3"},{"bufferView":1,"byteOffset":340176,"componentType":5126,"count":1858,"type":"VEC3","min":[-0.10856273,0.000468085025,-0.00999527611],"max":[-0.0117940521,0.0270473529,0.101288386]},{"bufferView":2,"byteOffset":226352,"componentType":5126,"count":1858,"type":"VEC2"},{"bufferView":3,"byteOffset":114948,"componentType":5123,"count":3627,"type":"SCALAR"},{"bufferView":0,"byteOffset":362472,"componentType":5126,"count":910,"type":"VEC3"},{"bufferView":1,"byteOffset":362472,"componentType":5126,"count":910,"type":"VEC3","min":[0.0703608543,8.11654318e-05,-0.0623313002],"max":[0.109130532,0.0149048408,0.0110404287]},{"bufferView":2,"byteOffset":241216,"componentType":5126,"count":910,"type":"VEC2"},{"bufferView":3,"byteOffset":122202,"componentType":5123,"count":1788,"type":"SCALAR"},{"bufferView":0,"byteOffset":373392,"componentType":5126,"count":22553,"type":"VEC3"},{"bufferView":1,"byteOffset":373392,"componentType":5126,"count":22553,"type":"VEC3","min":[-0.157753691,-0.0105607668,-0.151062131],"max":[0.163488001,0.0455114953,0.162949026]},{"bufferView":2,"byteOffset":248496,"componentType":5126,"count":22553,"type":"VEC2"},{"bufferView":3,"byteOffset":125778,"componentType":5123,"count":45009,"type":"SCALAR"},{"bufferView":0,"byteOffset":644028,"componentType":5126,"count":26249,"type":"VEC3"},{"bufferView":1,"byteOffset":644028,"componentType":5126,"count":26249,"type":"VEC3","min":[-0.080990985,0.000890176918,-0.0622188225],"max":[0.0644472837,0.0196117982,0.0491340533]},{"bufferView":2,"byteOffset":428920,"componentType":5126,"count":26249,"type":"VEC2"},{"bufferView":3,"byteOffset":215796,"componentType":5123,"count":44106,"type":"SCALAR"},{"bufferView":0,"byteOffset":959016,"componentType":5126,"count":3399,"type":"VEC3"},{"bufferView":1,"byteOffset":959016,"componentType":5126,"count":3399,"type":"VEC3","min":[-0.077721715,0.00085005461,-0.0627642721],"max":[0.101170816,0.00506865047,0.0448199846]},{"bufferView":2,"byteOffset":638912,"componentType":5126,"count":3399,"type":"VEC2"},{"bufferView":3,"byteOffset":304008,"componentType":5123,"count":5679,"type":"SCALAR"},{"bufferView":6,"byteOffset":0,"componentType":5126,"count":23,"type":"MAT4"},{"bufferView":7,"byteOffset":0,"componentType":5126,"count":150,"type":"SCALAR","min":[0],"max":[4.9666667]},{"bufferView":8,"byteOffset":0,"componentType":5126,"count":150,"type":"VEC3"},{"bufferView":9,"byteOffset":0,"componentType":5122,"count":150,"type":"VEC4","normalized":true},{"bufferView":9,"byteOffset":1200,"componentType":5122,"count":150,"type":"VEC4","normalized":true},{"bufferView":9,"byteOffset":2400,"componentType":5122,"count":150,"type":"VEC4","normalized":true},{"bufferView":9,"byteOffset":3600,"componentType":5122,"count":150,"type":"VEC4","normalized":true},{"bufferView":9,"byteOffset":4800,"componentType":5122,"count":150,"type":"VEC4","normalized":true}],"images":[{"uri":"Medieval LQ 2k.jpg"},{"uri":"Medieval.jpg"},{"uri":"Medieval_Obj edited 8bit.png"},{"uri":"DemoTexture.png"}],"textures":[{"source":0},{"source":1},{"source":2},{"source":3}],"materials":[{"name":"NOVA_Sredjnevekovna_scena_62_Cocos_combined_14:Medieval3","pbrMetallicRoughness":{"baseColorTexture":{"index":0,"texCoord":0}}},{"name":"NOVA_Sredjnevekovna_scena_62_Cocos_combined_14:bundeve","pbrMetallicRoughness":{"baseColorFactor":[0.800000012,0.800000012,0.800000012,1],"baseColorTexture":{"index":1,"texCoord":0}}},{"name":"NOVA_Sredjnevekovna_scena_62_Cocos_combined_14:napitak","pbrMetallicRoughness":{"baseColorFactor":[0.800000012,0.448786706,0,1],"metallicFactor":0.400000006,"roughnessFactor":0.490532398}},{"name":"NOVA_Sredjnevekovna_scena_62_Cocos_combined_14:Medieval_Obj","pbrMetallicRoughness":{"baseColorTexture":{"index":2,"texCoord":0}}},{"name":"NOVA_Sredjnevekovna_scena_62_Cocos_combined_14:lambert6","pbrMetallicRoughness":{"baseColorTexture":{"index":3,"texCoord":0}}}],"meshes":[{"primitives":[{"attributes":{"NORMAL":0,"POSITION":1,"TEXCOORD_0":2},"mode":4,"indices":3,"material":0}]},{"primitives":[{"attributes":{"NORMAL":4,"POSITION":5,"TEXCOORD_0":6},"mode":4,"indices":7,"material":1},{"attributes":{"NORMAL":8,"POSITION":9,"TEXCOORD_0":10},"mode":4,"indices":11,"material":0}]},{"primitives":[{"attributes":{"NORMAL":12,"POSITION":13},"mode":4,"indices":14,"material":2}]},{"primitives":[{"attributes":{"NORMAL":15,"POSITION":16,"TEXCOORD_0":17},"mode":4,"indices":18,"material":3}]},{"primitives":[{"attributes":{"NORMAL":19,"POSITION":20,"TEXCOORD_0":21},"mode":4,"indices":22,"material":3},{"attributes":{"NORMAL":23,"POSITION":24,"TEXCOORD_0":25},"mode":4,"indices":26,"material":0}]},{"primitives":[{"attributes":{"NORMAL":27,"POSITION":28,"TEXCOORD_0":29},"mode":4,"indices":30,"material":0},{"attributes":{"NORMAL":31,"POSITION":32,"TEXCOORD_0":33},"mode":4,"indices":34,"material":3}]},{"primitives":[{"attributes":{"NORMAL":35,"POSITION":36,"TEXCOORD_0":37},"mode":4,"indices":38,"material":3}]},{"primitives":[{"attributes":{"NORMAL":39,"POSITION":40,"TEXCOORD_0":41},"mode":4,"indices":42,"material":3}]},{"primitives":[{"attributes":{"NORMAL":43,"POSITION":44,"TEXCOORD_0":45},"mode":4,"indices":46,"material":3}]},{"primitives":[{"attributes":{"JOINTS_0":47,"NORMAL":48,"POSITION":49,"TEXCOORD_0":50,"WEIGHTS_0":51},"mode":4,"indices":52,"material":4}]},{"primitives":[{"attributes":{"NORMAL":53,"POSITION":54,"TEXCOORD_0":55},"mode":4,"indices":56,"material":0},{"attributes":{"NORMAL":57,"POSITION":58,"TEXCOORD_0":59},"mode":4,"indices":60,"material":3}]},{"primitives":[{"attributes":{"NORMAL":61,"POSITION":62,"TEXCOORD_0":63},"mode":4,"indices":64,"material":3}]},{"primitives":[{"attributes":{"NORMAL":65,"POSITION":66,"TEXCOORD_0":67},"mode":4,"indices":68,"material":3}]},{"primitives":[{"attributes":{"NORMAL":69,"POSITION":70,"TEXCOORD_0":71},"mode":4,"indices":72,"material":3}]},{"primitives":[{"attributes":{"NORMAL":73,"POSITION":74,"TEXCOORD_0":75},"mode":4,"indices":76,"material":3}]},{"primitives":[{"attributes":{"NORMAL":77,"POSITION":78,"TEXCOORD_0":79},"mode":4,"indices":80,"material":3}]},{"primitives":[{"attributes":{"NORMAL":81,"POSITION":82,"TEXCOORD_0":83},"mode":4,"indices":84,"material":3},{"attributes":{"NORMAL":85,"POSITION":86,"TEXCOORD_0":87},"mode":4,"indices":88,"material":0}]},{"primitives":[{"attributes":{"NORMAL":89,"POSITION":90,"TEXCOORD_0":91},"mode":4,"indices":92,"material":3}]}],"skins":[{"joints":[30,31,32,33,34,36,37,38,39,41,42,43,44,46,47,48,49,50,52,53,54,55,56],"inverseBindMatrices":93}],"animations":[{"name":"Take 001","samplers":[{"input":94,"output":95},{"input":94,"output":96},{"input":94,"output":97},{"input":94,"output":98},{"input":94,"output":99},{"input":94,"output":100}],"channels":[{"sampler":0,"target":{"node":30,"path":"translation"}},{"sampler":1,"target":{"node":31,"path":"rotation"}},{"sampler":2,"target":{"node":32,"path":"rotation"}},{"sampler":3,"target":{"node":36,"path":"rotation"}},{"sampler":4,"target":{"node":38,"path":"rotation"}},{"sampler":5,"target":{"node":41,"path":"rotation"}}]}],"nodes":[{"mesh":0},{"mesh":1},{"mesh":2},{"mesh":3},{"mesh":4},{"mesh":5},{"mesh":6},{"mesh":7},{"mesh":8},{"mesh":9,"skin":0},{"mesh":10},{"mesh":11},{"mesh":12},{"mesh":13},{"mesh":14},{"mesh":15},{"mesh":16},{"mesh":17},{"name":"Glinene_posude","translation":[-0.036816109,0.00218277192,0.00194424158],"scale":[1,1.02754605,1],"children":[0]},{"name":"Bundeve","translation":[-0.0131986393,0.00111662305,0.00881559122],"scale":[1,1.0440582,1],"children":[1]},{"name":"Zuti_napitak","translation":[-0.0726411343,0.00340300496,-0.0405459926],"scale":[0.00546315918,0.00539065339,0.00546315918],"children":[2]},{"name":"Bunar","translation":[-0.0109061413,0.00111829396,-0.0428472646],"rotation":[0,-0.692653239,0,0.72127074],"scale":[0.00557139516,0.00593132805,0.00557139469],"children":[3]},{"name":"Toranj","translation":[0.0469272994,0.013304431,0.000127446794],"rotation":[6.29880368e-17,0.999576628,-0.0290960465,5.94247942e-17],"scale":[1,0.970978558,1.03253806],"children":[4]},{"name":"Macevi_i_pec","translation":[-0.0651536584,0.00107616303,-0.0148478793],"scale":[1,0.956015348,1],"children":[5]},{"name":"Sargarepa","translation":[0.0214763209,0.00106222997,-0.051193729],"scale":[1,1.08697271,1],"children":[6]},{"name":"Hleb","translation":[-0.0619990639,0.00214918982,0.0283492655],"rotation":[6.03743049e-17,0.999903142,6.03743049e-17,0.013915983],"scale":[0.0057601938,0.0057601938,0.0057601938],"children":[7]},{"name":"Pod_i_putevi","children":[8]},{"name":"Vitez","children":[28,58]},{"name":"NOVA_Sredjnevekovna_scena_62_Cocos_combined_14:Bip001","translation":[0.0427391641,0.00812670216,0.000300035696],"rotation":[-0.0788167417,0.702700436,0.702700436,0.0788168535],"scale":[0.00506725861,0.00506725861,0.00506725907],"children":[29,30]},{"name":"NOVA_Sredjnevekovna_scena_62_Cocos_combined_14:Bip001 Footsteps","translation":[1.19209287e-09,-2.2737367e-15,-0.287105203],"rotation":[-1.25607331e-15,-7.36605812e-24,0.707106292,0.707107246],"scale":[0.99999994,0.99999994,1]},{"name":"NOVA_Sredjnevekovna_scena_62_Cocos_combined_14:Bip001 Pelvis","translation":[9.89838322e-10,0,0.000713756599],"rotation":[-0.5,-0.5,-0.499999344,0.500000656],"scale":[1,0.999999881,0.99999994],"children":[31,46,52]},{"name":"NOVA_Sredjnevekovna_scena_62_Cocos_combined_14:Bip001 Spine","translation":[0.0443600081,-0.000113492009,6.11467286e-08],"rotation":[-2.10215171e-06,-6.71551618e-07,0.0312202498,0.999512553],"scale":[1,0.999999821,1],"children":[32,36,41]},{"name":"NOVA_Sredjnevekovna_scena_62_Cocos_combined_14:Bip001 Neck","translation":[0.153997958,-0.00244707707,-1.83538393e-08],"rotation":[-6.67511246e-09,-4.86790498e-07,0.224674091,0.974433959],"scale":[1,1,1.00000012],"children":[33]},{"name":"NOVA_Sredjnevekovna_scena_62_Cocos_combined_14:Bip001 Head","translation":[0.0278383438,0.00587482937,9.21108345e-09],"rotation":[5.13739495e-09,4.57736149e-07,-0.156256929,0.987716436],"scale":[0.99999994,0.99999994,1],"children":[34]},{"name":"NOVA_Sredjnevekovna_scena_62_Cocos_combined_14:Bip001 HeadNub","translation":[0.0974464417,-1.19335819e-09,5.60542501e-09],"scale":[1,0.99999994,1],"children":[35]},{"name":"NOVA_Sredjnevekovna_scena_62_Cocos_combined_14:Bip001 HeadNub_end","translation":[-1.06581408e-16,0.0974464491,2.84217088e-16]},{"name":"NOVA_Sredjnevekovna_scena_62_Cocos_combined_14:Bip001 L Clavicle","translation":[0.129266858,1.0488814e-05,0.0255353004],"rotation":[0.610524058,-0.0292957611,0.791146934,-0.0221050829],"scale":[1.00000012,0.999999762,1.00000691],"children":[37]},{"name":"NOVA_Sredjnevekovna_scena_62_Cocos_combined_14:Bip001 L UpperArm","translation":[0.0642493218,-2.25202523e-08,-4.21889119e-08],"rotation":[0.0618235655,0.42397514,0.00394940237,0.903552592],"scale":[1,0.999999821,0.999999881],"children":[38]},{"name":"NOVA_Sredjnevekovna_scena_62_Cocos_combined_14:Bip001 L Forearm","translation":[0.11723914,8.75512853e-08,3.01226976e-07],"rotation":[2.20708316e-07,1.55586099e-06,-0.167641327,0.985848069],"scale":[0.99999994,1.00000024,1],"children":[39]},{"name":"NOVA_Sredjnevekovna_scena_62_Cocos_combined_14:Bip001 L Hand","translation":[0.0897890255,5.17815479e-09,4.71998931e-07],"rotation":[-0.706403434,-0.0244019553,0.0244213343,0.706966996],"scale":[0.999999821,0.999999762,0.999999702],"children":[40]},{"name":"NOVA_Sredjnevekovna_scena_62_Cocos_combined_14:Bip001 L Hand_end","translation":[-5.68434176e-16,0.0897891596,1.13686835e-15],"rotation":[-4.37016326e-17,-4.01213244e-18,-0.228172064,0.973620832]},{"name":"NOVA_Sredjnevekovna_scena_62_Cocos_combined_14:Bip001 R Clavicle","translation":[0.129266873,1.06226116e-05,-0.0255353171],"rotation":[-0.605613887,0.0294298232,0.79491204,-0.0219215993],"scale":[1.00000012,1.00000036,1.00000715],"children":[42]},{"name":"NOVA_Sredjnevekovna_scena_62_Cocos_combined_14:Bip001 R UpperArm","translation":[0.0642493218,-8.26028668e-09,6.3879412e-08],"rotation":[-0.0615210719,-0.472031802,0.00727394456,0.87940222],"scale":[0.999999821,0.999999881,0.999999762],"children":[43]},{"name":"NOVA_Sredjnevekovna_scena_62_Cocos_combined_14:Bip001 R Forearm","translation":[0.117239177,1.14400464e-07,-3.39522956e-07],"rotation":[-3.98114821e-07,-1.54030283e-06,-0.0998332277,0.995004177],"scale":[1,1.00000012,0.99999994],"children":[44]},{"name":"NOVA_Sredjnevekovna_scena_62_Cocos_combined_14:Bip001 R Hand","translation":[0.0897891074,1.98185433e-08,-5.01887428e-07],"rotation":[0.706403494,0.0244019646,0.0244214311,0.706966937],"scale":[1,0.999999881,1],"children":[45]},{"name":"NOVA_Sredjnevekovna_scena_62_Cocos_combined_14:Bip001 R Hand_end","translation":[0,0.0897891596,0]},{"name":"NOVA_Sredjnevekovna_scena_62_Cocos_combined_14:Bip001 L Thigh","translation":[-5.67955034e-08,6.70970906e-08,0.0439732075],"rotation":[0.0215865653,0.998658001,0.0209081378,-0.0421796367],"scale":[1,1.00000048,1],"children":[47]},{"name":"NOVA_Sredjnevekovna_scena_62_Cocos_combined_14:Bip001 L Calf","translation":[0.152222812,9.38773184e-08,4.88013008e-09],"rotation":[8.47900772e-09,1.00958665e-07,-0.0956789553,0.99541223],"scale":[1.00000012,1.00000024,1.00000036],"children":[48]},{"name":"NOVA_Sredjnevekovna_scena_62_Cocos_combined_14:Bip001 L Foot","translation":[0.0957663059,4.41074377e-08,2.40653755e-08],"rotation":[0.025125917,-0.0398127027,0.0671387017,0.996632338],"scale":[1,1.00000012,1],"children":[49]},{"name":"NOVA_Sredjnevekovna_scena_62_Cocos_combined_14:Bip001 L Toe0","translation":[0.0411564969,0.0918404832,2.21217733e-09],"rotation":[-4.03573814e-08,3.47879281e-09,0.707106829,0.707106709],"scale":[0.999999881,0.999999881,1],"children":[50]},{"name":"NOVA_Sredjnevekovna_scena_62_Cocos_combined_14:Bip001 L Toe0Nub","translation":[0.00411163736,6.11406925e-09,-2.32217423e-09],"children":[51]},{"name":"NOVA_Sredjnevekovna_scena_62_Cocos_combined_14:Bip001 L Toe0Nub_end","translation":[0,0.00411163317,0]},{"name":"NOVA_Sredjnevekovna_scena_62_Cocos_combined_14:Bip001 R Thigh","translation":[5.69944874e-08,-5.7527842e-08,-0.0439732075],"rotation":[0.0215865374,0.998657882,-0.0209094919,0.0421811566],"scale":[0.999999881,0.999999523,0.999999881],"children":[53]},{"name":"NOVA_Sredjnevekovna_scena_62_Cocos_combined_14:Bip001 R Calf","translation":[0.152222827,-4.72366821e-08,-2.60025264e-08],"rotation":[1.8712325e-09,1.85807323e-07,-0.0956788063,0.99541223],"scale":[0.999999881,1,1.00000012],"children":[54]},{"name":"NOVA_Sredjnevekovna_scena_62_Cocos_combined_14:Bip001 R Foot","translation":[0.0957662836,2.98023228e-09,2.26870185e-08],"rotation":[-0.0248486344,0.0399863012,0.0740628764,0.996141732],"scale":[0.99999994,0.99999994,1.00000012],"children":[55]},{"name":"NOVA_Sredjnevekovna_scena_62_Cocos_combined_14:Bip001 R Toe0","translation":[0.0411564857,0.091840595,8.0880378e-09],"rotation":[-7.46840314e-08,-4.12198276e-08,0.707106829,0.707106709],"scale":[1,0.99999994,1],"children":[56]},{"name":"NOVA_Sredjnevekovna_scena_62_Cocos_combined_14:Bip001 R Toe0Nub","translation":[0.00411166064,-5.99911509e-10,3.17320237e-09],"children":[57]},{"name":"NOVA_Sredjnevekovna_scena_62_Cocos_combined_14:Bip001 R Toe0Nub_end","translation":[1.13686835e-15,0.00411163317,-2.84217088e-16]},{"name":"NOVA_Sredjnevekovna_scena_62_Cocos_combined_14:WK_HeavyIntantry","translation":[3.1744134e-09,2.1460056e-09,-5.13153431e-09],"rotation":[-0.707106829,-9.88412301e-14,-1.00221785e-13,0.707106709],"scale":[2.53999949,2.53999949,2.54000044],"children":[9]},{"name":"Centar_scene","children":[10]},{"name":"Okolina_1","children":[11]},{"name":"Okolina_2","children":[12]},{"name":"Okolina_3","children":[13]},{"name":"Okolina_4","children":[14]},{"name":"Okolina_5","children":[15]},{"name":"Scena","children":[16]},{"name":"prohodni_elementi","children":[17]}],"scenes":[{"nodes":[18,19,20,21,22,23,24,25,26,27,59,60,61,62,63,64,65,66]}],"scene":0}